<?xml version="1.0" encoding="UTF-8"?>
<!DOCTYPE svg PUBLIC "-//W3C//DTD SVG 1.1//EN" "http://www.w3.org/Graphics/SVG/1.1/DTD/svg11.dtd">
<!-- Creator: CorelDRAW 2018 (64-Bit Evaluation Version) -->
<svg xmlns="http://www.w3.org/2000/svg" xml:space="preserve" width="3.88071in" height="3.02144in" version="1.1" style="shape-rendering:geometricPrecision; text-rendering:geometricPrecision; image-rendering:optimizeQuality; fill-rule:evenodd; clip-rule:evenodd"
viewBox="0 0 1941.12 1511.31"
 xmlns:xlink="http://www.w3.org/1999/xlink">
 <defs>
  <style type="text/css">
  
    svg{
        overflow: inherit;
    }

    .fil10 {fill:#FEFEFE}
    .fil18 {fill:#FFDB9E}
    .fil32 {fill:#FDC04D}
    .fil17 {fill:#FCBA4B}
    .fil13 {fill:#F7A077}
    .fil24 {fill:#F7FBF8}
    .fil25 {fill:#FAE686}
    .fil12 {fill:#EEEEEE}
    .fil11 {fill:#E77C58}
    .fil31 {fill:#E79977}
    .fil6 {fill:#DC6339}
    .fil30 {fill:#A1523D}
    .fil22 {fill:#9ED9E3}
    .fil29 {fill:#9AC4E9}
    .fil23 {fill:#8AD1E6}
    .fil20 {fill:#7FD2EB}
    .fil28 {fill:#70A7CD}
    .fil19 {fill:#55B0DB}
    .fil16 {fill:#57C0A4}
    .fil7 {fill:#47C2C9}
    .fil26 {fill:#31B48C}
    .fil15 {fill:#289E9D}
    .fil9 {fill:#5654A1}
    .fil27 {fill:#383A50}
    .fil8 {fill:#3D418F}
    .fil14 {fill:#34325A}
    .fil3 {fill:black}
    .fil21 {fill:black}
    .fil1 {fill:#222430}
    .fil2 {fill:#66FFCC}
    .fil4 {fill:#971F1F}
    .fil0 {fill:#FF9933}
    .fil5 {fill:white}
   
    .golines {
        transform: scalex(0);
        transform-origin: left;        
        transform-box: fill-box;
        transform-origin: center;
        animation: go_lines 4s ease-in-out infinite 0.5s;
    }

     @keyframes go_lines {
        0%{
            transform: scale(0); 
        }

        10% {
            transform: scale(1);  
        }

        100% {
            transform: scale(1);  
        }
    }

    .shapeone{
        animation: animationFramesOne 10s infinite linear;
    }

    @keyframes animationFramesOne{
        0% {
            transform:  translate(0px,0px);
        }
        20% {
            transform:  translate(73px,-1px);
        }
        40% {
            transform:  translate(141px,72px);
        }
        60% {
            transform:  translate(83px,122px);
        }
        80% {
            transform:  translate(40px,72px);
        }
        100% {
            transform:  translate(0px,0px);
        }
    }

    .shapetwo{
        animation: animationFramesTwo 10s infinite linear;
    }

    @keyframes animationFramesTwo{
        0% {
            transform:  translate(0px,0px);
        }
        20% {
            transform:  translate(-90px,-1px);
        }
        40% {
            transform:  translate(-181px,72px);
        }
        60% {
            transform:  translate(-83px,122px);
        }
        80% {
            transform:  translate(-40px,72px);
        }
        100% {
            transform:  translate(0px,0px);
        }
    }

    .shapethree{
        transform-origin: 180px 1170px;
        animation: animationFramesThree 14s infinite linear;
    }

    @keyframes animationFramesThree {
        0% {
            -webkit-transform: rotate(0deg);
            transform: rotate(0deg);
        }
        100% {
            -webkit-transform: rotate(359deg);
            transform: rotate(359deg);
        }
    }

    .shapefour{
        transform-origin: 1850px 270px;
        animation: animationFramesFour 14s infinite linear;
    }

    @keyframes animationFramesFour {
        0% {
            -webkit-transform: rotate(0deg);
            transform: rotate(0deg);
        }
        100% {
            -webkit-transform: rotate(359deg);
            transform: rotate(359deg);
        }
    }
    
  </style>
 </defs>
 <g id="Layer_x0020_1">
  <metadata id="CorelCorpID_0Corel-Layer"/>
  <g id="_2135455186688">
   <path class="fil0 shapeone" d="M100.22 630.43c-55.35,0 -100.22,-44.87 -100.22,-100.22 0,-29.06 12.36,-55.23 32.12,-73.53 17.88,-16.57 41.81,-26.69 68.1,-26.69 49.97,-0 91.39,36.56 98.98,84.39 0.82,5.16 1.24,10.44 1.24,15.83 0,55.35 -44.87,100.22 -100.22,100.22z"/>
   <path class="fil1" d="M854.51 1479.66c0,17.48 -107.45,31.65 -240,31.65 -132.55,0 -240,-14.17 -240,-31.65 0,-17.48 107.45,-31.65 240,-31.65 132.55,0 240,14.18 240,31.65z"/>
   <path class="fil1" d="M1941.12 1440.1c0,13.11 -108.64,23.73 -242.64,23.73 -134.01,0 -242.64,-10.63 -242.64,-23.73 0,-13.11 108.63,-23.74 242.64,-23.74 134.01,0 242.64,10.62 242.64,23.74z"/>
   <polygon class="fil2 shapethree" points="197.36,1171.72 168.79,1171.72 168.79,1143.15 150.96,1143.15 150.96,1171.72 122.39,1171.72 122.39,1189.55 150.96,1189.55 150.96,1218.12 168.79,1218.12 168.79,1189.55 197.36,1189.55 "/>
   <path class="fil0 shapeone" d="M223.37 1119.15c0,9.74 -7.9,17.66 -17.66,17.66 -9.75,0 -17.66,-7.92 -17.66,-17.66 0,-9.76 7.9,-17.67 17.66,-17.67 9.76,0 17.66,7.91 17.66,17.67z"/>
   <path class="fil3" d="M1698.2 1347.8l-1344.35 0c-53.75,0 -97.72,-43.98 -97.72,-97.73l0 -1038.85c0,-53.75 43.97,-97.73 97.72,-97.73l1344.36 -0c53.75,0 97.72,43.98 97.72,97.73l0 1038.85c0,53.75 -43.98,97.73 -97.73,97.73z"/>
   <path class="fil4" d="M366.18 1303.84c-35.07,0 -63.52,-28.44 -63.52,-63.51l0 -1019.35c0,-35.08 28.44,-63.52 63.52,-63.52l1319.69 -0c35.08,0 63.51,28.44 63.51,63.52l0 1019.35c0,35.07 -28.44,63.51 -63.52,63.51l-1319.68 0z"/>
   <path class="fil5" d="M1681.71 1280.14l-1311.37 0c-23.05,0 -41.75,-18.69 -41.75,-41.74l0 -1015.49c0,-23.06 18.69,-41.75 41.75,-41.75l1311.37 0c23.05,0 41.74,18.69 41.74,41.75l0 1015.49c0,23.06 -18.69,41.75 -41.74,41.74z"/>
   <polygon class="fil6" points="831.65,1047.13 448.35,1047.13 448.35,832.63 831.65,832.63 "/>
   <polygon class="fil7" points="967.46,303.39 823.28,303.39 823.28,283.53 967.46,283.53 "/>
   <polygon class="fil7" points="1091.87,303.39 1004.16,303.39 1004.16,283.53 1091.87,283.53 "/>
   <polygon class="fil7" points="952.97,361.42 898.88,361.42 898.88,341.55 952.97,341.55 "/>
   <g>
    <polygon class="fil7 golines" points="724.85,303.39 636.83,303.39 636.83,283.53 724.85,283.53 "/>
    <polygon class="fil7 golines" points="610.24,303.39 435.84,303.39 435.84,283.53 610.24,283.53 "/>
    <polygon class="fil7 golines" points="790.24,303.39 752.41,303.39 752.41,283.53 790.24,283.53 "/>
    <polygon class="fil7 golines" points="877.37,361.42 823.28,361.42 823.28,341.55 877.37,341.55 "/>
    <polygon class="fil7 golines" points="635.18,361.42 547.16,361.42 547.16,341.55 635.18,341.55 "/>
    <polygon class="fil7 golines" points="522.2,361.42 435.84,361.42 435.84,341.55 522.2,341.55 "/>
    <polygon class="fil7 golines" points="804.3,361.42 659.35,361.42 659.35,341.55 804.3,341.55 "/>
   </g>
   <path class="fil8" d="M690.11 1443.21c-9.12,-29.26 -26.81,-153.02 -30.77,-201.49 -0.83,-10.27 -113.63,-54.33 -113.63,-54.33 -66.03,-1.67 -100.01,24.22 -100.01,24.22l158.54 53.55c0,71.5 60.95,179.34 60.95,179.34l24.91 -1.29z"/>
   <path class="fil9" d="M554.11 1279.36l-47.08 163.97 26.9 5.86c11.72,-38.68 79.48,-171.23 81.32,-186.99 0.78,-6.72 0.3,-11.91 -2.21,-14.01 -2.53,-2.12 -78.52,-47.52 -100.59,-52.49 -29.57,-6.65 -73.47,-17.28 -73.47,-17.28 0,-0 -24.75,25.89 -19.93,67.98 4.83,42.1 135.06,32.96 135.06,32.96z"/>
   <path class="fil10" d="M490.57 991.05c0,0 -51.6,4.57 -53.94,18.64 -2.34,14.06 24.62,103.09 24.62,103.09l-26.21 69.96c0,0 74.42,18.32 110.68,4.66 3.44,1.58 9.3,-73.44 9.3,-73.44l12.92 -36.85 16.38 55.61 37.51 52.75 24.61 -19.93 -27.33 -48.04c0,0 -42.31,-96.55 -53.54,-107.79 -21.1,-21.1 -75,-18.64 -75,-18.64z"/>
   <path class="fil11" d="M531.47 994.76l-4 -53.06 -38.68 0 0 49.56c-4.9,0.55 5.27,40.11 36.44,40.11 0,-0 14.55,-5.28 6.23,-36.61z"/>
   <path class="fil12" d="M453.06 1084.65c4.52,16 8.19,28.13 8.19,28.13l-26.21 69.96c0,0 56.63,13.93 95.16,8.42 -3.44,-2.53 -49.12,-33.31 -51.36,-46.73 -4.69,-28.13 -25.77,-59.77 -25.77,-59.77z"/>
   <path class="fil13" d="M565.92 888.13c-3.27,-13.58 -24.46,-17.51 -57.96,-13.57 -22.78,2.68 -27.9,23.65 -28.54,39.23l-1.03 0.23c-7.86,2.41 -13.47,10.06 -13.04,18.38 0.22,4.25 1.72,8.13 4.53,11.28 2.96,4.82 8,8.06 13.78,8.79 1.62,0.21 3.21,0.13 4.77,-0.09 9.49,19.74 26.89,44.34 51.3,41.4 35.79,-25.03 26.19,-105.65 26.19,-105.65z"/>
   <path class="fil14" d="M489.22 923.89c0,0 -7.4,-17.74 9.29,-30.28 16.69,-12.53 17.81,5.96 35.41,8.24 17.59,2.27 34.95,0.83 33.07,12.46 10.66,-26.27 -4.75,-41.3 -21.97,-49.54 -17.21,-8.23 -44.17,-11.78 -62.9,3.84 -18.73,15.62 -16.19,53.16 -16.19,53.16 12.35,-5.97 15.66,-1.14 23.28,2.11z"/>
   <path class="fil14" d="M482.13 868.62c0,0 -15.55,-41.76 -45,-31.42 -29.45,10.34 -16.17,69.69 -19.42,95.51 -3.25,25.83 -21.75,26.96 -28.39,15.48 -12.31,23.4 35.93,47.19 51.64,24.7 15.71,-22.5 6.66,-79.51 16.7,-85.32 10.05,-5.81 20.16,1.74 20.16,1.74l4.3 -20.68z"/>
   <path class="fil10" d="M437.81 1005c-12.39,7.15 -35.17,92.54 -35.17,106.6 0,14.06 109.81,84.1 109.81,84.1 0,0 5.07,-17.28 16.79,-20.8 -2.35,-1.18 -82.05,-77.36 -82.05,-77.36l21.1 -59.72c0,0 0,-50.4 -30.47,-32.82z"/>
   <polygon class="fil7" points="504.05,1206.46 615.98,1203.03 688.65,1230 565.62,1236.52 "/>
   <polygon class="fil15" points="565.62,1236.52 504.05,1212.66 504.05,1206.46 570.49,1230.43 "/>
   <polygon class="fil15" points="565.62,1236.52 602.62,1135.51 724.99,1142.08 688.65,1232.34 "/>
   <path class="fil7" d="M640.78 1180.19c-3.63,7.28 -2.53,15.2 2.46,17.7 4.99,2.5 11.99,-1.38 15.64,-8.65 3.64,-7.27 2.54,-15.2 -2.46,-17.7 -4.99,-2.5 -11.99,1.37 -15.63,8.65z"/>
   <path class="fil13" d="M529.23 1174.9c0,0 44.54,35.16 39.85,37.5 -4.68,2.35 -24.61,2.35 -35.16,-3.52 -10.55,-5.86 -21.48,-13.19 -21.48,-13.19 0,0 3.89,-19.63 16.79,-20.8z"/>
   <path class="fil0" d="M535.1 1440.98c7.91,8.01 34.81,20.16 48.06,23.44 14.21,3.52 11.72,15.45 1.34,15.45 -20.39,0 -65.72,-2.55 -88.08,-2.55 -3.52,-10.55 2.54,-24.66 9.66,-34.16 2.17,-2.9 27.89,-3.32 29.03,-2.18z"/>
   <path class="fil0" d="M695.69 1440.98c7.9,8.01 34.8,20.16 48.06,23.44 14.21,3.52 11.72,15.45 1.34,15.45 -20.39,0 -65.73,-2.55 -88.08,-2.55 -3.52,-10.55 2.54,-24.66 9.66,-34.16 2.16,-2.9 27.89,-3.32 29.03,-2.18z"/>
   <g>
    <polygon class="fil16 golines" points="557.91,778.86 450.43,778.86 450.43,749.25 557.91,749.25 "/>
    <polygon class="fil16 golines" points="831.65,778.86 724.17,778.86 724.17,749.25 831.65,749.25 "/>
    <polygon class="fil16 golines" points="694.79,778.86 587.3,778.86 587.3,749.25 694.79,749.25 "/>
   </g>
   <polygon class="fil17" points="1183.27,304.88 842.67,388.4 811.56,261.52 1152.16,178 "/>
   <polygon class="fil18" points="1088.96,230.34 838.08,291.85 833.78,274.31 1084.65,212.8 "/>
   <polygon class="fil18" points="1055.35,271.64 845.72,323.03 841.42,305.49 1051.05,254.09 "/>
   <polygon class="fil18" points="953.56,332.8 854.1,357.19 849.79,339.64 949.26,315.26 "/>
   <polygon class="fil10" points="1119.07,256.48 1065.8,269.54 1061.49,252.01 1114.77,238.95 "/>
   <polygon class="fil10" points="828.91,404.45 828.91,716.6 446.37,716.6 446.37,404.45 "/>
   <polygon class="fil19" points="1609.84,725.26 857.55,725.26 857.55,584.49 1609.84,584.49 "/>
   <polygon class="fil10" points="1587.32,704.89 1383.74,704.89 1383.74,604.86 1587.32,604.86 "/>
   <g>
    <polygon class="fil20 golines" points="1355.61,630.22 885.06,630.22 885.06,610.92 1355.61,610.92 "/>
    <polygon class="fil20 golines" points="1355.61,664.52 885.06,664.52 885.06,645.22 1355.61,645.22 "/>
    <polygon class="fil20 golines" points="1201.85,698.82 885.06,698.82 885.06,679.53 1201.85,679.53 "/>
   </g>
   <polygon class="fil10" points="1580.67,1165.02 857.72,1165.02 857.72,825.81 1580.67,825.81 "/>
   <polygon class="fil21" points="1580.67,882.05 1580.67,825.81 857.72,825.81 857.72,882.05 "/>
   <g>
    <polygon class="fil22 golines" points="1292.71,990.65 875.25,990.65 875.25,962.02 1292.71,962.02 "/>
    <polygon class="fil22 golines" points="1249.62,1041.56 875.25,1041.56 875.25,1012.93 1249.62,1012.93 "/>
    <polygon class="fil22 golines" points="1127.74,1092.46 875.25,1092.46 875.25,1063.83 1127.74,1063.83 "/>
    <polygon class="fil22 golines" points="1025.73,943.76 875.25,943.76 875.25,915.13 1025.73,915.13 "/>
   </g>
   <polygon class="fil23" points="1551.72,1132.09 1333.37,1132.09 1333.37,913.73 1551.72,913.73 "/>
   <path class="fil24" d="M1464.87 1021.48c3.43,-4.63 5.48,-10.33 5.48,-16.53l0 -16.68c0,-15.36 -12.44,-27.81 -27.8,-27.81 -15.36,0 -27.81,12.45 -27.81,27.81l0 16.68c0,6.52 2.26,12.5 6.02,17.25 -25.51,8.98 -43.81,33.28 -43.8,61.87l137.52 0c0,0 -5.32,-49.75 -49.6,-62.59z"/>
   <path class="fil6" d="M909.26 855.34c0,7.84 -6.35,14.19 -14.19,14.19 -7.84,0 -14.19,-6.35 -14.19,-14.19 0,-7.83 6.35,-14.19 14.19,-14.19 7.84,0 14.19,6.36 14.19,14.19z"/>
   <path class="fil25" d="M954.73 855.34c0,7.84 -6.36,14.19 -14.19,14.19 -7.83,0 -14.18,-6.35 -14.18,-14.19 0,-7.83 6.35,-14.19 14.18,-14.19 7.84,0 14.19,6.36 14.19,14.19z"/>
   <path class="fil26" d="M1007.48 855.34c0,7.84 -6.36,14.19 -14.19,14.19 -7.84,0 -14.19,-6.35 -14.19,-14.19 0,-7.83 6.35,-14.19 14.19,-14.19 7.84,0 14.19,6.36 14.19,14.19z"/>
   <polygon class="fil6" points="1587.7,523.17 1334.51,523.17 1334.51,269.99 1587.7,269.99 "/>
   <path class="fil0" d="M1689.01 1394.73c0,0 2.18,6.66 -18.24,15.98 -20.43,9.32 -41.99,6.03 -47.28,13.86 -5.29,7.83 -6.52,15.24 -6.52,15.24l116.21 0c0,0 -0.88,-32.08 -14.04,-46.33 1.67,3.06 -30.13,1.25 -30.13,1.25z"/>
   <path class="fil0" d="M1815.58 1394.68c0,0 2.1,6.4 -17.54,15.36 -19.63,8.96 -40.37,5.8 -45.45,13.32 -5.08,7.52 -6.28,14.66 -6.28,14.66l111.74 0c0,0 -0.85,-30.86 -13.5,-44.55 1.61,2.94 -28.97,1.21 -28.97,1.21z"/>
   <polygon class="fil10" points="1666.11,783.66 1581.74,798.49 1522.4,671.46 1613.26,664.05 "/>
   <polygon class="fil27" points="1560.76,770.82 1560.84,770.81 "/>
   <path class="fil13" d="M1724.53 545.37c0,0 -11.13,22.25 -11.13,42.65 0,14.25 1.81,34.85 2.9,45.97 0.4,4.04 4.39,6.7 8.27,5.51l16.64 -5.12 -0.93 24.11 46.43 -0.8 10.13 -97.48c0,0 -38.94,-42.65 -72.32,-14.83z"/>
   <path class="fil14" d="M1728.03 596.54c0,0 2.61,-19.3 17.17,-15.31 14.56,4 -2.13,23.47 -2.13,23.47l13.91 25.04c10.19,3.68 21.44,3.95 32.45,-0.93 0,0 15.45,-46.98 15.45,-61.81 0,-14.83 -13.53,-24.85 -13.53,-24.85 0,0 -36.23,-18.11 -55.71,-17.18 -19.47,0.92 -21.32,20.4 -21.32,20.4 0,0 -7.41,14.83 0,21.32 7.42,6.49 13.71,29.85 13.71,29.85z"/>
   <path class="fil28" d="M1788.81 644.27l-2.1 13.41 -47.97 0.18c0,0 9.27,-14.83 50.07,-13.6z"/>
   <path class="fil13" d="M1583.59 764.19c0,0 3.36,-10.52 -10.2,-16.69 0.35,-2.46 -2.71,-14.77 -5.56,-17.62 -2.85,-2.84 -4.64,12.98 -4.64,12.98 0,0 -13.28,-23.64 -16.69,-17.61 -3.41,6.02 29.98,52.53 30.91,54.39 0.93,1.86 6.18,-15.45 6.18,-15.45z"/>
   <path class="fil14" d="M1708.46 916.86l-32.14 271.98 6.52 210.83 40.45 -2.89c0,0 11.44,-110.88 12.36,-138.7 0.93,-27.82 -7.41,-70.47 -7.41,-70.47l40.8 -168.13 6.78 1.24 1.86 165.66 37.17 210.4 34 1.65c0,-0 0.85,-108.51 -1.94,-135.4 -2.78,-26.89 -17.31,-80.67 -17.31,-80.67l14.83 -171.54c0,0 14.83,-45.12 -11.74,-95.81 -3.4,0.31 -124.25,1.86 -124.25,1.86z"/>
   <path class="fil29" d="M1738.74 657.86c0,0 -57.49,18.54 -68,29.06 -10.51,10.5 -40.64,118.82 -40.64,118.82l-45.42 -45.51 -14.08 33.01c0,0 53.16,79.13 69.84,81.6 16.7,2.47 54.4,-100.14 54.4,-100.14 0,0 3.43,56.05 9.89,84.07 7.42,32.14 3.71,58.1 3.71,58.1 51.44,9.34 95.19,7.42 124.25,-1.86l14.39 -107.99c0,0 19.6,2.29 25.78,-4.51 6.19,-6.8 -22.25,-118.68 -28.43,-127.34 -6.18,-8.65 -57.73,-17.5 -57.73,-17.5l-47.97 0.18z"/>
   <path class="fil28" d="M1794.72 732.11c-0.31,-2.19 -3.93,-1.66 -3.85,0.52 1.73,46.47 0.15,91.78 -7.15,137.79 -0.49,3.09 4.1,4.5 4.79,1.32 9.87,-45.49 12.7,-93.46 6.21,-139.63z"/>
   <path class="fil28" d="M1847.48 766.53c-0.31,-1.55 -2.67,-1.14 -2.7,0.37 -0.5,27.15 -3.86,53.11 -9,79.78 -4.58,23.69 -8.77,47.41 -7.23,71.64 0.22,3.39 5.46,3.44 5.31,0 -1.17,-27.98 4.52,-54.99 9.61,-82.35 4.23,-22.71 8.59,-46.45 4.01,-69.44z"/>
   <path class="fil28" d="M1700.12 765.71c-15.43,9.81 -21.23,29.01 -27.14,45.35 -8,22.1 -15.98,43.82 -33.4,60.4 -2.59,2.47 1.28,6.28 3.92,3.91 32.14,-28.93 30.61,-76.23 58.01,-107.85 0.81,-0.94 -0.23,-2.56 -1.4,-1.82z"/>
   <path class="fil30" d="M1833.32 906.98c0,0 -77.89,9.89 -124.86,-4.95 1.23,0 0,14.83 0,14.83 0,0 59.89,22.47 128.57,4.94 -0.54,-0.22 -3.71,-14.83 -3.71,-14.83z"/>
   <path class="fil0" d="M1027.41 1223.54c0,0 -6.45,14.06 -17.58,16.41 -11.14,2.35 -40.44,8.79 -45.13,12.89 -4.69,4.1 -4.69,14.65 -4.69,14.65l93.02 0c0,0 -0.16,-28.16 -5.57,-42.79 2.22,0.01 -20.05,-1.16 -20.05,-1.16z"/>
   <path class="fil0" d="M1206.75 1223.54c0,0 -6.45,14.06 -17.58,16.41 -11.14,2.35 -40.44,8.79 -45.13,12.89 -4.69,4.1 -4.69,14.65 -4.69,14.65l93.02 0c0,0 -0.17,-28.16 -5.57,-42.79 2.22,0.01 -20.05,-1.16 -20.05,-1.16z"/>
   <path class="fil31" d="M1195.35 309.37c0,0 -25.91,-6.61 -27.48,-2.48 -1.56,4.12 40.05,16.43 40.05,16.43l37.47 103.9 -14.03 33.25 25.79 28.13c0,0 28.13,-38.1 30.48,-49.24 2.34,-11.13 -66.82,-123.08 -66.82,-123.08 0,0 -13.73,-43.62 -15.83,-45.71 -2.09,-2.1 -26.87,-0.78 -32.49,-0.69 -5.6,0.1 16.33,22.31 16.33,22.31l6.52 17.17z"/>
   <path class="fil31" d="M1094.55 386.28c0,0 -12.35,17.33 -14.98,35.79 -2.64,18.46 0.88,36.05 0.88,36.05l22.66 -0.75 0 21.2 45.04 0c0,0 0.88,-16.05 2.64,-24.84 1.76,-8.79 14.06,-25.5 14.06,-25.5l-20.22 -57.14 -29 -2.64 -21.07 17.83z"/>
   <path class="fil14" d="M1105.94 413.28c0,0 7.91,-18.46 17.58,-11.43 9.67,7.04 -2.64,21.98 -2.64,21.98 0,0 6.16,25.5 16.7,29.01 10.55,3.52 10.55,3.52 10.55,3.52 0,0 27.25,-25.5 31.65,-32.53 4.4,-7.03 -7.03,-47.47 -14.94,-56.26 -7.91,-8.79 -42.19,-7.91 -44.83,-12.31 -2.64,-4.4 -11.43,-12.31 -20.22,-8.79 -8.8,3.52 -7.04,32.53 -7.04,32.53 0,-0 10.87,9.36 11.59,16.11 0.72,6.74 -4.31,15.69 -4.31,15.69l5.92 2.49z"/>
   <path class="fil14" d="M1063.35 479.92c0,0 44.94,-6.56 70.72,-7.15 25.79,-0.59 66.82,12.89 66.82,12.89l29.86 -31.97 38.03 35.75c0,0 -32.37,47.78 -42.8,58.92 -10.43,11.15 -18.05,63.31 -20.4,79.13 -2.34,15.82 -8.2,108.43 -8.2,108.43 0,0 -27.55,32.82 -140.66,-2.93 -1.17,-1.17 4.69,-67.99 4.1,-84.4 -0.58,-16.41 -15.24,-72.09 -18.17,-85.57 -2.94,-13.48 -49.66,-40.45 -49.66,-40.45 0,0 -5.77,-32.84 15.79,-48.65 2.81,1.78 54.58,5.99 54.58,5.99z"/>
   <path class="fil31" d="M958.83 345.59c0,0 -16.99,15.83 -18.16,22.27 -1.17,6.45 23.39,79.88 23.39,79.88l44.72 26.18 -15.79 48.65c0,0 -48.8,-33.98 -55.83,-43.94 -7.03,-9.96 -19.34,-109.6 -19.34,-109.6 0,0 -15.83,-19.93 -17,-25.2 -1.17,-5.27 -4.86,-22.52 -2.14,-25.91 2.73,-3.39 20.86,-22.15 23.52,-16.58 2.66,5.57 12.41,46.17 12.41,46.17 0,0 20.13,-8.95 24.23,-1.91z"/>
   <path class="fil9" d="M1056.71 732.99l-25.49 240.29 -13.19 254.95 43.95 1.76c0,0 27.25,-169.16 27.69,-194.91 0.44,-25.76 -0.44,-56.52 -0.44,-56.52l28.13 -128.36 15.83 0 32.52 167.03 33.41 207.47 35.17 1.76c0,-0 5.27,-129.23 0,-155.61 -5.28,-26.37 -13.19,-51.87 -13.19,-51.87l-15.82 -173.19c0,0 14.06,-61.53 -7.91,-109.89 -4.39,-8.79 -140.66,-2.93 -140.66,-2.93z"/>
   <polygon class="fil32" points="788.13,459.63 759.57,459.63 759.57,431.06 741.74,431.06 741.74,459.63 713.16,459.63 713.16,477.46 741.74,477.46 741.74,506.03 759.57,506.03 759.57,477.46 788.13,477.46 "/>
   <path class="fil7" d="M522.2 614.08c-11.78,0 -21.37,9.58 -21.37,21.36 0,11.77 9.59,21.36 21.37,21.36 11.77,0 21.36,-9.59 21.36,-21.36 0,-11.78 -9.59,-21.36 -21.36,-21.36zm0 66.03c-24.63,0 -44.68,-20.04 -44.68,-44.67 0,-24.63 20.05,-44.67 44.68,-44.67 24.64,0 44.67,20.04 44.67,44.67 0,24.63 -20.04,44.67 -44.67,44.67z"/>
   <polygon class="fil2 shapefour" points="1895.83,269.74 1867.26,269.74 1867.26,241.17 1849.44,241.17 1849.44,269.74 1820.86,269.74 1820.86,287.57 1849.44,287.57 1849.44,316.14 1867.26,316.14 1867.26,287.57 1895.83,287.57 "/>
   <path class="fil0 shapeone" d="M1753.06 74.74c0,9.75 -7.91,17.66 -17.66,17.66 -9.75,0 -17.66,-7.91 -17.66,-17.66 0,-9.76 7.9,-17.67 17.66,-17.67 9.76,0 17.66,7.91 17.66,17.67z"/>
   <path class="fil17" d="M1408.36 318.7c-11.79,0 -21.37,9.58 -21.37,21.36 0,11.78 9.58,21.36 21.37,21.36 11.76,0 21.36,-9.58 21.36,-21.36 0,-11.78 -9.59,-21.36 -21.35,-21.36zm0 66.03c-24.64,0 -44.68,-20.04 -44.68,-44.67 0,-24.64 20.05,-44.67 44.68,-44.67 24.63,0 44.67,20.04 44.67,44.67 0,24.63 -20.04,44.67 -44.67,44.67z"/>
   <path class="fil2 shapetwo" d="M1645.72 23.31c-11.78,0 -21.37,9.58 -21.37,21.35 0,11.77 9.59,21.36 21.37,21.36 11.77,0 21.35,-9.58 21.35,-21.36 0,-11.77 -9.59,-21.35 -21.35,-21.35zm0 66.03c-24.64,0 -44.68,-20.04 -44.68,-44.67 0,-24.63 20.05,-44.67 44.68,-44.67 24.64,-0 44.67,20.04 44.67,44.67 0,24.63 -20.03,44.67 -44.67,44.67z"/>
  </g>
 </g>
</svg>
