<?xml version="1.0" encoding="UTF-8" standalone="no"?>
<!DOCTYPE svg PUBLIC "-//W3C//DTD SVG 1.1//EN" "http://www.w3.org/Graphics/SVG/1.1/DTD/svg11.dtd">
<svg width="100%" height="100%" viewBox="0 0 40 40" version="1.1" xmlns="http://www.w3.org/2000/svg" xmlns:xlink="http://www.w3.org/1999/xlink" xml:space="preserve" xmlns:serif="http://www.serif.com/" style="fill-rule:evenodd;clip-rule:evenodd;stroke-linejoin:round;stroke-miterlimit:2;">
    <g transform="matrix(1,0,0,1,-758.8,-3721.07)">
        <g transform="matrix(0.078125,0,0,0.078125,758.8,3721.07)">
            <g>
                <g>
                    <path d="M379.111,0L132.872,0C55.874,0 0,55.891 0,132.889L0,379.111C0,456.109 55.874,512 132.872,512L379.111,512C456.109,512 512,456.109 512,379.111L512,132.889C512,55.891 456.109,0 379.111,0ZM478.968,379.111C478.968,437.909 437.909,478.968 379.111,478.968L132.872,478.968C74.091,478.968 33.032,437.909 33.032,379.111L33.032,132.889C33.032,74.091 74.091,33.032 132.872,33.032L379.111,33.032C437.909,33.032 478.968,74.091 478.968,132.889L478.968,379.111Z" style="fill:rgb(255,153,51);fill-rule:nonzero;"/>
                </g>
            </g>
            <g>
                <g>
                    <path d="M242.209,272.434C235.603,263.746 226.139,257.602 213.867,254.002C223.397,249.278 230.499,243.084 235.206,235.421C239.913,227.757 242.275,219.582 242.275,210.894C242.275,201.563 239.616,192.628 234.314,184.072C229.013,175.517 221.646,169.191 212.282,165.079C202.917,160.966 190.431,158.885 174.906,158.885L98.684,158.885L98.684,362.1L176.161,362.1C189.11,362.1 200.027,360.977 208.946,358.714C217.864,356.435 225.28,353.098 231.193,348.655C237.106,344.229 242.077,337.92 246.09,329.745C250.104,321.553 252.119,312.716 252.119,303.203C252.119,291.361 248.815,281.121 242.209,272.434ZM125.572,244.29L125.572,182.883L166.185,182.883C180.786,182.883 191.092,183.825 197.103,185.707C203.115,187.607 207.723,191.108 210.961,196.245C214.198,201.398 215.816,207.327 215.816,214.066C215.816,221.184 214.082,227.097 210.614,231.804C207.145,236.511 201.992,239.897 195.155,241.928C189.985,243.497 181.43,244.29 169.522,244.29L125.572,244.29ZM220.259,320.314C217.567,325.269 214.148,329.018 210.003,331.627C205.841,334.204 200.671,336.054 194.477,337.16C190.976,337.804 184.865,338.151 176.178,338.151L125.572,338.151L125.572,268.271L172.561,268.271C185.509,268.271 195.402,269.395 202.29,271.674C209.177,273.92 214.561,277.867 218.442,283.45C222.324,289.032 224.273,295.622 224.273,303.203C224.273,309.677 222.935,315.359 220.259,320.314Z" style="fill:rgb(255,153,51);fill-rule:nonzero;"/>
                </g>
            </g>
            <g>
                <g>
                    <path d="M413.333,288.273C413.333,263.961 407.09,245.116 394.62,231.705C382.134,218.261 366.063,211.572 346.376,211.572C326.045,211.572 309.529,218.409 296.762,232.085C284.011,245.777 277.636,264.985 277.636,289.759C277.636,313.691 283.945,332.288 296.547,345.567C309.182,358.813 326.243,365.436 347.797,365.436C364.874,365.436 378.913,361.274 389.929,352.966C400.929,344.642 408.444,332.949 412.507,317.886L386.725,314.731C382.943,325.252 377.823,332.932 371.316,337.738C364.858,342.545 357.062,344.939 347.912,344.939C335.624,344.939 325.368,340.645 317.126,332.057C308.918,323.452 304.359,311.065 303.418,294.912L413.201,294.912C413.3,291.956 413.333,289.742 413.333,288.273ZM304.805,274.366L304.805,274.349C305.614,261.5 309.958,251.26 317.737,243.58C325.566,235.916 335.211,232.068 346.641,232.068C359.308,232.068 369.614,236.891 377.559,246.503C382.712,252.697 385.866,261.979 386.989,274.366L304.805,274.366Z" style="fill:rgb(255,153,51);fill-rule:nonzero;"/>
                </g>
            </g>
            <g>
                <g>
                    <path d="M387.188,177.053L303.814,177.053L303.599,197.566L387.336,197.566L387.188,177.053Z" style="fill:rgb(102,255,204);fill-rule:nonzero;"/>
                </g>
            </g>
        </g>
    </g>
</svg>
