<?xml version="1.0" encoding="UTF-8"?>
<!DOCTYPE svg PUBLIC "-//W3C//DTD SVG 1.1//EN" "http://www.w3.org/Graphics/SVG/1.1/DTD/svg11.dtd">
<!-- Creator: CorelDRAW 2018 (64-Bit Evaluation Version) -->
<svg xmlns="http://www.w3.org/2000/svg" xml:space="preserve" width="6in" height="6in" version="1.1" style="shape-rendering:geometricPrecision; text-rendering:geometricPrecision; image-rendering:optimizeQuality; fill-rule:evenodd; clip-rule:evenodd"
viewBox="0 0 1185.98 1185.98"
 xmlns:xlink="http://www.w3.org/1999/xlink">
 <defs>
  <style type="text/css">
   
    .fil4 {fill:none}
    .fil0 {fill:black}
    .fil1 {fill:#66FFCC}
    .fil2 {fill:#FF9933}
    .fil3 {fill:#66FFCC;fill-rule:nonzero}
   
    .dots{
        animation: grow 3s infinite;
        transform-origin: 200px 180px;        
    }

    .dots1{
        animation: grow 3s infinite;
        transform-origin: 1090px 730px;        
    }

    .circle{
        animation: grow 3s infinite;
        transform-origin: 930px 220px;        
    }

    .star{
        animation: grow 3s infinite;
        transform-origin: 650px 1020px;        
    }

    .loader{
        animation: grow 3s infinite;
        transform-origin: 150px 480px;        
    }

    .dots, .circle, .star {
        animation-delay: 1.5s;
    }

    @keyframes grow {
        0%, 100% {
        transform: scale(0);
        opacity: 0;
        }

        50% {
        transform: scale(1);
        opacity: 1;
        }
    }

  </style>
 </defs>
 <g id="Layer_x0020_1">
   <metadata id="CorelCorpID_0Corel-Layer"/>
  <path class="fil0" d="M559.93 474.43l94.51 0c0,-15.26 0.42,-32.21 3.18,-46.41 1.69,-7.84 3.39,-12.29 7.42,-18.86 1.91,-3.18 2.54,-5.51 3.18,-9.11 0.42,-2.97 0.64,-5.93 0.64,-8.9 0.42,-12.93 -1.27,-25.64 -1.27,-38.57 0.21,-16.1 3.39,-30.3 11.65,-44.5 4.03,-6.99 10.6,-14.83 16.74,-20.13 26.91,-22.46 65.05,-26.7 94.93,-6.99 27.97,18.44 28.82,33.9 41.96,61.24 2.54,5.3 5.09,10.6 7.2,16.1 0.64,1.06 1.27,3.39 1.91,4.24 0.42,0.85 1.91,2.12 2.33,2.75 3.6,3.39 6.99,6.99 10.38,10.6 1.91,2.12 3.81,4.24 5.93,6.36 6.15,6.57 12.29,18.86 16.53,26.91 6.78,13.56 13.14,27.55 19.28,41.32 9.54,21.4 18.44,43.02 27.55,64.63 12.29,29.88 25.22,59.54 38.14,89.21 13.77,31.15 27.55,63.78 42.8,94.08 26.91,53.82 29.24,114.42 2.33,168.67 -6.57,13.35 -16.95,29.24 -27.12,40.26 -4.03,4.03 -5.72,7.84 -10.38,11.65 -38.14,31.57 -74.38,51.92 -125.23,51.92 -103.83,0 -190.07,-79.67 -190.07,-184.99l0 -185.83 -94.51 0 0 187.53c0,38.14 -13.35,73.53 -34.75,104.89 -18.44,27.12 -44.29,48.31 -74.16,61.87 -70.14,31.36 -152.57,16.95 -207.03,-37.51 -8.05,-7.84 -14.62,-14.62 -21.19,-23.94 -6.36,-8.9 -12.29,-18.44 -16.95,-28.39 -14.62,-30.3 -17.59,-53.82 -17.59,-87.3 0,-44.29 19.92,-73.95 36.66,-112.94l44.29 -101.08c4.87,-11.23 9.96,-22.46 15.04,-33.69 2.54,-5.51 4.87,-11.23 7.2,-16.95l36.66 -83.06c11.02,-24.79 17.59,-43.23 39.41,-61.03 5.51,-4.66 13.35,-24.58 16.32,-31.57 4.24,-9.96 8.69,-21.83 14.62,-30.94 21.83,-33.48 61.45,-46.83 98.53,-31.36 16.53,6.99 30.3,19.07 38.99,34.75 4.45,8.69 7.42,17.8 9.11,27.34 1.69,10.17 1.27,21.83 0.85,32.21 -0.42,9.54 -1.48,22.67 0.42,32 0.42,2.97 3.39,7.84 4.66,10.81 1.69,4.24 2.97,8.05 4.24,12.5 5.3,18.01 4.87,32.84 4.66,50.22l0 -0zm364.47 144.94c-2.33,-5.3 -4.66,-10.81 -6.99,-16.1 -5.3,-11.87 -10.81,-23.73 -16.32,-35.81l-31.57 -72.26c-10.6,-23.94 -20.13,-48.31 -31.78,-71.83 -20.98,-42.38 -71.62,-54.25 -110.19,-27.97 -13.99,9.54 -24.16,23.31 -28.61,39.84 -0.85,3.81 -1.06,10.6 -1.27,14.41 -0.64,9.96 -0.85,20.13 -1.06,29.88 -0.42,27.97 -0.42,55.73 -0.42,83.7 0,34.33 0.42,68.87 0.64,103.41 23.94,-29.67 57.42,-50.64 94.3,-61.24 26.91,-7.63 59.12,-8.48 86.67,-2.97 18.65,3.6 32.21,9.54 46.62,16.95l0 0zm-634.64 0c14.83,-7.63 28.82,-13.77 48.31,-17.38 27.34,-4.87 58.48,-4.24 85.18,3.39 19.07,5.51 35.6,11.87 51.92,23.52 8.26,5.93 16.1,12.5 24.37,18.86l0.64 0.42 17.38 19.28c0.21,-34.54 0.64,-69.29 0.64,-104.04 0,-27.76 0,-55.31 -0.64,-82.85 -0.21,-9.96 -0.42,-20.13 -1.06,-30.09 -0.21,-4.24 -0.42,-11.02 -1.48,-15.04 -5.72,-22.25 -21.61,-39.41 -42.8,-47.89 -37.29,-15.26 -77.77,-0.42 -95.57,35.81 -14.83,29.88 -28.18,61.24 -41.53,91.54 -12.71,29.45 -25.43,58.91 -37.93,88.36 -2.12,4.87 -4.87,10.38 -7.42,16.1l-0 -0z"/>
  <path class="fil1" d="M842.82 648.19c75.65,0 137.1,61.66 137.1,137.31 0,75.86 -61.45,137.31 -137.1,137.31 -75.86,0 -137.31,-61.45 -137.31,-137.31 0,-75.65 61.45,-137.31 137.31,-137.31z"/>
  <path class="fil1" d="M374.52 648.19c75.86,0 137.31,61.66 137.31,137.31 0,75.86 -61.45,137.31 -137.31,137.31 -75.86,0 -137.31,-61.45 -137.31,-137.31 0,-75.65 61.45,-137.31 137.31,-137.31z"/>
  <polygon class="fil2" points="559.93,517.02 559.93,557.71 654.44,557.71 654.44,517.02 "/>
  <path class="fil2" d="M787.94 341.78c-7.63,-19.28 -22.89,-33.69 -46.19,-30.94 -10.17,1.27 -20.77,9.54 -26.28,17.8 -4.87,7.63 -5.3,18.44 -5.09,28.82l7.42 -4.66 0.21 0c15.68,-8.48 31.57,-13.14 49.37,-12.93 6.99,0 13.99,1.06 20.55,1.91l0 -0z"/>
  <path class="fil2" d="M503.99 357.04c0.21,-10.17 -0.42,-20.77 -5.3,-28.39 -6.78,-10.6 -16.95,-18.22 -29.67,-18.86 -20.34,-0.85 -35.18,14.41 -42.59,32 6.78,-0.85 13.35,-1.91 20.34,-1.91 17.8,-0.42 33.9,4.45 49.8,12.5 2.54,1.48 5.09,2.97 7.42,4.66l0 0z"/>
  <path class="fil3 loader" d="M205.85 490.96c0,-4.66 -0.64,-9.32 -1.69,-13.99 -0.85,-4.66 -2.33,-8.9 -4.45,-13.14 -1.69,-4.45 -4.03,-8.48 -6.78,-12.29 -2.54,-3.81 -5.72,-7.42 -9.11,-10.6 -3.18,-3.18 -6.78,-6.15 -10.81,-8.69 -3.81,-2.33 -8.05,-4.45 -12.29,-6.15 -4.24,-1.69 -8.48,-2.97 -13.14,-3.81 -4.45,-0.85 -9.11,-1.06 -13.77,-1.06 -4.45,0.21 -9.11,0.64 -13.56,1.69 -4.45,1.06 -8.69,2.33 -12.71,4.24 -4.24,1.69 -8.26,4.03 -11.87,6.57 -3.81,2.54 -7.2,5.51 -10.17,8.69 -3.18,3.18 -5.93,6.78 -8.48,10.6 -2.33,3.81 -4.45,7.84 -5.93,12.08 -1.69,4.03 -2.97,8.26 -3.6,12.71 -0.85,4.45 -1.06,8.69 -1.06,13.14 0,4.45 0.64,8.9 1.48,13.14 1.06,4.24 2.33,8.48 4.24,12.5 1.69,4.03 3.81,7.84 6.36,11.44 2.54,3.6 5.3,6.99 8.48,9.96 3.18,2.97 6.57,5.72 10.17,8.05 3.6,2.33 7.63,4.24 11.65,5.72 4.03,1.48 8.05,2.75 12.29,3.39 4.24,0.85 8.48,1.27 12.71,1.06 4.45,0 8.69,-0.64 12.71,-1.48 4.24,-1.06 8.26,-2.33 12.08,-4.03 3.81,-1.69 7.63,-3.81 11.02,-6.15 3.6,-2.33 6.78,-5.09 9.54,-8.26 2.97,-2.97 5.51,-6.36 7.84,-9.96 2.33,-3.39 4.24,-7.2 5.72,-11.02 0.85,-2.33 1.48,-4.66 2.12,-7.2 0.64,-2.33 1.27,-4.87 1.48,-7.42 0,0 0.21,0 0.21,0 0.21,0 0.21,0 0.42,0 2.54,0 4.45,-0.85 6.36,-2.54 1.69,-1.69 2.54,-3.81 2.54,-6.36 0,-0.21 0,-0.21 0,-0.42 0,-0.21 0,-0.21 0,-0.42l0 0 -0 0zm-14.41 23.94c-1.48,3.81 -3.6,7.2 -5.93,10.6 -2.33,3.39 -5.09,6.36 -7.84,9.32 -2.97,2.75 -6.15,5.3 -9.54,7.42 -3.39,2.12 -6.99,4.03 -10.81,5.51 -3.81,1.27 -7.63,2.33 -11.65,3.18 -3.81,0.64 -7.84,0.85 -11.87,0.85 -3.81,-0.21 -7.84,-0.64 -11.65,-1.48 -3.81,-0.85 -7.63,-1.91 -11.23,-3.6 -3.6,-1.69 -6.99,-3.6 -10.38,-5.93 -3.18,-2.12 -6.15,-4.66 -8.9,-7.63 -2.54,-2.75 -5.09,-5.72 -6.99,-9.11 -2.12,-3.39 -3.81,-6.78 -5.3,-10.38 -1.48,-3.6 -2.33,-7.42 -3.18,-11.23 -0.64,-3.81 -0.85,-7.63 -0.85,-11.44 0.21,-3.81 0.64,-7.63 1.48,-11.23 0.85,-3.81 2.12,-7.42 3.6,-11.02 1.48,-3.39 3.39,-6.57 5.51,-9.75 2.12,-3.18 4.66,-5.93 7.42,-8.48 2.75,-2.54 5.72,-4.87 8.9,-6.99 3.18,-1.91 6.36,-3.6 9.96,-4.87 3.39,-1.48 6.99,-2.33 10.6,-2.97 3.81,-0.64 7.42,-0.85 11.02,-0.85 3.81,0 7.42,0.64 11.02,1.27 3.6,0.85 6.99,1.91 10.38,3.39 3.39,1.69 6.36,3.39 9.54,5.51 2.97,2.12 5.72,4.45 8.05,7.2 2.54,2.54 4.87,5.3 6.78,8.48 1.91,2.97 3.39,6.15 4.87,9.54 1.06,3.39 1.91,6.78 2.54,10.17 0.64,3.6 1.06,7.2 0.85,10.6l0 0c0,0.21 0,0.21 0,0.42 0,0.21 0,0.21 0,0.42 0,2.33 0.85,4.24 2.33,5.93 1.48,1.69 3.39,2.75 5.72,2.97 -0.42,2.54 -1.06,4.87 -1.69,7.2 -0.85,2.54 -1.69,4.66 -2.75,6.99l-0 -0z"/>
  <path class="fil3 star" d="M701.06 1009.48l-28.61 -4.24 -12.93 -26.06 -12.71 26.06 -28.82 4.24 20.77 20.34 -4.87 28.39 25.64 -13.35 25.64 13.35 -4.87 -28.39 20.77 -20.34zm-41.53 28.82l-18.01 9.54 3.39 -20.13 -14.83 -14.2 20.34 -2.97 9.11 -18.44 9.11 18.44 20.34 2.97 -14.83 14.2 3.39 20.13 -18.01 -9.54z"/>
  <circle class="fil1 dots" cx="193.56" cy="161.88" r="34.12"/>
  <path class="fil3 circle" d="M930.33 154.25c10.38,0 20.34,2.12 29.45,5.72 9.32,4.03 17.8,9.75 25,16.74 6.99,6.99 12.71,15.47 16.53,25 3.81,9.11 5.93,19.07 5.93,29.45 0,10.38 -2.12,20.34 -5.93,29.45 -3.81,9.32 -9.54,17.8 -16.53,24.79l0 0.21c-7.2,6.99 -15.68,12.71 -25,16.53 -9.11,3.81 -19.07,5.93 -29.45,5.93 -10.38,0 -20.34,-2.12 -29.45,-5.93 -9.32,-3.81 -17.8,-9.54 -25,-16.53l0 -0.21c-6.99,-6.99 -12.71,-15.47 -16.53,-24.79 -3.81,-9.11 -5.93,-19.07 -5.93,-29.45 0,-10.38 2.12,-20.34 5.93,-29.45 3.81,-9.32 9.54,-17.8 16.53,-25l0 0c7.2,-6.99 15.68,-12.71 25,-16.74 9.11,-3.6 19.07,-5.72 29.45,-5.72zm39.63 37.08c-5.09,-5.09 -11.23,-9.32 -18.22,-12.08 -6.57,-2.75 -13.77,-4.24 -21.4,-4.24 -7.63,0 -14.83,1.48 -21.61,4.24 -6.78,2.75 -12.93,6.99 -18.01,12.08 -5.3,5.3 -9.54,11.44 -12.29,18.22 -2.75,6.57 -4.24,13.99 -4.24,21.61 0,7.63 1.48,14.83 4.24,21.4 2.75,6.99 6.99,13.14 12.29,18.22 5.09,5.3 11.23,9.54 18.01,12.29 6.78,2.75 13.99,4.24 21.61,4.24 7.63,0 14.83,-1.48 21.4,-4.24 6.99,-2.75 13.14,-6.99 18.22,-12.29 5.3,-5.09 9.54,-11.23 12.29,-18.22 2.75,-6.57 4.24,-13.77 4.24,-21.4 0,-7.63 -1.48,-15.04 -4.24,-21.61 -2.75,-6.78 -6.99,-12.93 -12.29,-18.22z"/>
  <circle class="fil1 dots1" cx="1098.15" cy="730.19" r="21.4"/>
  <rect class="fil4" x="0" y="-0" width="1185.98" height="1185.98"/>
 </g>
</svg>
