<?xml version="1.0" encoding="UTF-8"?>
<!DOCTYPE svg PUBLIC "-//W3C//DTD SVG 1.1//EN" "http://www.w3.org/Graphics/SVG/1.1/DTD/svg11.dtd">
<!-- Creator: CorelDRAW 2018 (64-Bit Evaluation Version) -->
<svg xmlns="http://www.w3.org/2000/svg" xml:space="preserve" width="0.392354in" height="0.417787in" version="1.1" style="shape-rendering:geometricPrecision; text-rendering:geometricPrecision; image-rendering:optimizeQuality; fill-rule:evenodd; clip-rule:evenodd"
viewBox="0 0 5.93 6.32"
 xmlns:xlink="http://www.w3.org/1999/xlink">
 <defs>
  <style type="text/css">
   <![CDATA[
    .fil1 {fill:#66FFCC}
    .fil0 {fill:#FF9933}
   ]]>
  </style>
 </defs>
 <g id="Layer_x0020_1">
  <metadata id="CorelCorpID_0Corel-Layer"/>
  <g id="_2269442481104">
   <path class="fil0" d="M5.78 2.08c-0,-0 -0,-0 -0,-0 0,0 0,-0 0,-0 -0,-0 -0,-0 -0,-0 -0,-0 -0,-0 -0,-0 -0,-0 -0,-0 -0,-0l-0 -0c-0.1,-0.1 -0.23,-0.15 -0.37,-0.15l-0.23 0 0 -1.11c0,-0.04 -0.02,-0.07 -0.04,-0.1l-0.67 -0.67c-0.03,-0.03 -0.06,-0.04 -0.1,-0.04l-3.45 0c-0.08,0 -0.14,0.06 -0.14,0.14l0 1.78 -0.23 0c-0.14,0 -0.27,0.05 -0.37,0.15 -0,0 -0,0 -0,0 -0,0 -0,0 -0,0 -0,0 -0,0 -0,0 -0,0 -0,0 -0,0 0,0 0,0 0,0 -0,0 -0,0 -0,0 -0.1,0.1 -0.16,0.23 -0.16,0.38l0 3.34c0,0.15 0.07,0.3 0.18,0.4 0,0 0,0 0,0 0.1,0.08 0.22,0.13 0.35,0.13l4.88 0c0.13,0 0.25,-0.05 0.35,-0.13 0,-0 0,-0 0,-0 0.12,-0.1 0.18,-0.25 0.18,-0.4l0 -3.34c0,-0.14 -0.06,-0.28 -0.16,-0.38zm-0.37 0.14c0.01,0 0.02,0 0.02,0l-0.25 0.25 0 -0.25 0.23 0zm-4.36 -1.92l3.25 0 0.59 0.59 0 1.87 -1.7 1.67 -0.06 0.05 -0.32 0 -0.06 -0.05 -1.7 -1.67 0 -2.46zm-0.29 1.92l0 0.25 -0.25 -0.25c0.01,-0 0.02,-0 0.02,-0l0.23 -0zm-0.45 3.67c-0.01,-0.03 -0.02,-0.06 -0.02,-0.09l0 -3.34c0,-0.01 0,-0.03 0,-0.04l1.99 1.95 -1.98 1.51zm0.27 0.15l1.91 -1.46 0.16 0.16c0.03,0.02 0.06,0.04 0.1,0.04l0.43 0c0.04,0 0.07,-0.01 0.1,-0.04l0.16 -0.16 1.91 1.46 -4.78 0zm3.07 -1.67l1.99 -1.95c0,0.01 0,0.03 0,0.04l0 3.34c0,0.03 -0.01,0.06 -0.02,0.09l-1.98 -1.51z"/>
   <path class="fil1" d="M2.47 1.36l1 0c0.08,0 0.14,-0.06 0.14,-0.14 0,-0.08 -0.06,-0.14 -0.14,-0.14l-1 0c-0.08,0 -0.14,0.06 -0.14,0.14 0,0.08 0.06,0.14 0.14,0.14l0 0z"/>
   <path class="fil1" d="M2.02 2.19l1.89 0c0.08,0 0.14,-0.06 0.14,-0.14 0,-0.08 -0.06,-0.14 -0.14,-0.14l-1.89 0c-0.08,0 -0.14,0.06 -0.14,0.14 0,0.08 0.06,0.14 0.14,0.14l0 0z"/>
   <path class="fil1" d="M4.06 2.7c0,-0.08 -0.06,-0.14 -0.14,-0.14l-1.89 -0c-0.08,0 -0.14,0.06 -0.14,0.14 0,0.08 0.06,0.14 0.14,0.14l1.89 0c0.08,0 0.14,-0.06 0.14,-0.14z"/>
  </g>
 </g>
</svg>
