<?xml version="1.0" encoding="UTF-8"?>
<!DOCTYPE svg PUBLIC "-//W3C//DTD SVG 1.1//EN" "http://www.w3.org/Graphics/SVG/1.1/DTD/svg11.dtd">
<!-- Creator: CorelDRAW 2018 (64-Bit Evaluation Version) -->
<svg xmlns="http://www.w3.org/2000/svg" xml:space="preserve" width="6in" height="6in" version="1.1" style="shape-rendering:geometricPrecision; text-rendering:geometricPrecision; image-rendering:optimizeQuality; fill-rule:evenodd; clip-rule:evenodd"
viewBox="0 0 1872.05 1872.05"
 xmlns:xlink="http://www.w3.org/1999/xlink">
 <defs>
  <style type="text/css">
   
    .fil4 {fill:none}
    .fil0 {fill:black}
    .fil2 {fill:#66FFCC}
    .fil1 {fill:#FF9933}
    .fil3 {fill:#66FFCC;fill-rule:nonzero}

    .dots{
        animation: grow 3s infinite;
        transform-origin: 350px 250px;        
    }

    .dots1{
        animation: grow 3s infinite;
        transform-origin: 1700px 1150px;        
    }

    .circle{
        animation: grow 3s infinite;
        transform-origin: 1450px 420px;        
    }

    .star{
        animation: grow 3s infinite;
        transform-origin: 1050px 1590px;        
    }

    .loader{
        animation: grow 3s infinite;
        transform-origin: 250px 820px;        
    }

    .dots, .circle, .star {
        animation-delay: 1.5s;
    }

    @keyframes grow {
        0%, 100% {
        transform: scale(0);
        opacity: 0;
        }

        50% {
        transform: scale(1);
        opacity: 1;
        }
    }
   
  </style>
 </defs>
 <g id="Layer_x0020_1">
  <metadata id="CorelCorpID_0Corel-Layer"/>
  <g id="_2078612403984">
   <path class="fil0" d="M1452.01 499.91c-2.49,-45.82 -38.96,-82.29 -84.78,-84.78 -92.45,-5.05 -273.38,-0.14 -446.37,89.35 -88.21,45.62 -181.53,122.93 -255.95,212.22 -0.94,1.08 -1.82,2.22 -2.69,3.3l-168.95 13.05c-27.79,2.15 -52.62,16.69 -67.96,39.97l-115.26 174.34c-11.71,17.63 -13.52,39.7 -4.98,59.08 8.55,19.31 26.17,32.84 47.03,36.07l142.38 22c-0.54,2.76 -1.01,5.58 -1.48,8.34 -4.78,28.33 4.64,57.46 25.1,77.92l198.29 198.29c16.96,16.96 39.9,26.31 63.38,26.31 4.84,0 9.69,-0.4 14.53,-1.21 2.76,-0.47 5.58,-0.94 8.34,-1.48l22 142.38c3.23,20.86 16.75,38.49 36.07,47.03 8.07,3.57 16.55,5.32 25.03,5.32 11.91,0 23.75,-3.5 34.05,-10.3l174.34 -115.26c23.28,-15.34 37.81,-40.1 39.97,-67.96l13.05 -168.95c1.08,-0.87 2.22,-1.75 3.3,-2.69 89.29,-74.42 166.6,-167.74 212.22,-255.95 89.49,-172.99 94.4,-353.92 89.35,-446.37l-0 0zm-344.84 650.38c-54.64,45.55 -107.59,78.52 -156.44,102.34l-336.22 -336.22c31.22,-63.72 69.3,-116.88 102.27,-156.44 68.9,-82.56 154.62,-153.82 235.09,-195.46 158.79,-82.16 326.13,-86.53 411.72,-81.89 11.3,0.61 20.32,9.62 20.93,20.93 4.64,85.65 0.27,252.93 -81.89,411.72 -41.65,80.47 -112.91,166.19 -195.46,235.03zm-343.02 150.99l-198.29 -198.29c-5.05,-5.05 -7.33,-12.18 -6.19,-19.04 5.85,-35.26 15,-68.77 26.38,-100.39l297.47 297.47c-37.95,13.59 -71.99,21.73 -100.32,26.44 -6.86,1.14 -13.99,-1.14 -19.04,-6.19l0 0 0 0z"/>
   <path class="fil1" d="M498.44 800.41l110.08 -8.48c-44.48,66.41 -77.65,136.12 -98.37,206.63l-138.74 -21.46 110.28 -166.8c3.77,-5.72 9.89,-9.35 16.75,-9.89z"/>
   <path class="fil1" d="M1056.85 1385.46l-166.8 110.28 -21.46 -138.74c70.52,-20.72 140.22,-53.9 206.63,-98.37l-8.55 110.08c-0.47,6.86 -4.1,12.99 -9.82,16.75l0 0z"/>
   <path class="fil0" d="M1090.02 946.08c43.26,0 86.53,-16.48 119.43,-49.45 31.96,-31.89 49.52,-74.35 49.52,-119.43 0,-45.15 -17.56,-87.61 -49.52,-119.5 -65.87,-65.94 -173.06,-65.94 -238.93,0 -31.96,31.89 -49.52,74.35 -49.52,119.5 0,45.08 17.56,87.54 49.52,119.43 32.9,32.97 76.17,49.45 119.5,49.45z"/>
   <path class="fil0" d="M334.2 1364.46c8.68,0 17.36,-3.3 23.95,-9.89l110.35 -110.35c13.19,-13.19 13.19,-34.59 0,-47.77 -13.26,-13.26 -34.65,-13.26 -47.84,0l-110.35 110.35c-13.19,13.19 -13.19,34.59 0,47.77 6.59,6.59 15.27,9.89 23.89,9.89l0 0z"/>
   <path class="fil0" d="M569.56 1297.52c-13.19,-13.19 -34.59,-13.19 -47.77,0l-212.15 212.15c-13.19,13.26 -13.19,34.65 0,47.84 6.59,6.59 15.27,9.89 23.89,9.89 8.68,0 17.29,-3.3 23.95,-9.89l212.08 -212.15c13.26,-13.19 13.26,-34.59 0,-47.84l0 0z"/>
   <path class="fil0" d="M622.92 1398.65l-110.35 110.35c-13.19,13.26 -13.19,34.65 0,47.84 6.59,6.59 15.27,9.89 23.89,9.89 8.68,0 17.29,-3.3 23.89,-9.89l110.35 -110.35c13.26,-13.19 13.26,-34.59 0,-47.84 -13.19,-13.19 -34.59,-13.19 -47.77,0l0 0 0 0z"/>
   <path class="fil2" d="M1018.29 705.47c19.78,-19.78 45.75,-29.67 71.66,-29.67 25.97,0 51.94,9.89 71.73,29.67 19.18,19.18 29.67,44.61 29.67,71.73 0,27.05 -10.5,52.48 -29.67,71.66 -39.56,39.56 -103.82,39.5 -143.38,0 -19.18,-19.18 -29.67,-44.61 -29.67,-71.66 0,-27.12 10.5,-52.55 29.67,-71.73z"/>
   <path class="fil3 loader" d="M324.85 774.84c-0.2,-7.4 -1.01,-14.74 -2.56,-22.07 -1.55,-7.33 -3.9,-14.33 -7,-20.99 -2.96,-6.73 -6.59,-13.19 -10.77,-19.24 -4.24,-6.12 -8.95,-11.64 -14.33,-16.69 -5.18,-5.18 -10.83,-9.69 -17.09,-13.59 -6.19,-3.97 -12.72,-7.27 -19.51,-9.89 -6.66,-2.69 -13.52,-4.64 -20.72,-5.85 -7.2,-1.35 -14.4,-1.82 -21.67,-1.68 -7.2,0.14 -14.4,0.94 -21.4,2.56 -7,1.55 -13.79,3.7 -20.32,6.53 -6.59,2.96 -12.85,6.46 -18.71,10.5 -5.85,4.1 -11.24,8.75 -16.08,13.86 -4.91,5.05 -9.29,10.56 -13.12,16.55 -3.83,5.99 -7,12.31 -9.55,18.97 -2.62,6.53 -4.58,13.26 -5.72,20.19 -1.21,7 -1.68,13.93 -1.55,20.86 0.14,7 0.94,13.86 2.42,20.66 1.48,6.8 3.63,13.32 6.46,19.71 2.76,6.39 6.19,12.45 10.16,18.1 4.04,5.65 8.41,10.9 13.32,15.61 5.05,4.78 10.43,8.95 16.22,12.65 5.72,3.77 11.78,6.8 18.17,9.08 6.39,2.56 12.85,4.37 19.51,5.58 6.66,1.21 13.39,1.75 20.19,1.55 6.86,-0.14 13.52,-0.94 20.12,-2.42 6.53,-1.48 12.85,-3.57 18.97,-6.26 6.06,-2.62 11.84,-5.85 17.36,-9.76 5.58,-3.83 10.56,-8.14 15,-13.05 4.58,-4.71 8.68,-9.89 12.31,-15.54 3.63,-5.58 6.66,-11.44 8.95,-17.49 1.35,-3.7 2.56,-7.54 3.57,-11.3 1.08,-3.9 1.82,-7.81 2.29,-11.84 0.14,0 0.2,0 0.4,0 0.14,0 0.27,0 0.4,0 4.04,0 7.4,-1.35 10.16,-4.04 2.69,-2.76 4.1,-6.12 4.1,-10.16 0,-0.14 0,-0.34 0,-0.47 0,-0.27 0,-0.47 0,-0.61l0 0zm-22.67 37.75c-2.49,5.85 -5.65,11.51 -9.42,16.69 -3.77,5.32 -7.94,10.16 -12.51,14.6 -4.58,4.37 -9.62,8.34 -15,11.78 -5.38,3.36 -11.03,6.26 -16.96,8.61 -5.92,2.22 -12.04,3.9 -18.3,4.98 -6.32,1.08 -12.51,1.62 -18.77,1.41 -6.19,-0.14 -12.38,-0.81 -18.5,-2.15 -6.12,-1.35 -12.11,-3.3 -17.9,-5.79 -5.58,-2.49 -10.97,-5.58 -16.08,-9.22 -5.05,-3.63 -9.76,-7.67 -14.06,-12.11 -4.31,-4.37 -8.07,-9.22 -11.3,-14.53 -3.3,-5.25 -5.99,-10.63 -8.21,-16.28 -2.22,-5.79 -3.83,-11.64 -4.84,-17.63 -1.08,-5.99 -1.48,-12.04 -1.35,-18.1 0.14,-6.06 0.87,-12.04 2.22,-17.97 1.28,-5.92 3.16,-11.57 5.52,-17.09 2.49,-5.45 5.45,-10.63 8.88,-15.54 3.43,-4.84 7.2,-9.35 11.57,-13.52 4.37,-3.97 9.08,-7.6 14.06,-10.77 4.98,-3.16 10.16,-5.79 15.61,-7.87 5.45,-2.22 11.17,-3.77 16.96,-4.78 5.85,-0.94 11.71,-1.35 17.43,-1.21 5.79,0.14 11.51,0.87 17.23,2.15 5.72,1.21 11.17,3.03 16.55,5.38 5.11,2.42 10.09,5.25 14.8,8.55 4.78,3.36 9.08,7.13 12.92,11.24 3.97,4.1 7.47,8.61 10.5,13.39 3.03,4.84 5.58,9.89 7.67,15.21 1.88,5.18 3.36,10.56 4.31,16.08 1.01,5.58 1.41,11.17 1.21,16.75l0 0c0,0.14 0,0.34 0,0.61 0,0.14 0,0.34 0,0.47 0,3.77 1.21,6.93 3.7,9.55 2.42,2.69 5.45,4.24 8.95,4.64 -0.74,3.9 -1.62,7.67 -2.76,11.44 -1.14,3.83 -2.49,7.47 -4.1,11.03l-0 0z"/>
   <path class="fil3 star" d="M1106.57 1593.24l-45.35 -6.53 -20.25 -41.11 -20.25 41.11 -45.35 6.53 32.84 32.03 -7.74 45.08 40.51 -21.26 40.51 21.26 -7.67 -45.08 32.77 -32.03zm-65.6 45.62l-28.53 15.07 5.38 -31.89 -23.21 -22.54 32.03 -4.58 14.33 -29.13 14.33 29.13 32.03 4.58 -23.15 22.54 5.38 31.89 -28.6 -15.07 0 0z"/>
   <circle class="fil2 dots" cx="305.4" cy="255.4" r="53.69"/>
   <path class="fil3 circle" d="M1468.43 243.15c16.35,0 32.03,3.3 46.43,9.22 14.87,6.19 28.26,15.21 39.43,26.38 11.17,11.1 20.19,24.56 26.38,39.5 5.92,14.33 9.22,30.01 9.22,46.36 0,16.35 -3.3,32.03 -9.22,46.43 -6.19,14.87 -15.14,28.26 -26.38,39.43l0 0c-11.17,11.17 -24.56,20.19 -39.43,26.38 -14.4,5.92 -30.08,9.22 -46.43,9.22 -16.35,0 -32.03,-3.3 -46.36,-9.22 -14.87,-6.19 -28.26,-15.21 -39.43,-26.38l-0.07 0c-11.17,-11.17 -20.19,-24.56 -26.38,-39.43 -5.92,-14.4 -9.22,-30.08 -9.22,-46.43 0,-16.35 3.3,-32.03 9.22,-46.36 6.19,-14.87 15.21,-28.26 26.38,-39.43l0.07 -0.07c11.17,-11.17 24.56,-20.19 39.43,-26.38 14.33,-5.92 30.01,-9.22 46.36,-9.22l0 0zm62.71 58.74c-8.21,-8.21 -17.97,-14.8 -28.73,-19.24 -10.43,-4.31 -21.87,-6.66 -33.98,-6.66 -12.04,0 -23.55,2.35 -33.91,6.66 -10.77,4.44 -20.52,11.03 -28.73,19.24 -8.28,8.28 -14.87,18.03 -19.31,28.8 -4.31,10.36 -6.66,21.8 -6.66,33.91 0,12.11 2.35,23.55 6.66,33.98 4.44,10.77 11.03,20.52 19.31,28.73 8.21,8.21 17.97,14.8 28.73,19.24 10.36,4.31 21.87,6.73 33.91,6.73 12.11,0 23.55,-2.42 33.98,-6.73 10.77,-4.44 20.52,-11.03 28.73,-19.24 8.21,-8.21 14.8,-17.97 19.24,-28.73 4.31,-10.43 6.73,-21.87 6.73,-33.98 0,-12.04 -2.42,-23.55 -6.73,-33.91 -4.44,-10.77 -11.03,-20.52 -19.24,-28.8z"/>
   <circle class="fil2 dots1" cx="1733.54" cy="1152.45" r="33.78"/>
  </g>
  <rect class="fil4" x="0" y="-0" width="1872.05" height="1872.05"/>
 </g>
</svg>
