<?xml version="1.0" encoding="UTF-8" standalone="no"?>
<!DOCTYPE svg PUBLIC "-//W3C//DTD SVG 1.1//EN" "http://www.w3.org/Graphics/SVG/1.1/DTD/svg11.dtd">
<svg width="100%" height="100%" viewBox="0 0 1687 1162" version="1.1" xmlns="http://www.w3.org/2000/svg" xmlns:xlink="http://www.w3.org/1999/xlink" xml:space="preserve" xmlns:serif="http://www.serif.com/" style="fill-rule:evenodd;clip-rule:evenodd;stroke-miterlimit:10;">

    <style>
    
        .call_icon{
            animation-name: bounce-away;
            animation-duration: 1.5s;
            animation-timing-function: cubic-bezier(.28,.84,.42,1);
            animation-iteration-count: infinite;
            transform-origin: 0 0;                
        }

        @keyframes bounce-away {
                        
                    0%{
                        transform: scale(1,1) translateY(0);
                    }
    
                    10%{
                        transform: scale(1.1,.9) translateY(0);
                    }
    
                    30%{
                        transform: scale(.9,1.1) translateY(-10px);
                    }
    
                    50%{
                        transform: scale(1.05,.95) translateY(0);
                    }
    
                    57%{
                        transform: scale(1,1) translateY(-7px);
                    }
    
                    64%{
                        transform: scale(1,1) translateY(0);
                    }
    
                    100%{
                        transform: scale(1,1) translateY(0);
                    }
    
        }

        .world_icon{
            transform-origin: -18px 0px;
            animation: flip 4s infinite linear;
        }

        @keyframes flip {
            0% {
                transform: rotateY(0deg);
                transform-style: preserve-3d;
            }
            50% {
                transform: rotateY(180deg);
                transform-style: preserve-3d;
            }
            100% {
                transform: rotateY(36   0deg);
                transform-style: preserve-3d;
            }
        }

        .mail_icon{
            animation: grow 2s infinite;
            transform-origin: -20px 10px;        
        }

        .mail_icons{
            animation: grow 2s infinite;
            transform-origin: 15px -3px;        
        }

        @keyframes grow {
            0%, 100% {
                transform: scale(0.4);
                opacity: 1;
            }

            50% {
                transform: scale(1.1);
                opacity: 1;
            }
        }

        .square_shape{
            transform-origin: -5px 4px;
            animation: square 10s infinite linear;
        }

        @keyframes square{
            0% {
                transform:  rotate(0deg);
            }
            100% {
                transform:  rotate(360deg);
            }
        }

        .goline {
            transform: scalex(0);
            transform-origin: left;        
            transform-box: fill-box;
            transform-origin: center;
            animation: go_line 4s ease-in-out infinite 2s;
        }

        @keyframes go_line {
            0%{
                transform: scale(0); 
            }

            10% {
                transform: scale(1);  
            }

            100% {
                transform: scale(1);  
            }
        }

        .golines {
            transform: scalex(0);
            transform-origin: left;        
            transform-box: fill-box;
            transform-origin: center;
            animation: go_lines 4s ease-in-out infinite 0.5s;
        }

        @keyframes go_lines {
            0%{
                transform: scale(0); 
            }

            10% {
                transform: scale(1);  
            }

            100% {
                transform: scale(1);  
            }
        }

        .msgline{
            transform: scalex(0);
            transform-origin: left;        
            transform-box: fill-box;
            transform-origin: center;
            animation: go_lines 2s ease-in-out infinite 1s;      
        }

        .msglines{
            transform: scalex(0);
            transform-origin: left;        
            transform-box: fill-box;
            transform-origin: center;
            animation: go_lines 3s ease-in-out infinite 2s;      
        }

    </style>

    <g transform="matrix(1,0,0,1,-171.303,-220.128)">
        <g transform="matrix(1,0,0,1,31.8371,-139.31)">
            <g transform="matrix(2.40488,0,0,3.14326,343.946,466.479)">
                <path d="M0,0L499.369,0" style="fill:none;fill-rule:nonzero;stroke:rgb(115,115,115);stroke-width:2.59px;"/>
            </g>
            <g transform="matrix(0,-3.14326,-3.14326,0,396.083,417.156)">
                <path d="M-4.568,-4.568C-7.09,-4.568 -9.136,-2.523 -9.136,0C-9.136,2.523 -7.09,4.568 -4.568,4.568C-2.045,4.568 0,2.523 0,0C0,-2.523 -2.045,-4.568 -4.568,-4.568" style="fill:rgb(255,177,165);fill-rule:nonzero;"/>
            </g>
            <g transform="matrix(0,-3.14326,-3.14326,0,451.884,417.156)">
                <path d="M-4.568,-4.568C-7.09,-4.568 -9.136,-2.523 -9.136,0C-9.136,2.523 -7.09,4.568 -4.568,4.568C-2.045,4.568 0,2.523 0,0C0,-2.523 -2.045,-4.568 -4.568,-4.568" style="fill:rgb(234,210,84);fill-rule:nonzero;"/>
            </g>
            <g transform="matrix(0,-3.14326,-3.14326,0,507.685,417.156)">
                <path d="M-4.568,-4.568C-7.09,-4.568 -9.136,-2.523 -9.136,0C-9.136,2.523 -7.09,4.568 -4.568,4.568C-2.045,4.568 0,2.523 0,0C0,-2.523 -2.045,-4.568 -4.568,-4.568" style="fill:rgb(0,133,123);fill-rule:nonzero;"/>
            </g>
            <g transform="matrix(1,0,0,1,4.83617,1.59984)">
                <g>
                    <g transform="matrix(3.14326,0,0,3.14326,1460.78,505.674)">
                        <path d="M0,62.034L60.998,62.034C64.324,62.034 67.021,59.338 67.021,56.013L67.021,6.021C67.021,2.696 64.324,0 60.998,0L0,0C-3.325,0 -6.021,2.696 -6.021,6.021L-6.021,56.013C-6.021,59.338 -3.325,62.034 0,62.034" style="fill:rgb(102,255,204);fill-rule:nonzero;"/>
                    </g>
                    <g transform="matrix(3.14326,0,0,3.14326,1609.02,564.535)">
                        <path class="mail_icon" d="M0,22.605L-33.707,22.605L-33.707,0L0,0L0,22.605Z" style="fill:none;fill-rule:nonzero;stroke:black;stroke-width:1.85px;stroke-linecap:round;stroke-linejoin:round;"/>
                    </g>
                    <g transform="matrix(3.14326,0,0,3.14326,1503.07,606.283)">
                        <path class="mail_icons" d="M0,-13.282L16.854,0L33.707,-13.282" style="fill:none;fill-rule:nonzero;stroke:black;stroke-width:1.85px;stroke-linecap:round;stroke-linejoin:round;"/>
                    </g>
                </g>
            </g>
            <g>
                <g transform="matrix(3.14326,0,0,3.14326,419.231,838.888)">
                    <path d="M0,69.339L-58.049,69.339C-61.716,69.339 -64.688,66.366 -64.688,62.699L-64.688,6.639C-64.688,2.972 -61.716,0 -58.049,0L0,0C3.667,0 6.64,2.972 6.64,6.639L6.64,62.699C6.64,66.366 3.667,69.339 0,69.339" style="fill:rgb(102,255,204);fill-rule:nonzero;"/>
                </g>
                <g transform="matrix(3.14326,0,0,3.14326,386.433,953.604)">
                    <path class="world_icon" d="M0,-2.358L-8.669,-2.358C-8.716,-4.964 -9.055,-7.571 -9.7,-10.176L-2.339,-10.176C-1.009,-7.844 -0.182,-5.189 0,-2.358M-2.339,7.819L-9.933,7.819C-9.246,5.212 -8.832,2.607 -8.705,-0L0,-0C-0.181,2.831 -1.009,5.487 -2.339,7.819M-13.114,16.307C-12.125,14.264 -11.295,12.221 -10.629,10.177L-3.941,10.177C-6.261,13.078 -9.45,15.252 -13.114,16.307M-18.155,17.015C-18.963,17.015 -19.758,16.962 -20.538,16.86C-21.65,14.632 -22.597,12.405 -23.358,10.177L-12.951,10.177C-13.713,12.405 -14.66,14.632 -15.771,16.86C-16.551,16.962 -17.347,17.015 -18.155,17.015M-32.368,10.177L-25.681,10.177C-25.014,12.22 -24.184,14.264 -23.195,16.307C-26.859,15.252 -30.048,13.078 -32.368,10.177M-33.971,7.819C-35.301,5.487 -36.128,2.831 -36.31,-0L-27.604,-0C-27.478,2.606 -27.063,5.212 -26.376,7.819L-33.971,7.819ZM-33.971,-10.176L-26.609,-10.176C-27.255,-7.571 -27.593,-4.964 -27.641,-2.358L-36.31,-2.358C-36.128,-5.189 -35.3,-7.844 -33.971,-10.176M-23.442,-18.591C-24.467,-16.573 -25.297,-14.553 -25.941,-12.535L-32.368,-12.535C-30.101,-15.37 -27.002,-17.511 -23.442,-18.591M-18.155,-19.373C-17.185,-19.373 -16.234,-19.296 -15.306,-19.151C-14.07,-16.945 -13.102,-14.74 -12.381,-12.535L-23.928,-12.535C-23.208,-14.74 -22.239,-16.945 -21.004,-19.151C-20.076,-19.296 -19.124,-19.373 -18.155,-19.373M-10.829,-0C-11.006,2.606 -11.479,5.212 -12.214,7.819L-24.095,7.819C-24.831,5.213 -25.303,2.607 -25.481,-0L-10.829,-0ZM-25.56,-2.358C-25.557,-4.964 -25.25,-7.571 -24.604,-10.176L-11.705,-10.176C-11.06,-7.571 -10.752,-4.964 -10.75,-2.358L-25.56,-2.358ZM-3.941,-12.535L-10.368,-12.535C-11.013,-14.553 -11.843,-16.573 -12.867,-18.591C-9.307,-17.511 -6.208,-15.37 -3.941,-12.535M-32.415,-15.439C-40.247,-7.607 -40.247,5.249 -32.415,13.081C-24.583,20.913 -11.727,20.913 -3.895,13.081C3.937,5.249 3.937,-7.607 -3.895,-15.439C-11.727,-23.271 -24.583,-23.271 -32.415,-15.439" style="fill-rule:nonzero;"/>
                </g>
            </g>
            <g transform="matrix(1,0,0,1,-838.243,344.628)">
                <g transform="matrix(3.14326,0,0,3.14326,2190.2,838.888)">
                    <path d="M0,69.339L-58.049,69.339C-61.716,69.339 -64.688,66.366 -64.688,62.699L-64.688,6.639C-64.688,2.972 -61.716,0 -58.049,0L0,0C3.667,0 6.64,2.972 6.64,6.639L6.64,62.699C6.64,66.366 3.667,69.339 0,69.339" style="fill:rgb(102,255,204);fill-rule:nonzero;"/>
                </g>
                <g transform="matrix(3.14326,0,0,3.14326,2137.34,917.353)">
                    <path class="call_icon" d="M0,19.413C-0.258,19.671 -0.516,19.929 -0.774,20.187C-1.226,20.574 -1.612,21.025 -2.064,21.476C-2.709,22.121 -3.418,22.444 -4.386,22.444L-4.708,22.444C-6.643,22.315 -8.449,21.541 -9.739,20.896C-13.415,19.09 -16.64,16.575 -19.348,13.351C-21.541,10.706 -23.024,8.191 -24.057,5.547C-24.701,3.999 -24.959,2.773 -24.83,1.548C-24.766,0.839 -24.508,0.194 -23.927,-0.322L-21.734,-2.515C-21.541,-2.709 -21.219,-2.966 -20.832,-2.966C-20.445,-2.966 -20.187,-2.773 -19.929,-2.515C-19.542,-2.128 -19.155,-1.741 -18.768,-1.354C-18.574,-1.161 -18.381,-0.903 -18.123,-0.71L-16.317,1.097C-16.124,1.29 -15.866,1.677 -15.866,1.999C-15.866,2.387 -16.124,2.709 -16.317,2.902C-16.511,3.096 -16.704,3.289 -16.897,3.483C-17.478,4.063 -17.994,4.579 -18.51,5.095L-18.574,5.16C-19.219,5.805 -19.09,6.385 -18.961,6.772L-18.961,6.836C-18.51,7.997 -17.8,9.029 -16.833,10.319C-15.027,12.577 -13.092,14.318 -10.964,15.672C-10.706,15.866 -10.384,15.995 -10.125,16.123C-9.868,16.253 -9.674,16.317 -9.48,16.446L-9.416,16.511C-8.771,16.833 -8.126,16.704 -7.61,16.188L-5.353,13.931C-5.16,13.737 -4.837,13.479 -4.45,13.479C-4.127,13.479 -3.805,13.737 -3.612,13.931L0,17.542C0.581,18.123 0.581,18.768 0,19.413M1.483,16.059L-2.128,12.448C-2.773,11.738 -3.612,11.351 -4.45,11.351C-5.289,11.351 -6.127,11.738 -6.772,12.383L-8.836,14.447L-9.223,14.253C-9.48,14.124 -9.674,14.06 -9.868,13.931C-11.803,12.705 -13.544,11.093 -15.221,9.029C-15.995,8.062 -16.575,7.159 -16.897,6.385C-16.381,5.934 -15.93,5.417 -15.479,4.966C-15.285,4.773 -15.092,4.579 -14.898,4.386C-14.189,3.676 -13.802,2.838 -13.802,1.999C-13.802,1.161 -14.189,0.323 -14.898,-0.387L-16.704,-2.192C-16.897,-2.386 -17.091,-2.58 -17.285,-2.837C-17.671,-3.225 -18.123,-3.676 -18.51,-4.063C-19.155,-4.708 -19.993,-5.095 -20.832,-5.095C-21.67,-5.095 -22.444,-4.773 -23.153,-4.063L-25.411,-1.806C-26.249,-0.967 -26.765,0.129 -26.894,1.354C-27.023,3.289 -26.507,5.095 -26.056,6.256C-25.024,9.223 -23.412,11.867 -21.025,14.705C-18.123,18.123 -14.705,20.832 -10.706,22.767C-9.223,23.476 -7.159,24.314 -4.901,24.508L-4.45,24.508C-2.902,24.508 -1.612,23.928 -0.581,22.831L-0.516,22.767C-0.193,22.38 0.193,21.993 0.645,21.606C0.903,21.348 1.226,21.025 1.483,20.767C2.838,19.349 2.838,17.413 1.483,16.059" style="fill-rule:nonzero;"/>
                </g>
            </g>
            <g transform="matrix(1.76335,0,0,3.14326,600.117,539.74)">
                <path class="golines" d="M0,7.586L-101.398,7.586C-103.493,7.586 -105.191,5.888 -105.191,3.793C-105.191,1.698 -103.493,0 -101.398,0L0,0C2.095,0 3.793,1.698 3.793,3.793C3.793,5.888 2.095,7.586 0,7.586" style="fill:rgb(255,153,51);fill-rule:nonzero;"/>
            </g>
            <g transform="matrix(3.14326,0,0,3.14326,1753.62,866.982)">
                <path class="goline" d="M0,7.586L-49.215,7.586C-51.31,7.586 -53.008,5.888 -53.008,3.793C-53.008,1.698 -51.31,0 -49.215,0L0,0C2.095,0 3.793,1.698 3.793,3.793C3.793,5.888 2.095,7.586 0,7.586" style="fill:rgb(102,255,204);fill-rule:nonzero;"/>
            </g>
            <g transform="matrix(3.14326,0,0,3.14326,1645.28,993.014)">
                <path class="square_shape" d="M0,11.367L-6.014,11.367C-7.594,11.367 -8.875,10.086 -8.875,8.506L-8.875,2.86C-8.875,1.28 -7.594,0 -6.014,0L0,0C1.58,0 2.861,1.28 2.861,2.86L2.861,8.506C2.861,10.086 1.58,11.367 0,11.367" style="fill:rgb(255,153,51);fill-rule:nonzero;"/>
            </g>
            <g transform="matrix(3.14326,0,0,3.14326,281.9,1269.57)">
                <path class="square_shape" d="M0,11.367L-6.014,11.367C-7.594,11.367 -8.875,10.087 -8.875,8.507L-8.875,2.861C-8.875,1.281 -7.594,0 -6.014,0L0,0C1.58,0 2.861,1.281 2.861,2.861L2.861,8.507C2.861,10.087 1.58,11.367 0,11.367" style="fill:rgb(255,153,51);fill-rule:nonzero;"/>
            </g>
            <g transform="matrix(1,0,0,1,0,-82.421)">
                <g transform="matrix(3.14326,0,0,3.14326,1476.13,1023.68)">
                    <path class="message" d="M0,30.459L-100.083,30.459C-101.747,30.459 -103.096,29.11 -103.096,27.447L-103.096,3.011C-103.096,1.348 -101.747,0 -100.083,0L0,0C1.664,0 3.012,1.348 3.012,3.011L3.012,27.447C3.012,29.11 1.664,30.459 0,30.459" style="fill:rgb(255,153,51);fill-rule:nonzero;"/>
                </g>
                <g transform="matrix(3.14326,0,0,-3.14326,1188.4,992.364)">
                    <path class="message" d="M0,-11.871L0,0L14.93,-11.871L0,-11.871Z" style="fill:rgb(255,153,51);fill-rule:nonzero;"/>
                </g>
            </g>
            <g transform="matrix(3.14326,0,0,3.14326,-46.3258,0)">
                <clipPath id="_clip1">
                    <rect x="171.975" y="125.943" width="220.842" height="308.157" clip-rule="nonzero"/>
                </clipPath>
                <g clip-path="url(#_clip1)">
                    <g transform="matrix(1,0,0,1,324.496,338.736)">
                        <path d="M0,-69.395C-3.123,-74.379 -20.665,-74.204 -21.591,-74.312C-26.333,-74.868 -18.55,-37.131 -8.685,-4.145C-6.793,2.179 0.165,5.473 6.242,2.896C6.308,2.869 6.373,2.84 6.439,2.813C11.247,0.776 13.982,-4.328 13.015,-9.458C8.323,-34.349 3.611,-63.631 0,-69.395" style="fill:rgb(255,177,165);fill-rule:nonzero;"/>
                    </g>
                    <g transform="matrix(-0.932279,0.361739,0.361739,0.932279,305.186,288.353)">
                        <path d="M-23.842,3.494L0.181,3.494L-1.705,-7.172L-25.418,-4.176L-23.842,3.494Z" style="fill:rgb(243,151,142);fill-rule:nonzero;"/>
                    </g>
                    <g transform="matrix(1,0,0,1,332.907,309.06)">
                        <path d="M0,-4.815C0,-4.815 -10.61,9.434 -10.104,8.779C-9.599,8.123 -1.784,-14.249 -1.784,-14.249L0,-4.815Z" style="fill:rgb(243,151,142);fill-rule:nonzero;"/>
                    </g>
                    <g transform="matrix(1,0,0,1,348.077,344.26)">
                        <path d="M0,-59.167L-30.412,-19.764C-34.405,-14.591 -33.13,-7.11 -27.648,-3.552C-22.176,0 -14.837,-1.867 -11.729,-7.603L13.586,-54.308L0,-59.167Z" style="fill:rgb(255,177,165);fill-rule:nonzero;"/>
                    </g>
                    <g transform="matrix(0.951576,0.307414,0.307414,-0.951576,352.465,293.447)">
                        <path d="M3.856,-0.608C-3.072,-0.607 -8.688,5.008 -8.689,11.937C-8.689,18.866 -3.072,24.482 3.856,24.482C10.785,24.482 16.401,18.866 16.401,11.937C16.402,5.008 10.785,-0.608 3.856,-0.608" style="fill:rgb(255,177,165);fill-rule:nonzero;"/>
                    </g>
                    <g transform="matrix(1,0,0,1,368.952,270.856)">
                        <path d="M0,4.876C0,4.876 3.433,1.312 -2.658,-1.186C-8.748,-3.685 -16.278,-3.111 -21.085,8.561L0,4.876Z" style="fill:rgb(255,177,165);fill-rule:nonzero;"/>
                    </g>
                    <g transform="matrix(1,0,0,1,375.261,290.283)">
                        <path d="M0,-39.452L12.734,-33.931C13.442,-33.624 13.7,-32.784 13.31,-32.056L-3.441,-0.764C-3.832,-0.036 -4.723,0.307 -5.431,-0.001L-18.165,-5.521C-18.874,-5.829 -19.131,-6.669 -18.741,-7.397L-1.989,-38.688C-1.599,-39.417 -0.708,-39.759 0,-39.452" style="fill:rgb(55,47,95);fill-rule:nonzero;"/>
                    </g>
                    <g transform="matrix(1,0,0,1,374.045,289.728)">
                        <path d="M0,-39.451L12.733,-33.93C13.442,-33.623 13.7,-32.783 13.31,-32.055L-3.442,-0.764C-3.832,-0.035 -4.723,0.307 -5.432,-0L-18.165,-5.521C-18.874,-5.828 -19.132,-6.668 -18.741,-7.397L-1.989,-38.687C-1.6,-39.416 -0.709,-39.758 0,-39.451" style="fill:rgb(38,27,67);fill-rule:nonzero;"/>
                    </g>
                    <g transform="matrix(0.91747,0.397805,0.397805,-0.91747,378.544,255.204)">
                        <path d="M-6.139,-0.762L6.055,-0.762L3.675,-29.591L-8.519,-29.591L-6.139,-0.762Z" style="fill:rgb(230,230,230);fill-rule:nonzero;"/>
                    </g>
                    <g transform="matrix(1,0,0,1,595.58,274.112)">
                        <path d="M0,-15.8L-24.841,4.851L-11.188,-20.651L0,-15.8Z" style="fill:white;fill-rule:nonzero;"/>
                    </g>
                    <g transform="matrix(1,0,0,1,362.639,283.435)">
                        <path d="M0,-14.804C0,-14.804 2.835,-14.251 5.394,-12.801C6.521,-12.162 7.099,-10.862 6.786,-9.604C6.501,-8.457 5.54,-7.605 4.368,-7.456L-2.252,-6.621C-2.252,-6.621 -5.706,-0.668 -10.219,0L-6.079,-10.452L0,-14.804Z" style="fill:rgb(255,177,165);fill-rule:nonzero;"/>
                    </g>
                    <g transform="matrix(1,0,0,1,299.725,476.229)">
                        <path d="M0,-153.685L-31.208,-157.841L-30.923,-161.465L-67.425,-156.605C-67.425,-156.605 -87.347,-103.216 -69.617,7.78L-44.23,7.78L-35.381,-104.769L-32.136,-104.769L-23,7.78L2.387,7.78C20.117,-103.216 0,-153.685 0,-153.685" style="fill:rgb(40,40,40);fill-rule:nonzero;"/>
                    </g>
                    <g transform="matrix(1,0,0,1,297.235,193.27)">
                        <path d="M0,-22.57C-4.224,-27.539 -7.606,-33.336 -10.48,-41.471C-13.566,-50.203 -23.669,-46.654 -23.669,-46.654C-23.669,-46.654 -32.088,-57.485 -44.757,-53.712C-57.426,-49.94 -61.828,-40.924 -62.086,-30.206C-62.345,-19.488 -70.775,-17.812 -77.267,-5.412C-88.728,16.477 -69.432,34.915 -34.308,29.8L-34.261,29.459C-30.802,30.51 -26.563,30.968 -21.388,30.661C20.808,28.156 16.736,-2.881 0,-22.57" style="fill:rgb(40,40,40);fill-rule:nonzero;"/>
                    </g>
                    <g transform="matrix(1,0,0,1,283.421,174.594)">
                        <path d="M0,12.339C3.468,15.485 11.223,3.553 7.872,0.203C4.521,-3.146 1.965,2.109 1.965,2.109L0.469,5.671L-0.66,10.494L-0.929,11.757L0,12.339Z" style="fill:rgb(243,151,142);fill-rule:nonzero;"/>
                    </g>
                    <g transform="matrix(-0.883775,0.467912,0.467912,0.883775,285.341,181.543)">
                        <path d="M-5.008,-0.2C-5.008,-0.2 -3.24,-2.472 0.602,-0.2" style="fill:none;fill-rule:nonzero;stroke:rgb(40,40,40);stroke-width:0.32px;stroke-linecap:round;stroke-linejoin:round;"/>
                    </g>
                    <g transform="matrix(1,0,0,1,242.408,174.952)">
                        <path d="M0,11.619C-3.19,15.047 -11.926,3.814 -8.87,0.193C-5.814,-3.428 -2.823,1.592 -2.823,1.592L-1.031,5.014L0.501,9.725L0.875,10.961L0,11.619Z" style="fill:rgb(243,151,142);fill-rule:nonzero;"/>
                    </g>
                    <g transform="matrix(0.920193,0.391465,0.391465,-0.920193,235.87,178.24)">
                        <path d="M0.05,-1.042C0.05,-1.042 1.818,1.23 5.66,-1.042" style="fill:none;fill-rule:nonzero;stroke:rgb(40,40,40);stroke-width:0.32px;stroke-linecap:round;stroke-linejoin:round;"/>
                    </g>
                    <g transform="matrix(0,-1,-1,0,264.235,134.892)">
                        <path d="M-28.524,-25.269C-44.318,-25.269 -51.808,-13.227 -51.808,1.627C-51.808,16.481 -44.318,28.524 -28.524,28.524C-12.73,28.524 -1.985,16.481 -1.985,1.627C-1.985,-13.227 -12.73,-25.269 -28.524,-25.269" style="fill:rgb(40,40,40);fill-rule:nonzero;"/>
                    </g>
                    <g transform="matrix(-1,0,0,1,525.006,-74.031)">
                        <rect x="251.44" y="272.69" width="22.126" height="28.651" style="fill:rgb(255,177,165);"/>
                    </g>
                    <g transform="matrix(1,0,0,1,248.211,211.596)">
                        <path d="M0,-14.724C0,-14.724 6.159,-2.432 13.736,-0.513C15.76,0 17.922,-0.176 19.874,-0.868C22.726,-1.879 26.342,-6.131 26.957,-10.835L27.242,-13.523C27.242,-13.523 13.759,-6.182 0,-14.724" style="fill:rgb(40,40,40);fill-rule:nonzero;"/>
                    </g>
                    <g transform="matrix(1,0,0,1,285.848,181.322)">
                        <path d="M0,-16.808C0,-7.112 -1.37,1.255 -2.737,7.193C-4.076,13.007 -7.844,17.07 -13.168,20.34L-14.138,20.936C-19.771,24.397 -27.049,24.477 -32.77,21.143C-38.538,17.779 -42.577,13.345 -43.82,7.107C-46.081,-4.241 -46.328,-16.808 -46.328,-16.808C-46.328,-16.808 -48.479,-41.285 -23.494,-40.809C1.49,-40.334 0,-16.808 0,-16.808" style="fill:rgb(255,177,165);fill-rule:nonzero;"/>
                    </g>
                    <g transform="matrix(0,1,1,0,264.469,179.877)">
                        <path d="M-0.069,-3.531L1.943,-3.531C2.143,-3.531 2.335,-3.492 2.511,-3.422C3.201,-3.144 3.531,-2.345 3.34,-1.622L2.93,-0.069" style="fill:none;fill-rule:nonzero;stroke:rgb(40,40,40);stroke-width:0.39px;stroke-linecap:round;stroke-linejoin:round;"/>
                    </g>
                    <g transform="matrix(1,0,0,1,266.144,166.933)">
                        <path d="M0,-0.393L13.292,2.753C13.292,2.753 12.688,-0.663 7.25,-1.905C1.812,-3.146 0,-0.393 0,-0.393" style="fill:rgb(40,40,40);fill-rule:nonzero;"/>
                    </g>
                    <g transform="matrix(1,0,0,1,259.165,166.933)">
                        <path d="M0,-0.393L-13.463,2.753C-13.463,2.753 -12.852,-0.663 -7.344,-1.905C-1.836,-3.146 0,-0.393 0,-0.393" style="fill:rgb(40,40,40);fill-rule:nonzero;"/>
                    </g>
                    <g transform="matrix(0,-1,-1,0,252.248,172.697)">
                        <path d="M-2.094,-2.094C-3.244,-2.094 -4.176,-1.157 -4.176,0C-4.176,1.157 -3.244,2.094 -2.094,2.094C-0.944,2.094 -0.012,1.157 -0.012,0C-0.012,-1.157 -0.944,-2.094 -2.094,-2.094" style="fill:rgb(40,40,40);fill-rule:nonzero;"/>
                    </g>
                    <g transform="matrix(0,-1,-1,0,272.1,172.697)">
                        <path d="M-2.094,-2.094C-3.244,-2.094 -4.176,-1.157 -4.176,0C-4.176,1.156 -3.244,2.094 -2.094,2.094C-0.944,2.094 -0.012,1.156 -0.012,0C-0.012,-1.157 -0.944,-2.094 -2.094,-2.094" style="fill:rgb(40,40,40);fill-rule:nonzero;"/>
                    </g>
                    <g transform="matrix(1,0,0,1,252.959,191.749)">
                        <path d="M0,-5.05L18.379,-5.05C18.379,-5.05 17.082,0 8.748,0C2.401,0 0,-5.05 0,-5.05" style="fill:white;fill-rule:nonzero;"/>
                    </g>
                    <g transform="matrix(1,0,0,1,239.841,145.443)">
                        <path d="M0,27.186C0,27.186 9.989,13.681 7.685,0C7.685,0 0.271,3.731 -1.66,13.362C-3.591,22.992 0,27.186 0,27.186" style="fill:rgb(40,40,40);fill-rule:nonzero;"/>
                    </g>
                    <g transform="matrix(1,0,0,1,285.865,144.525)">
                        <path d="M0,27.654C0,27.654 -11.604,13.681 -9.3,0C-9.3,0 -1.251,4.649 0.679,14.279C2.61,23.91 0,27.654 0,27.654" style="fill:rgb(40,40,40);fill-rule:nonzero;"/>
                    </g>
                    <g transform="matrix(1,0,0,1,240.679,152.732)">
                        <path d="M0,-1.9C0,-1.9 11.462,13.506 46.555,11.103C46.555,11.103 42.546,-10.867 25.539,-13.062C25.539,-13.062 5.902,-15.406 0,-1.9" style="fill:rgb(40,40,40);fill-rule:nonzero;"/>
                    </g>
                    <g transform="matrix(0.999886,0.0151238,0.0151238,-0.999886,207.718,390.157)">
                        <path d="M0.973,-0.141C0.475,-0.952 28.222,129.591 19.43,127.491C18.627,127.3 3.198,125.631 0.973,120.927C-5.48,107.292 -8.643,0.701 -8.643,0.701L0.973,-0.141Z" style="fill:rgb(255,177,165);fill-rule:nonzero;"/>
                    </g>
                    <g transform="matrix(1,0,0,1,199.087,411.439)">
                        <path d="M0,-22.114C0,-22.114 -4.79,0.112 13.318,2.541C14.511,2.701 15.664,1.996 16.057,0.859L16.109,0.708C16.542,-0.548 15.913,-1.894 14.7,-2.436C11.748,-3.757 7.168,-7.092 9.44,-14.666C9.44,-14.666 12.058,-14.987 13.502,-10.104C13.874,-8.848 15.284,-8.218 16.454,-8.806C17.252,-9.209 17.702,-10.068 17.589,-10.955C17.155,-14.375 15.435,-22.606 8.834,-24.815L0,-22.114Z" style="fill:rgb(255,177,165);fill-rule:nonzero;"/>
                    </g>
                    <g transform="matrix(0.402724,0.915321,0.915321,-0.402724,214.355,291.367)">
                        <path d="M4.683,-12.083C4.683,-12.083 33.651,-6.122 33.26,-5.851C32.871,-5.581 4.683,13.264 4.683,13.264L-11.922,-2.13L4.683,-12.083Z" style="fill:rgb(243,151,142);fill-rule:nonzero;"/>
                    </g>
                    <g transform="matrix(1,0,0,1,252.757,322.201)">
                        <path d="M0,-99.608C0.73,-99.612 -42.318,-98.841 -50.186,-44.484L-25.446,-40.693L-20.458,0.343L48.559,0.343L62.26,-75.477C62.26,-75.477 52.52,-91.903 24.128,-99.951L0,-99.608Z" style="fill:rgb(255,153,51);fill-rule:nonzero;"/>
                    </g>
                    <g transform="matrix(-0.974301,0,0,0.946574,281.243,322.219)">
                        <path d="M0,-99.608C0.73,-99.612 -42.318,-98.841 -50.186,-44.484L-25.446,-40.693L-20.458,0.343L48.559,0.343L62.26,-75.477C62.26,-75.477 52.52,-91.903 24.128,-99.951L0,-99.608Z" style="fill:rgb(255,153,51);fill-rule:nonzero;"/>
                    </g>
                    <g transform="matrix(0.00682011,0.999977,0.999977,-0.00682011,260.959,196.609)">
                        <path d="M32.355,-29.464C32.355,-29.464 40.472,-23.437 40.642,1.49C40.811,26.185 32.355,32.558 32.355,32.558C32.355,32.558 24.122,18.056 21.376,1.181C21.376,1.181 23.96,-13.922 32.355,-29.464" style="fill:rgb(255,177,165);fill-rule:nonzero;"/>
                    </g>
                    <g transform="matrix(0.999871,-0.0160751,-0.0160751,-0.999871,394.779,156.907)">
                        <path d="M-0,0.033L4.043,0.033" style="fill:none;fill-rule:nonzero;stroke:white;stroke-width:0.62px;"/>
                    </g>
                </g>
            </g>
            <path d="M1109,1367.03L359.725,1367.03C351.057,1367.03 344.03,1357.85 344.03,1346.53L344.03,1096.84L189.649,1096.84C182.054,1096.84 175.9,1088.8 175.9,1078.88L175.9,806.331C175.9,796.414 182.054,788.374 189.649,788.374L344.03,788.374L344.03,416.369C344.03,405.05 351.057,395.872 359.725,395.872L1530.05,395.872C1538.72,395.872 1545.75,405.05 1545.75,416.369L1545.75,466.502L1701.86,466.502C1709.82,466.502 1716.28,474.932 1716.28,485.33L1716.28,721.787C1716.28,732.185 1709.82,740.619 1701.86,740.619L1545.75,740.619L1545.75,1346.53C1545.75,1357.85 1538.72,1367.03 1530.05,1367.03L1412.45,1367.03L1412.45,1431.06C1412.45,1439.44 1405.65,1446.23 1397.28,1446.23L1124.17,1446.23C1115.8,1446.23 1109,1439.44 1109,1431.06L1109,1367.03Z" style="fill:none;fill-rule:nonzero;stroke:rgb(115,115,115);stroke-width:7.25px;"/>
            <g transform="matrix(1,0,0,1,0,-6.49393)">
                <path class="msgline" d="M1185.79,978.181L1451.35,978.181" style="fill:none;stroke:white;stroke-width:10.14px;stroke-linecap:round;stroke-linejoin:round;stroke-miterlimit:1.5;"/>
            </g>
            <g transform="matrix(0.426419,0,0,1,680.145,26.68)">
                <path class="msglines" d="M1185.79,978.181L1451.35,978.181" style="fill:none;stroke:white;stroke-width:13.19px;stroke-linecap:round;stroke-linejoin:round;stroke-miterlimit:1.5;"/>
            </g>
        </g>
    </g>
</svg>
