<svg width="1512" height="982" viewBox="0 0 1512 982" fill="none" xmlns="http://www.w3.org/2000/svg">
<g clip-path="url(#clip0_2_2)">
<rect width="1512" height="982" fill="#EAE7FA"/>
<circle cx="503.642" cy="182.396" r="4.17868" fill="#7E574E"/>
<path d="M498.619 167.128C499.39 173.011 503.642 178.217 503.642 178.217C503.642 178.217 507.893 173.011 508.665 167.128C509.796 158.508 503.642 147 503.642 147C503.642 147 497.488 158.508 498.619 167.128Z" fill="#D9A1A0" stroke="black"/>
<path d="M492.063 173.987C496.734 177.645 503.415 178.383 503.415 178.383C503.415 178.383 502.802 171.689 499.233 166.95C494.002 160.006 481.549 156.102 481.549 156.102C481.549 156.102 485.218 168.626 492.063 173.987Z" fill="#D9A1A0" stroke="black"/>
<path d="M503.659 166.141C501.943 171.82 503.676 178.314 503.676 178.314C503.676 178.314 509.693 175.318 512.816 170.274C517.393 162.882 516.518 149.861 516.518 149.861C516.518 149.861 506.175 157.819 503.659 166.141Z" fill="#D9A1A0" stroke="black"/>
<path d="M515.559 172.944C510.563 176.145 507.66 182.207 507.66 182.207C507.66 182.207 514.181 183.84 519.833 182.036C528.115 179.392 535.912 168.927 535.912 168.927C535.912 168.927 522.879 168.254 515.559 172.944Z" fill="#D9A1A0" stroke="black"/>
<path d="M519.19 185.864C514.354 182.427 507.646 182 507.646 182C507.646 182 508.568 188.658 512.354 193.226C517.902 199.92 530.523 203.24 530.523 203.24C530.523 203.24 526.276 190.9 519.19 185.864Z" fill="#D9A1A0" stroke="black"/>
<path d="M488.374 187.419C494.257 186.647 499.463 182.396 499.463 182.396C499.463 182.396 494.257 178.144 488.374 177.373C479.754 176.242 468.246 182.396 468.246 182.396C468.246 182.396 479.754 188.55 488.374 187.419Z" fill="#D9A1A0" stroke="black"/>
<path d="M487.742 183.655C493.659 184.087 499.616 180.975 499.616 180.975C499.616 180.975 495.376 175.759 489.771 173.816C481.557 170.967 469.043 174.67 469.043 174.67C469.043 174.67 479.071 183.021 487.742 183.655Z" fill="#D9A1A0" stroke="black"/>
<path d="M489.758 190.72C495.493 189.203 500.113 184.32 500.113 184.32C500.113 184.32 494.405 180.769 488.472 180.756C479.778 180.738 469.152 188.313 469.152 188.313C469.152 188.313 481.353 192.945 489.758 190.72Z" fill="#D9A1A0" stroke="black"/>
<path d="M491.254 191.47C496.349 188.431 499.445 182.465 499.445 182.465C499.445 182.465 492.981 180.624 487.274 182.246C478.911 184.623 470.782 194.833 470.782 194.833C470.782 194.833 483.787 195.924 491.254 191.47Z" fill="#D9A1A0" stroke="black"/>
<path d="M494.626 195.964C499.169 192.149 501.271 185.764 501.271 185.764C501.271 185.764 494.595 184.981 489.221 187.495C481.346 191.179 474.955 202.557 474.955 202.557C474.955 202.557 487.967 201.554 494.626 195.964Z" fill="#D9A1A0" stroke="black"/>
<path d="M499.04 198.187C502.358 193.269 502.621 186.552 502.621 186.552C502.621 186.552 495.988 187.637 491.514 191.533C484.957 197.243 481.945 209.941 481.945 209.941C481.945 209.941 494.178 205.395 499.04 198.187Z" fill="#D9A1A0" stroke="black"/>
<path d="M492.008 193.517C497.062 190.411 500.078 184.404 500.078 184.404C500.078 184.404 493.59 182.649 487.905 184.347C479.574 186.835 471.583 197.152 471.583 197.152C471.583 197.152 484.601 198.07 492.008 193.517Z" fill="#D9A1A0" stroke="black"/>
<path d="M487.262 181.876C492.861 183.837 499.424 182.387 499.424 182.387C499.424 182.387 496.692 176.246 491.788 172.907C484.601 168.013 471.555 168.323 471.555 168.323C471.555 168.323 479.056 179.002 487.262 181.876Z" fill="#D9A1A0" stroke="black"/>
<path d="M518.909 177.373C513.027 178.144 507.82 182.396 507.82 182.396C507.82 182.396 513.027 186.647 518.909 187.419C527.53 188.55 539.038 182.396 539.038 182.396C539.038 182.396 527.53 176.242 518.909 177.373Z" fill="#D9A1A0" stroke="black"/>
<path d="M518.891 181.001C512.958 181.015 507.251 184.566 507.251 184.566C507.251 184.566 511.871 189.448 517.607 190.965C526.012 193.189 538.212 188.557 538.212 188.557C538.212 188.557 527.585 180.982 518.891 181.001Z" fill="#D9A1A0" stroke="black"/>
<path d="M519.053 183.737C513.219 182.656 506.955 185.094 506.955 185.094C506.955 185.094 510.596 190.744 515.953 193.293C523.804 197.028 536.649 194.725 536.649 194.725C536.649 194.725 527.601 185.321 519.053 183.737Z" fill="#D9A1A0" stroke="black"/>
<path d="M509.07 197.415C508.08 191.565 503.638 186.521 503.638 186.521C503.638 186.521 499.583 191.881 499.031 197.789C498.221 206.445 504.799 217.716 504.799 217.716C504.799 217.716 510.521 205.987 509.07 197.415Z" fill="#D9A1A0" stroke="black"/>
<path d="M512.567 194.942C509.649 189.777 503.758 186.541 503.758 186.541C503.758 186.541 501.765 192.96 503.251 198.704C505.43 207.12 515.445 215.488 515.445 215.488C515.445 215.488 516.843 202.513 512.567 194.942Z" fill="#D9A1A0" stroke="black"/>
<path d="M505.502 198.356C506.197 192.464 503.352 186.374 503.352 186.374C503.352 186.374 497.954 190.378 495.762 195.892C492.551 203.971 495.694 216.637 495.694 216.637C495.694 216.637 504.483 206.991 505.502 198.356Z" fill="#D9A1A0" stroke="black"/>
<path d="M502.496 198.392C503.913 192.631 501.842 186.237 501.842 186.237C501.842 186.237 495.99 189.544 493.135 194.745C488.952 202.366 490.508 215.323 490.508 215.323C490.508 215.323 500.42 206.835 502.496 198.392Z" fill="#D9A1A0" stroke="black"/>
<path d="M488.776 178.621C494.218 180.984 500.87 180.015 500.87 180.015C500.87 180.015 498.591 173.691 493.942 170.005C487.13 164.602 474.095 163.963 474.095 163.963C474.095 163.963 480.801 175.159 488.776 178.621Z" fill="#D9A1A0" stroke="black"/>
<path d="M489.878 175.692C494.936 178.793 501.657 178.764 501.657 178.764C501.657 178.764 500.285 172.184 496.199 167.883C490.21 161.581 477.393 159.124 477.393 159.124C477.393 159.124 482.466 171.148 489.878 175.692Z" fill="#D9A1A0" stroke="black"/>
<path d="M495.7 168.741C497.616 174.356 502.81 178.622 502.81 178.622C502.81 178.622 505.952 172.68 505.549 166.761C504.959 158.087 496.658 148.017 496.658 148.017C496.658 148.017 492.892 160.512 495.7 168.741Z" fill="#D9A1A0" stroke="black"/>
<path d="M493.06 170.233C496.03 175.369 501.954 178.545 501.954 178.545C501.954 178.545 503.882 172.106 502.337 166.378C500.072 157.983 489.973 149.719 489.973 149.719C489.973 149.719 488.707 162.707 493.06 170.233Z" fill="#D9A1A0" stroke="black"/>
<path d="M488.091 179.104C493.43 181.691 500.116 180.998 500.116 180.998C500.116 180.998 498.101 174.585 493.61 170.709C487.028 165.029 474.031 163.849 474.031 163.849C474.031 163.849 480.267 175.313 488.091 179.104Z" fill="#D9A1A0" stroke="black"/>
<path d="M508.839 167.734C505.981 172.933 506.328 179.646 506.328 179.646C506.328 179.646 512.836 177.964 516.939 173.678C522.951 167.397 524.798 154.479 524.798 154.479C524.798 154.479 513.028 160.115 508.839 167.734Z" fill="#D9A1A0" stroke="black"/>
<path d="M517.957 189.449C513.184 185.925 506.484 185.377 506.484 185.377C506.484 185.377 507.286 192.051 510.989 196.687C516.415 203.48 528.974 207.028 528.974 207.028C528.974 207.028 524.951 194.613 517.957 189.449Z" fill="#D9A1A0" stroke="black"/>
<path d="M517.957 189.449C513.184 185.925 506.484 185.377 506.484 185.377C506.484 185.377 507.286 192.051 510.989 196.687C516.415 203.48 528.974 207.028 528.974 207.028C528.974 207.028 524.951 194.613 517.957 189.449Z" fill="#D9A1A0" stroke="black"/>
<path d="M514.757 193.039C510.935 188.5 504.548 186.408 504.548 186.408C504.548 186.408 503.774 193.085 506.296 198.455C509.992 206.325 521.379 212.699 521.379 212.699C521.379 212.699 520.357 199.689 514.757 193.039Z" fill="#D9A1A0" stroke="black"/>
<path d="M503.836 166.632C502.709 172.457 505.098 178.74 505.098 178.74C505.098 178.74 510.777 175.144 513.368 169.807C517.165 161.986 514.963 149.123 514.963 149.123C514.963 149.123 505.488 158.096 503.836 166.632Z" fill="#D9A1A0" stroke="black"/>
<path d="M513.181 170.017C508.879 174.102 507.17 180.603 507.17 180.603C507.17 180.603 513.882 180.977 519.092 178.14C526.728 173.982 532.412 162.235 532.412 162.235C532.412 162.235 519.486 164.03 513.181 170.017Z" fill="#D9A1A0" stroke="black"/>
<path d="M518.21 175.6C512.611 177.562 508.388 182.791 508.388 182.791C508.388 182.791 514.356 185.884 520.271 185.433C528.94 184.771 538.941 176.387 538.941 176.387C538.941 176.387 526.415 172.725 518.21 175.6Z" fill="#D9A1A0" stroke="black"/>
<ellipse cx="1155.93" cy="706.404" rx="6.67429" ry="6.89491" fill="#7E574E"/>
<path d="M1147.9 681.212C1149.14 690.919 1155.93 699.509 1155.93 699.509C1155.93 699.509 1162.72 690.919 1163.95 681.212C1165.76 666.989 1155.93 648 1155.93 648C1155.93 648 1146.1 666.989 1147.9 681.212Z" fill="#D9A1A0" stroke="black"/>
<path d="M1137.43 692.529C1144.89 698.565 1155.56 699.783 1155.56 699.783C1155.56 699.783 1154.59 688.738 1148.89 680.919C1140.53 669.46 1120.64 663.019 1120.64 663.019C1120.64 663.019 1126.5 683.684 1137.43 692.529Z" fill="#D9A1A0" stroke="black"/>
<path d="M1155.96 679.583C1153.21 688.954 1155.98 699.67 1155.98 699.67C1155.98 699.67 1165.59 694.725 1170.58 686.402C1177.89 674.205 1176.49 652.72 1176.49 652.72C1176.49 652.72 1159.97 665.851 1155.96 679.583Z" fill="#D9A1A0" stroke="black"/>
<path d="M1174.96 690.808C1166.98 696.09 1162.35 706.093 1162.35 706.093C1162.35 706.093 1172.76 708.787 1181.79 705.81C1195.02 701.448 1207.47 684.181 1207.47 684.181C1207.47 684.181 1186.65 683.069 1174.96 690.808Z" fill="#D9A1A0" stroke="black"/>
<path d="M1180.76 712.126C1173.04 706.455 1162.32 705.751 1162.32 705.751C1162.32 705.751 1163.8 716.737 1169.84 724.274C1178.7 735.319 1198.86 740.798 1198.86 740.798C1198.86 740.798 1192.08 720.436 1180.76 712.126Z" fill="#D9A1A0" stroke="black"/>
<path d="M1131.54 714.692C1140.94 713.419 1149.25 706.404 1149.25 706.404C1149.25 706.404 1140.94 699.389 1131.54 698.116C1117.77 696.25 1099.39 706.404 1099.39 706.404C1099.39 706.404 1117.77 716.558 1131.54 714.692Z" fill="#D9A1A0" stroke="black"/>
<path d="M1130.53 708.481C1139.98 709.195 1149.5 704.059 1149.5 704.059C1149.5 704.059 1142.73 695.454 1133.77 692.246C1120.65 687.546 1100.67 693.655 1100.67 693.655C1100.67 693.655 1116.68 707.436 1130.53 708.481Z" fill="#D9A1A0" stroke="black"/>
<path d="M1133.75 720.139C1142.91 717.635 1150.29 709.579 1150.29 709.579C1150.29 709.579 1141.18 703.72 1131.7 703.699C1117.81 703.668 1100.84 716.168 1100.84 716.168C1100.84 716.168 1120.33 723.809 1133.75 720.139Z" fill="#D9A1A0" stroke="black"/>
<path d="M1136.14 721.377C1144.28 716.363 1149.23 706.518 1149.23 706.518C1149.23 706.518 1138.9 703.48 1129.78 706.157C1116.43 710.079 1103.44 726.925 1103.44 726.925C1103.44 726.925 1124.22 728.725 1136.14 721.377Z" fill="#D9A1A0" stroke="black"/>
<path d="M1141.53 728.791C1148.78 722.496 1152.14 711.961 1152.14 711.961C1152.14 711.961 1141.48 710.669 1132.9 714.817C1120.32 720.896 1110.11 739.67 1110.11 739.67C1110.11 739.67 1130.89 738.015 1141.53 728.791Z" fill="#D9A1A0" stroke="black"/>
<path d="M1148.58 732.46C1153.88 724.344 1154.3 713.262 1154.3 713.262C1154.3 713.262 1143.7 715.052 1136.56 721.48C1126.08 730.901 1121.27 751.853 1121.27 751.853C1121.27 751.853 1140.81 744.352 1148.58 732.46Z" fill="#D9A1A0" stroke="black"/>
<path d="M1137.35 724.755C1145.42 719.629 1150.24 709.717 1150.24 709.717C1150.24 709.717 1139.87 706.822 1130.79 709.623C1117.49 713.729 1104.72 730.752 1104.72 730.752C1104.72 730.752 1125.51 732.266 1137.35 724.755Z" fill="#D9A1A0" stroke="black"/>
<path d="M1129.77 705.546C1138.71 708.782 1149.19 706.389 1149.19 706.389C1149.19 706.389 1144.83 696.256 1136.99 690.746C1125.52 682.673 1104.68 683.184 1104.68 683.184C1104.68 683.184 1116.66 700.803 1129.77 705.546Z" fill="#D9A1A0" stroke="black"/>
<path d="M1180.31 698.116C1170.92 699.389 1162.6 706.404 1162.6 706.404C1162.6 706.404 1170.92 713.419 1180.31 714.692C1194.08 716.558 1212.46 706.404 1212.46 706.404C1212.46 706.404 1194.08 696.25 1180.31 698.116Z" fill="#D9A1A0" stroke="black"/>
<path d="M1180.28 704.103C1170.81 704.125 1161.69 709.984 1161.69 709.984C1161.69 709.984 1169.07 718.04 1178.23 720.544C1191.66 724.213 1211.14 716.569 1211.14 716.569C1211.14 716.569 1194.17 704.071 1180.28 704.103Z" fill="#D9A1A0" stroke="black"/>
<path d="M1180.54 708.617C1171.22 706.833 1161.22 710.855 1161.22 710.855C1161.22 710.855 1167.03 720.179 1175.59 724.384C1188.13 730.548 1208.65 726.748 1208.65 726.748C1208.65 726.748 1194.2 711.23 1180.54 708.617Z" fill="#D9A1A0" stroke="black"/>
<path d="M1164.6 731.186C1163.02 721.534 1155.92 713.21 1155.92 713.21C1155.92 713.21 1149.45 722.055 1148.56 731.802C1147.27 746.085 1157.78 764.683 1157.78 764.683C1157.78 764.683 1166.91 745.33 1164.6 731.186Z" fill="#D9A1A0" stroke="black"/>
<path d="M1170.18 727.106C1165.52 718.582 1156.11 713.243 1156.11 713.243C1156.11 713.243 1152.93 723.835 1155.3 733.312C1158.78 747.2 1174.78 761.006 1174.78 761.006C1174.78 761.006 1177.01 739.597 1170.18 727.106Z" fill="#D9A1A0" stroke="black"/>
<path d="M1158.9 732.739C1160.01 723.017 1155.47 712.968 1155.47 712.968C1155.47 712.968 1146.84 719.575 1143.34 728.672C1138.21 742.004 1143.23 762.903 1143.23 762.903C1143.23 762.903 1157.27 746.986 1158.9 732.739Z" fill="#D9A1A0" stroke="black"/>
<path d="M1154.1 732.798C1156.36 723.292 1153.05 712.741 1153.05 712.741C1153.05 712.741 1143.71 718.198 1139.15 726.78C1132.46 739.356 1134.95 760.735 1134.95 760.735C1134.95 760.735 1150.78 746.729 1154.1 732.798Z" fill="#D9A1A0" stroke="black"/>
<path d="M1132.18 700.176C1140.88 704.075 1151.5 702.475 1151.5 702.475C1151.5 702.475 1147.86 692.041 1140.44 685.958C1129.55 677.044 1108.74 675.99 1108.74 675.99C1108.74 675.99 1119.45 694.462 1132.18 700.176Z" fill="#D9A1A0" stroke="black"/>
<path d="M1133.94 695.343C1142.02 700.46 1152.76 700.412 1152.76 700.412C1152.76 700.412 1150.57 689.554 1144.04 682.458C1134.47 672.059 1114 668.004 1114 668.004C1114 668.004 1122.11 687.844 1133.94 695.343Z" fill="#D9A1A0" stroke="black"/>
<path d="M1143.24 683.873C1146.3 693.138 1154.6 700.177 1154.6 700.177C1154.6 700.177 1159.62 690.373 1158.97 680.606C1158.03 666.294 1144.77 649.678 1144.77 649.678C1144.77 649.678 1138.76 670.296 1143.24 683.873Z" fill="#D9A1A0" stroke="black"/>
<path d="M1139.03 686.336C1143.77 694.81 1153.23 700.05 1153.23 700.05C1153.23 700.05 1156.31 689.425 1153.84 679.973C1150.23 666.123 1134.1 652.486 1134.1 652.486C1134.1 652.486 1132.07 673.917 1139.03 686.336Z" fill="#D9A1A0" stroke="black"/>
<path d="M1131.09 700.972C1139.62 705.24 1150.3 704.097 1150.3 704.097C1150.3 704.097 1147.08 693.516 1139.9 687.121C1129.39 677.748 1108.63 675.802 1108.63 675.802C1108.63 675.802 1118.59 694.718 1131.09 700.972Z" fill="#D9A1A0" stroke="black"/>
<path d="M1164.23 682.211C1159.66 690.79 1160.22 701.866 1160.22 701.866C1160.22 701.866 1170.61 699.091 1177.17 692.019C1186.77 681.656 1189.72 660.34 1189.72 660.34C1189.72 660.34 1170.92 669.64 1164.23 682.211Z" fill="#D9A1A0" stroke="black"/>
<path d="M1178.79 718.042C1171.17 712.227 1160.47 711.323 1160.47 711.323C1160.47 711.323 1161.75 722.335 1167.66 729.984C1176.33 741.193 1196.39 747.047 1196.39 747.047C1196.39 747.047 1189.96 726.562 1178.79 718.042Z" fill="#D9A1A0" stroke="black"/>
<path d="M1178.79 718.042C1171.17 712.227 1160.47 711.323 1160.47 711.323C1160.47 711.323 1161.75 722.335 1167.66 729.984C1176.33 741.193 1196.39 747.047 1196.39 747.047C1196.39 747.047 1189.96 726.562 1178.79 718.042Z" fill="#D9A1A0" stroke="black"/>
<path d="M1173.68 723.965C1167.58 716.477 1157.37 713.024 1157.37 713.024C1157.37 713.024 1156.14 724.041 1160.17 732.902C1166.07 745.888 1184.26 756.405 1184.26 756.405C1184.26 756.405 1182.63 734.938 1173.68 723.965Z" fill="#D9A1A0" stroke="black"/>
<path d="M1156.24 680.394C1154.44 690.005 1158.25 700.372 1158.25 700.372C1158.25 700.372 1167.32 694.439 1171.46 685.632C1177.53 672.727 1174.01 651.503 1174.01 651.503C1174.01 651.503 1158.88 666.309 1156.24 680.394Z" fill="#D9A1A0" stroke="black"/>
<path d="M1171.16 685.978C1164.29 692.718 1161.56 703.445 1161.56 703.445C1161.56 703.445 1172.28 704.063 1180.61 699.382C1192.8 692.521 1201.88 673.138 1201.88 673.138C1201.88 673.138 1181.23 676.1 1171.16 685.978Z" fill="#D9A1A0" stroke="black"/>
<path d="M1179.2 695.191C1170.25 698.428 1163.51 707.056 1163.51 707.056C1163.51 707.056 1173.04 712.16 1182.49 711.415C1196.34 710.323 1212.31 696.489 1212.31 696.489C1212.31 696.489 1192.3 690.446 1179.2 695.191Z" fill="#D9A1A0" stroke="black"/>
<circle cx="1385.64" cy="205.396" r="4.17868" fill="#7E574E"/>
<path d="M1380.62 190.128C1381.39 196.011 1385.64 201.217 1385.64 201.217C1385.64 201.217 1389.89 196.011 1390.66 190.128C1391.8 181.508 1385.64 170 1385.64 170C1385.64 170 1379.49 181.508 1380.62 190.128Z" fill="#D9A1A0" stroke="black"/>
<path d="M1374.06 196.987C1378.73 200.645 1385.41 201.383 1385.41 201.383C1385.41 201.383 1384.8 194.689 1381.23 189.95C1376 183.006 1363.55 179.102 1363.55 179.102C1363.55 179.102 1367.22 191.626 1374.06 196.987Z" fill="#D9A1A0" stroke="black"/>
<path d="M1385.66 189.141C1383.94 194.82 1385.68 201.314 1385.68 201.314C1385.68 201.314 1391.69 198.318 1394.82 193.274C1399.39 185.882 1398.52 172.861 1398.52 172.861C1398.52 172.861 1388.17 180.819 1385.66 189.141Z" fill="#D9A1A0" stroke="black"/>
<path d="M1397.56 195.944C1392.56 199.145 1389.66 205.207 1389.66 205.207C1389.66 205.207 1396.18 206.84 1401.83 205.036C1410.12 202.392 1417.91 191.927 1417.91 191.927C1417.91 191.927 1404.88 191.254 1397.56 195.944Z" fill="#D9A1A0" stroke="black"/>
<path d="M1401.19 208.864C1396.35 205.427 1389.65 205 1389.65 205C1389.65 205 1390.57 211.658 1394.35 216.226C1399.9 222.92 1412.52 226.24 1412.52 226.24C1412.52 226.24 1408.28 213.9 1401.19 208.864Z" fill="#D9A1A0" stroke="black"/>
<path d="M1370.37 210.419C1376.26 209.647 1381.46 205.396 1381.46 205.396C1381.46 205.396 1376.26 201.144 1370.37 200.373C1361.75 199.242 1350.25 205.396 1350.25 205.396C1350.25 205.396 1361.75 211.55 1370.37 210.419Z" fill="#D9A1A0" stroke="black"/>
<path d="M1369.74 206.655C1375.66 207.087 1381.62 203.975 1381.62 203.975C1381.62 203.975 1377.38 198.759 1371.77 196.816C1363.56 193.967 1351.04 197.67 1351.04 197.67C1351.04 197.67 1361.07 206.021 1369.74 206.655Z" fill="#D9A1A0" stroke="black"/>
<path d="M1371.76 213.72C1377.49 212.203 1382.11 207.32 1382.11 207.32C1382.11 207.32 1376.41 203.769 1370.47 203.756C1361.78 203.738 1351.15 211.313 1351.15 211.313C1351.15 211.313 1363.35 215.945 1371.76 213.72Z" fill="#D9A1A0" stroke="black"/>
<path d="M1373.25 214.47C1378.35 211.431 1381.45 205.465 1381.45 205.465C1381.45 205.465 1374.98 203.624 1369.27 205.246C1360.91 207.623 1352.78 217.833 1352.78 217.833C1352.78 217.833 1365.79 218.924 1373.25 214.47Z" fill="#D9A1A0" stroke="black"/>
<path d="M1376.63 218.964C1381.17 215.149 1383.27 208.764 1383.27 208.764C1383.27 208.764 1376.6 207.981 1371.22 210.495C1363.35 214.179 1356.96 225.557 1356.96 225.557C1356.96 225.557 1369.97 224.554 1376.63 218.964Z" fill="#D9A1A0" stroke="black"/>
<path d="M1381.04 221.187C1384.36 216.269 1384.62 209.552 1384.62 209.552C1384.62 209.552 1377.99 210.637 1373.51 214.533C1366.96 220.243 1363.95 232.941 1363.95 232.941C1363.95 232.941 1376.18 228.395 1381.04 221.187Z" fill="#D9A1A0" stroke="black"/>
<path d="M1374.01 216.517C1379.06 213.411 1382.08 207.404 1382.08 207.404C1382.08 207.404 1375.59 205.649 1369.91 207.347C1361.57 209.835 1353.58 220.152 1353.58 220.152C1353.58 220.152 1366.6 221.07 1374.01 216.517Z" fill="#D9A1A0" stroke="black"/>
<path d="M1369.26 204.876C1374.86 206.837 1381.42 205.387 1381.42 205.387C1381.42 205.387 1378.69 199.246 1373.79 195.907C1366.6 191.013 1353.55 191.323 1353.55 191.323C1353.55 191.323 1361.06 202.002 1369.26 204.876Z" fill="#D9A1A0" stroke="black"/>
<path d="M1400.91 200.373C1395.03 201.144 1389.82 205.396 1389.82 205.396C1389.82 205.396 1395.03 209.647 1400.91 210.419C1409.53 211.55 1421.04 205.396 1421.04 205.396C1421.04 205.396 1409.53 199.242 1400.91 200.373Z" fill="#D9A1A0" stroke="black"/>
<path d="M1400.89 204.001C1394.96 204.015 1389.25 207.566 1389.25 207.566C1389.25 207.566 1393.87 212.448 1399.61 213.965C1408.01 216.189 1420.21 211.557 1420.21 211.557C1420.21 211.557 1409.59 203.982 1400.89 204.001Z" fill="#D9A1A0" stroke="black"/>
<path d="M1401.05 206.737C1395.22 205.656 1388.95 208.094 1388.95 208.094C1388.95 208.094 1392.6 213.744 1397.95 216.293C1405.8 220.028 1418.65 217.725 1418.65 217.725C1418.65 217.725 1409.6 208.321 1401.05 206.737Z" fill="#D9A1A0" stroke="black"/>
<path d="M1391.07 220.415C1390.08 214.565 1385.64 209.521 1385.64 209.521C1385.64 209.521 1381.58 214.881 1381.03 220.789C1380.22 229.445 1386.8 240.716 1386.8 240.716C1386.8 240.716 1392.52 228.987 1391.07 220.415Z" fill="#D9A1A0" stroke="black"/>
<path d="M1394.57 217.942C1391.65 212.777 1385.76 209.541 1385.76 209.541C1385.76 209.541 1383.76 215.96 1385.25 221.704C1387.43 230.12 1397.44 238.488 1397.44 238.488C1397.44 238.488 1398.84 225.513 1394.57 217.942Z" fill="#D9A1A0" stroke="black"/>
<path d="M1387.5 221.356C1388.2 215.464 1385.35 209.374 1385.35 209.374C1385.35 209.374 1379.95 213.378 1377.76 218.892C1374.55 226.971 1377.69 239.637 1377.69 239.637C1377.69 239.637 1386.48 229.991 1387.5 221.356Z" fill="#D9A1A0" stroke="black"/>
<path d="M1384.5 221.392C1385.91 215.631 1383.84 209.237 1383.84 209.237C1383.84 209.237 1377.99 212.544 1375.14 217.745C1370.95 225.366 1372.51 238.323 1372.51 238.323C1372.51 238.323 1382.42 229.835 1384.5 221.392Z" fill="#D9A1A0" stroke="black"/>
<path d="M1370.78 201.621C1376.22 203.984 1382.87 203.015 1382.87 203.015C1382.87 203.015 1380.59 196.691 1375.94 193.005C1369.13 187.602 1356.1 186.963 1356.1 186.963C1356.1 186.963 1362.8 198.159 1370.78 201.621Z" fill="#D9A1A0" stroke="black"/>
<path d="M1371.88 198.692C1376.94 201.793 1383.66 201.764 1383.66 201.764C1383.66 201.764 1382.29 195.184 1378.2 190.883C1372.21 184.581 1359.39 182.124 1359.39 182.124C1359.39 182.124 1364.47 194.148 1371.88 198.692Z" fill="#D9A1A0" stroke="black"/>
<path d="M1377.7 191.741C1379.62 197.356 1384.81 201.622 1384.81 201.622C1384.81 201.622 1387.95 195.68 1387.55 189.761C1386.96 181.087 1378.66 171.017 1378.66 171.017C1378.66 171.017 1374.89 183.512 1377.7 191.741Z" fill="#D9A1A0" stroke="black"/>
<path d="M1375.06 193.233C1378.03 198.369 1383.95 201.545 1383.95 201.545C1383.95 201.545 1385.88 195.106 1384.34 189.378C1382.07 180.983 1371.97 172.719 1371.97 172.719C1371.97 172.719 1370.71 185.707 1375.06 193.233Z" fill="#D9A1A0" stroke="black"/>
<path d="M1370.09 202.104C1375.43 204.691 1382.12 203.998 1382.12 203.998C1382.12 203.998 1380.1 197.585 1375.61 193.709C1369.03 188.029 1356.03 186.849 1356.03 186.849C1356.03 186.849 1362.27 198.313 1370.09 202.104Z" fill="#D9A1A0" stroke="black"/>
<path d="M1390.84 190.734C1387.98 195.933 1388.33 202.646 1388.33 202.646C1388.33 202.646 1394.84 200.964 1398.94 196.678C1404.95 190.397 1406.8 177.479 1406.8 177.479C1406.8 177.479 1395.03 183.115 1390.84 190.734Z" fill="#D9A1A0" stroke="black"/>
<path d="M1399.96 212.449C1395.18 208.925 1388.48 208.377 1388.48 208.377C1388.48 208.377 1389.29 215.051 1392.99 219.687C1398.41 226.48 1410.97 230.028 1410.97 230.028C1410.97 230.028 1406.95 217.613 1399.96 212.449Z" fill="#D9A1A0" stroke="black"/>
<path d="M1399.96 212.449C1395.18 208.925 1388.48 208.377 1388.48 208.377C1388.48 208.377 1389.29 215.051 1392.99 219.687C1398.41 226.48 1410.97 230.028 1410.97 230.028C1410.97 230.028 1406.95 217.613 1399.96 212.449Z" fill="#D9A1A0" stroke="black"/>
<path d="M1396.76 216.039C1392.94 211.5 1386.55 209.408 1386.55 209.408C1386.55 209.408 1385.77 216.085 1388.3 221.455C1391.99 229.325 1403.38 235.699 1403.38 235.699C1403.38 235.699 1402.36 222.689 1396.76 216.039Z" fill="#D9A1A0" stroke="black"/>
<path d="M1385.84 189.632C1384.71 195.457 1387.1 201.74 1387.1 201.74C1387.1 201.74 1392.78 198.144 1395.37 192.807C1399.17 184.986 1396.96 172.123 1396.96 172.123C1396.96 172.123 1387.49 181.096 1385.84 189.632Z" fill="#D9A1A0" stroke="black"/>
<path d="M1395.18 193.017C1390.88 197.102 1389.17 203.603 1389.17 203.603C1389.17 203.603 1395.88 203.977 1401.09 201.14C1408.73 196.982 1414.41 185.235 1414.41 185.235C1414.41 185.235 1401.49 187.03 1395.18 193.017Z" fill="#D9A1A0" stroke="black"/>
<path d="M1400.21 198.6C1394.61 200.562 1390.39 205.791 1390.39 205.791C1390.39 205.791 1396.36 208.884 1402.27 208.433C1410.94 207.771 1420.94 199.387 1420.94 199.387C1420.94 199.387 1408.42 195.725 1400.21 198.6Z" fill="#D9A1A0" stroke="black"/>
<circle cx="286.177" cy="435.955" r="3.77242" fill="#7E574E"/>
<path d="M281.642 422.172C282.338 427.482 286.177 432.182 286.177 432.182C286.177 432.182 290.015 427.482 290.711 422.172C291.732 414.389 286.177 404 286.177 404C286.177 404 280.621 414.389 281.642 422.172Z" fill="#D9A1A0" stroke="black"/>
<path d="M275.723 428.363C279.94 431.666 285.972 432.332 285.972 432.332C285.972 432.332 285.419 426.289 282.196 422.011C277.474 415.741 266.232 412.217 266.232 412.217C266.232 412.217 269.544 423.524 275.723 428.363Z" fill="#D9A1A0" stroke="black"/>
<path d="M286.192 421.28C284.643 426.407 286.208 432.27 286.208 432.27C286.208 432.27 291.64 429.565 294.459 425.011C298.591 418.338 297.801 406.583 297.801 406.583C297.801 406.583 288.463 413.767 286.192 421.28Z" fill="#D9A1A0" stroke="black"/>
<path d="M296.935 427.422C292.425 430.311 289.804 435.784 289.804 435.784C289.804 435.784 295.691 437.259 300.793 435.63C308.271 433.243 315.309 423.796 315.309 423.796C315.309 423.796 303.544 423.187 296.935 427.422Z" fill="#D9A1A0" stroke="black"/>
<path d="M300.213 439.085C295.847 435.982 289.791 435.597 289.791 435.597C289.791 435.597 290.624 441.608 294.042 445.732C299.05 451.775 310.444 454.773 310.444 454.773C310.444 454.773 306.611 443.632 300.213 439.085Z" fill="#D9A1A0" stroke="black"/>
<path d="M272.393 440.489C277.704 439.793 282.404 435.955 282.404 435.955C282.404 435.955 277.704 432.116 272.393 431.42C264.611 430.399 254.222 435.955 254.222 435.955C254.222 435.955 264.611 441.51 272.393 440.489Z" fill="#D9A1A0" stroke="black"/>
<path d="M271.822 437.091C277.164 437.482 282.543 434.672 282.543 434.672C282.543 434.672 278.715 429.963 273.654 428.209C266.239 425.637 254.941 428.979 254.941 428.979C254.941 428.979 263.994 436.519 271.822 437.091Z" fill="#D9A1A0" stroke="black"/>
<path d="M273.642 443.47C278.82 442.1 282.991 437.692 282.991 437.692C282.991 437.692 277.838 434.486 272.482 434.475C264.633 434.458 255.04 441.297 255.04 441.297C255.04 441.297 266.055 445.478 273.642 443.47Z" fill="#D9A1A0" stroke="black"/>
<path d="M274.993 444.147C279.593 441.403 282.388 436.017 282.388 436.017C282.388 436.017 276.552 434.355 271.4 435.819C263.85 437.965 256.512 447.182 256.512 447.182C256.512 447.182 268.252 448.167 274.993 444.147Z" fill="#D9A1A0" stroke="black"/>
<path d="M278.037 448.203C282.139 444.759 284.036 438.995 284.036 438.995C284.036 438.995 278.01 438.288 273.158 440.558C266.049 443.884 260.279 454.156 260.279 454.156C260.279 454.156 272.026 453.25 278.037 448.203Z" fill="#D9A1A0" stroke="black"/>
<path d="M282.023 450.211C285.018 445.77 285.255 439.707 285.255 439.707C285.255 439.707 279.267 440.686 275.228 444.203C269.308 449.358 266.59 460.821 266.59 460.821C266.59 460.821 277.633 456.717 282.023 450.211Z" fill="#D9A1A0" stroke="black"/>
<path d="M275.674 445.995C280.237 443.19 282.96 437.767 282.96 437.767C282.96 437.767 277.102 436.183 271.97 437.716C264.449 439.962 257.234 449.276 257.234 449.276C257.234 449.276 268.987 450.105 275.674 445.995Z" fill="#D9A1A0" stroke="black"/>
<path d="M271.389 435.485C276.444 437.256 282.369 435.946 282.369 435.946C282.369 435.946 279.902 430.402 275.475 427.388C268.987 422.971 257.209 423.25 257.209 423.25C257.209 423.25 263.981 432.89 271.389 435.485Z" fill="#D9A1A0" stroke="black"/>
<path d="M299.96 431.42C294.649 432.116 289.949 435.955 289.949 435.955C289.949 435.955 294.649 439.793 299.96 440.489C307.742 441.51 318.131 435.955 318.131 435.955C318.131 435.955 307.742 430.399 299.96 431.42Z" fill="#D9A1A0" stroke="black"/>
<path d="M299.943 434.696C294.587 434.708 289.435 437.914 289.435 437.914C289.435 437.914 293.606 442.321 298.784 443.691C306.372 445.698 317.386 441.516 317.386 441.516C317.386 441.516 307.792 434.678 299.943 434.696Z" fill="#D9A1A0" stroke="black"/>
<path d="M300.089 437.165C294.823 436.189 289.168 438.39 289.168 438.39C289.168 438.39 292.454 443.491 297.291 445.792C304.379 449.165 315.975 447.085 315.975 447.085C315.975 447.085 307.807 438.595 300.089 437.165Z" fill="#D9A1A0" stroke="black"/>
<path d="M291.077 449.514C290.184 444.233 286.173 439.678 286.173 439.678C286.173 439.678 282.513 444.518 282.014 449.851C281.283 457.666 287.221 467.841 287.221 467.841C287.221 467.841 292.387 457.253 291.077 449.514Z" fill="#D9A1A0" stroke="black"/>
<path d="M294.234 447.281C291.6 442.618 286.282 439.696 286.282 439.696C286.282 439.696 284.482 445.492 285.824 450.677C287.791 458.275 296.832 465.829 296.832 465.829C296.832 465.829 298.094 454.116 294.234 447.281Z" fill="#D9A1A0" stroke="black"/>
<path d="M287.856 450.363C288.483 445.044 285.915 439.546 285.915 439.546C285.915 439.546 281.041 443.161 279.063 448.138C276.165 455.432 279.002 466.867 279.002 466.867C279.002 466.867 286.936 458.158 287.856 450.363Z" fill="#D9A1A0" stroke="black"/>
<path d="M285.142 450.396C286.421 445.195 284.552 439.422 284.552 439.422C284.552 439.422 279.269 442.408 276.692 447.103C272.915 453.983 274.319 465.681 274.319 465.681C274.319 465.681 283.268 458.018 285.142 450.396Z" fill="#D9A1A0" stroke="black"/>
<path d="M272.756 432.547C277.669 434.68 283.674 433.805 283.674 433.805C283.674 433.805 281.616 428.096 277.42 424.768C271.27 419.891 259.503 419.314 259.503 419.314C259.503 419.314 265.557 429.421 272.756 432.547Z" fill="#D9A1A0" stroke="black"/>
<path d="M273.751 429.903C278.317 432.702 284.385 432.676 284.385 432.676C284.385 432.676 283.146 426.736 279.457 422.853C274.05 417.163 262.48 414.945 262.48 414.945C262.48 414.945 267.059 425.8 273.751 429.903Z" fill="#D9A1A0" stroke="black"/>
<path d="M279.007 423.627C280.736 428.696 285.425 432.548 285.425 432.548C285.425 432.548 288.262 427.184 287.899 421.84C287.366 414.009 279.872 404.918 279.872 404.918C279.872 404.918 276.472 416.199 279.007 423.627Z" fill="#D9A1A0" stroke="black"/>
<path d="M276.623 424.975C279.305 429.611 284.653 432.478 284.653 432.478C284.653 432.478 286.393 426.665 284.998 421.494C282.954 413.916 273.837 406.454 273.837 406.454C273.837 406.454 272.694 418.18 276.623 424.975Z" fill="#D9A1A0" stroke="black"/>
<path d="M272.138 432.983C276.958 435.318 282.994 434.693 282.994 434.693C282.994 434.693 281.175 428.903 277.12 425.404C271.178 420.276 259.445 419.211 259.445 419.211C259.445 419.211 265.074 429.561 272.138 432.983Z" fill="#D9A1A0" stroke="black"/>
<path d="M290.869 422.718C288.289 427.412 288.602 433.472 288.602 433.472C288.602 433.472 294.477 431.953 298.181 428.084C303.608 422.414 305.276 410.751 305.276 410.751C305.276 410.751 294.65 415.84 290.869 422.718Z" fill="#D9A1A0" stroke="black"/>
<path d="M299.1 442.322C294.791 439.141 288.743 438.646 288.743 438.646C288.743 438.646 289.467 444.671 292.81 448.856C297.708 454.989 309.046 458.192 309.046 458.192C309.046 458.192 305.414 446.984 299.1 442.322Z" fill="#D9A1A0" stroke="black"/>
<path d="M299.1 442.322C294.791 439.141 288.743 438.646 288.743 438.646C288.743 438.646 289.467 444.671 292.81 448.856C297.708 454.989 309.046 458.192 309.046 458.192C309.046 458.192 305.414 446.984 299.1 442.322Z" fill="#D9A1A0" stroke="black"/>
<path d="M296.211 445.563C292.761 441.466 286.995 439.577 286.995 439.577C286.995 439.577 286.296 445.605 288.573 450.453C291.909 457.557 302.19 463.312 302.19 463.312C302.19 463.312 301.267 451.566 296.211 445.563Z" fill="#D9A1A0" stroke="black"/>
<path d="M286.352 421.724C285.335 426.982 287.491 432.654 287.491 432.654C287.491 432.654 292.618 429.408 294.957 424.59C298.385 417.529 296.398 405.917 296.398 405.917C296.398 405.917 287.843 414.018 286.352 421.724Z" fill="#D9A1A0" stroke="black"/>
<path d="M294.788 424.779C290.904 428.467 289.362 434.336 289.362 434.336C289.362 434.336 295.421 434.674 300.125 432.112C307.018 428.359 312.15 417.754 312.15 417.754C312.15 417.754 300.48 419.375 294.788 424.779Z" fill="#D9A1A0" stroke="black"/>
<path d="M299.329 429.819C294.274 431.591 290.461 436.312 290.461 436.312C290.461 436.312 295.849 439.104 301.189 438.696C309.016 438.099 318.044 430.53 318.044 430.53C318.044 430.53 306.736 427.224 299.329 429.819Z" fill="#D9A1A0" stroke="black"/>
<circle cx="711.226" cy="855.039" r="3.19205" fill="#7E574E"/>
<path d="M707.389 843.376C707.979 847.869 711.226 851.846 711.226 851.846C711.226 851.846 714.474 847.869 715.063 843.376C715.927 836.791 711.226 828 711.226 828C711.226 828 706.525 836.791 707.389 843.376Z" fill="#D9A1A0" stroke="black"/>
<path d="M702.381 848.615C705.949 851.409 711.053 851.973 711.053 851.973C711.053 851.973 710.585 846.86 707.859 843.24C703.863 837.935 694.35 834.953 694.35 834.953C694.35 834.953 697.152 844.52 702.381 848.615Z" fill="#D9A1A0" stroke="black"/>
<path d="M711.24 842.622C709.929 846.96 711.253 851.921 711.253 851.921C711.253 851.921 715.849 849.632 718.235 845.779C721.731 840.132 721.062 830.185 721.062 830.185C721.062 830.185 713.161 836.264 711.24 842.622Z" fill="#D9A1A0" stroke="black"/>
<path d="M720.33 847.818C716.514 850.264 714.296 854.895 714.296 854.895C714.296 854.895 719.277 856.142 723.594 854.764C729.921 852.744 735.877 844.75 735.877 844.75C735.877 844.75 725.922 844.235 720.33 847.818Z" fill="#D9A1A0" stroke="black"/>
<path d="M723.103 857.688C719.409 855.062 714.285 854.736 714.285 854.736C714.285 854.736 714.99 859.822 717.882 863.312C722.12 868.425 731.76 870.961 731.76 870.961C731.76 870.961 728.517 861.535 723.103 857.688Z" fill="#D9A1A0" stroke="black"/>
<path d="M699.564 858.876C704.057 858.286 708.034 855.039 708.034 855.039C708.034 855.039 704.057 851.791 699.564 851.201C692.979 850.338 684.188 855.039 684.188 855.039C684.188 855.039 692.979 859.739 699.564 858.876Z" fill="#D9A1A0" stroke="black"/>
<path d="M699.08 856C703.6 856.331 708.151 853.953 708.151 853.953C708.151 853.953 704.912 849.969 700.63 848.484C694.356 846.308 684.796 849.136 684.796 849.136C684.796 849.136 692.457 855.516 699.08 856Z" fill="#D9A1A0" stroke="black"/>
<path d="M700.62 861.397C705.002 860.238 708.531 856.508 708.531 856.508C708.531 856.508 704.171 853.796 699.639 853.786C692.997 853.772 684.88 859.559 684.88 859.559C684.88 859.559 694.2 863.097 700.62 861.397Z" fill="#D9A1A0" stroke="black"/>
<path d="M701.763 861.97C705.656 859.649 708.021 855.091 708.021 855.091C708.021 855.091 703.082 853.685 698.723 854.924C692.335 856.74 686.125 864.539 686.125 864.539C686.125 864.539 696.059 865.372 701.763 861.97Z" fill="#D9A1A0" stroke="black"/>
<path d="M704.339 865.403C707.81 862.489 709.415 857.611 709.415 857.611C709.415 857.611 704.316 857.013 700.211 858.933C694.195 861.748 689.313 870.439 689.313 870.439C689.313 870.439 699.253 869.673 704.339 865.403Z" fill="#D9A1A0" stroke="black"/>
<path d="M707.711 867.101C710.246 863.344 710.447 858.213 710.447 858.213C710.447 858.213 705.38 859.042 701.962 862.018C696.953 866.38 694.653 876.08 694.653 876.08C694.653 876.08 703.997 872.607 707.711 867.101Z" fill="#D9A1A0" stroke="black"/>
<path d="M702.339 863.534C706.2 861.161 708.504 856.572 708.504 856.572C708.504 856.572 703.548 855.232 699.205 856.529C692.842 858.43 686.737 866.311 686.737 866.311C686.737 866.311 696.681 867.012 702.339 863.534Z" fill="#D9A1A0" stroke="black"/>
<path d="M698.714 854.641C702.991 856.139 708.005 855.031 708.005 855.031C708.005 855.031 705.917 850.34 702.171 847.79C696.681 844.052 686.715 844.288 686.715 844.288C686.715 844.288 692.446 852.446 698.714 854.641Z" fill="#D9A1A0" stroke="black"/>
<path d="M722.889 851.201C718.395 851.791 714.418 855.039 714.418 855.039C714.418 855.039 718.395 858.286 722.889 858.876C729.474 859.74 738.265 855.039 738.265 855.039C738.265 855.039 729.474 850.338 722.889 851.201Z" fill="#D9A1A0" stroke="black"/>
<path d="M722.875 853.973C718.343 853.983 713.984 856.696 713.984 856.696C713.984 856.696 717.513 860.426 721.894 861.585C728.315 863.283 737.634 859.745 737.634 859.745C737.634 859.745 729.517 853.958 722.875 853.973Z" fill="#D9A1A0" stroke="black"/>
<path d="M722.998 856.063C718.542 855.237 713.757 857.099 713.757 857.099C713.757 857.099 716.538 861.416 720.631 863.363C726.628 866.216 736.44 864.457 736.44 864.457C736.44 864.457 729.529 857.273 722.998 856.063Z" fill="#D9A1A0" stroke="black"/>
<path d="M715.373 866.511C714.617 862.043 711.224 858.189 711.224 858.189C711.224 858.189 708.126 862.284 707.704 866.797C707.086 873.409 712.11 882.019 712.11 882.019C712.11 882.019 716.481 873.06 715.373 866.511Z" fill="#D9A1A0" stroke="black"/>
<path d="M718.044 864.623C715.816 860.677 711.315 858.205 711.315 858.205C711.315 858.205 709.792 863.108 710.928 867.496C712.592 873.925 720.243 880.317 720.243 880.317C720.243 880.317 721.311 870.405 718.044 864.623Z" fill="#D9A1A0" stroke="black"/>
<path d="M712.647 867.231C713.178 862.73 711.005 858.077 711.005 858.077C711.005 858.077 706.881 861.136 705.207 865.348C702.755 871.52 705.155 881.195 705.155 881.195C705.155 881.195 711.869 873.826 712.647 867.231Z" fill="#D9A1A0" stroke="black"/>
<path d="M710.351 867.258C711.434 862.857 709.851 857.972 709.851 857.972C709.851 857.972 705.381 860.499 703.201 864.472C700.005 870.294 701.193 880.192 701.193 880.192C701.193 880.192 708.765 873.707 710.351 867.258Z" fill="#D9A1A0" stroke="black"/>
<path d="M699.871 852.155C704.028 853.96 709.109 853.22 709.109 853.22C709.109 853.22 707.368 848.389 703.817 845.573C698.613 841.446 688.656 840.958 688.656 840.958C688.656 840.958 693.779 849.51 699.871 852.155Z" fill="#D9A1A0" stroke="black"/>
<path d="M700.712 849.918C704.576 852.287 709.71 852.264 709.71 852.264C709.71 852.264 708.662 847.238 705.541 843.953C700.966 839.138 691.175 837.261 691.175 837.261C691.175 837.261 695.05 846.446 700.712 849.918Z" fill="#D9A1A0" stroke="black"/>
<path d="M705.16 844.608C706.623 848.897 710.591 852.156 710.591 852.156C710.591 852.156 712.991 847.617 712.683 843.095C712.233 836.469 705.892 828.777 705.892 828.777C705.892 828.777 703.015 838.322 705.16 844.608Z" fill="#D9A1A0" stroke="black"/>
<path d="M703.143 845.748C705.412 849.671 709.937 852.097 709.937 852.097C709.937 852.097 711.41 847.178 710.229 842.802C708.5 836.39 700.785 830.077 700.785 830.077C700.785 830.077 699.818 839.999 703.143 845.748Z" fill="#D9A1A0" stroke="black"/>
<path d="M699.347 852.524C703.426 854.5 708.533 853.971 708.533 853.971C708.533 853.971 706.994 849.072 703.563 846.111C698.535 841.772 688.607 840.871 688.607 840.871C688.607 840.871 693.37 849.628 699.347 852.524Z" fill="#D9A1A0" stroke="black"/>
<path d="M715.197 843.838C713.013 847.81 713.279 852.938 713.279 852.938C713.279 852.938 718.25 851.653 721.384 848.379C725.976 843.581 727.388 833.713 727.388 833.713C727.388 833.713 718.397 838.019 715.197 843.838Z" fill="#D9A1A0" stroke="black"/>
<path d="M722.161 860.426C718.515 857.734 713.398 857.316 713.398 857.316C713.398 857.316 714.01 862.414 716.839 865.955C720.984 871.144 730.577 873.855 730.577 873.855C730.577 873.855 727.504 864.371 722.161 860.426Z" fill="#D9A1A0" stroke="black"/>
<path d="M722.161 860.426C718.515 857.734 713.398 857.316 713.398 857.316C713.398 857.316 714.01 862.414 716.839 865.955C720.984 871.144 730.577 873.855 730.577 873.855C730.577 873.855 727.504 864.371 722.161 860.426Z" fill="#D9A1A0" stroke="black"/>
<path d="M719.717 863.168C716.798 859.702 711.918 858.103 711.918 858.103C711.918 858.103 711.328 863.204 713.254 867.306C716.077 873.318 724.776 878.187 724.776 878.187C724.776 878.187 723.995 868.249 719.717 863.168Z" fill="#D9A1A0" stroke="black"/>
<path d="M711.375 842.997C710.514 847.446 712.339 852.246 712.339 852.246C712.339 852.246 716.677 849.499 718.656 845.422C721.557 839.448 719.875 829.622 719.875 829.622C719.875 829.622 712.637 836.476 711.375 842.997Z" fill="#D9A1A0" stroke="black"/>
<path d="M718.513 845.582C715.227 848.703 713.922 853.669 713.922 853.669C713.922 853.669 719.049 853.955 723.029 851.787C728.862 848.611 733.204 839.638 733.204 839.638C733.204 839.638 723.33 841.009 718.513 845.582Z" fill="#D9A1A0" stroke="black"/>
<path d="M722.355 849.847C718.078 851.346 714.852 855.341 714.852 855.341C714.852 855.341 719.411 857.703 723.929 857.358C730.552 856.853 738.191 850.448 738.191 850.448C738.191 850.448 728.623 847.651 722.355 849.847Z" fill="#D9A1A0" stroke="black"/>
<rect y="-10" width="1512" height="992" fill="#EAE7FA" fill-opacity="0.52"/>
<circle cx="40.3132" cy="119.842" r="8.00914" fill="#7E574E"/>
<path d="M30.6854 90.5796C32.1644 101.854 40.3132 111.833 40.3132 111.833C40.3132 111.833 48.462 101.854 49.941 90.5796C52.1083 74.0571 40.3132 52 40.3132 52C40.3132 52 28.5181 74.0571 30.6854 90.5796Z" fill="#D9A1A0" stroke="black"/>
<path d="M18.12 103.725C27.0726 110.736 39.8779 112.151 39.8779 112.151C39.8779 112.151 38.7047 99.3212 31.8632 90.2382C21.8375 76.9276 -2.03027 69.4462 -2.03027 69.4462C-2.03027 69.4462 5.00043 93.4506 18.12 103.725Z" fill="#D9A1A0" stroke="black"/>
<path d="M40.3469 88.687C37.057 99.5721 40.3796 112.019 40.3796 112.019C40.3796 112.019 51.9118 106.276 57.8978 96.6079C66.6699 82.4397 64.9922 57.4831 64.9922 57.4831C64.9922 57.4831 45.168 72.7357 40.3469 88.687Z" fill="#D9A1A0" stroke="black"/>
<path d="M63.1542 101.726C53.5797 107.861 48.0156 119.481 48.0156 119.481C48.0156 119.481 60.5128 122.611 71.3457 119.153C87.2205 114.085 102.165 94.0274 102.165 94.0274C102.165 94.0274 77.185 92.7361 63.1542 101.726Z" fill="#D9A1A0" stroke="black"/>
<path d="M70.1132 126.489C60.8443 119.901 47.9871 119.083 47.9871 119.083C47.9871 119.083 49.7555 131.845 57.0117 140.6C67.6454 153.43 91.8351 159.794 91.8351 159.794C91.8351 159.794 83.6962 136.142 70.1132 126.489Z" fill="#D9A1A0" stroke="black"/>
<path d="M11.0507 129.47C22.3254 127.991 32.3041 119.842 32.3041 119.842C32.3041 119.842 22.3254 111.693 11.0507 110.214C-5.47173 108.047 -27.5289 119.842 -27.5289 119.842C-27.5289 119.842 -5.47173 131.637 11.0507 129.47Z" fill="#D9A1A0" stroke="black"/>
<path d="M9.83809 122.255C21.1792 123.084 32.5981 117.119 32.5981 117.119C32.5981 117.119 24.471 107.122 13.7274 103.397C-2.01669 97.9366 -26.0016 105.033 -26.0016 105.033C-26.0016 105.033 -6.78155 121.041 9.83809 122.255Z" fill="#D9A1A0" stroke="black"/>
<path d="M13.702 135.797C24.6949 132.888 33.5493 123.53 33.5493 123.53C33.5493 123.53 22.6102 116.724 11.2389 116.7C-5.42504 116.664 -25.7922 131.184 -25.7922 131.184C-25.7922 131.184 -2.40744 140.06 13.702 135.797Z" fill="#D9A1A0" stroke="black"/>
<path d="M16.57 137.235C26.3362 131.41 32.2701 119.975 32.2701 119.975C32.2701 119.975 19.8796 116.446 8.94143 119.555C-7.0877 124.111 -22.6671 143.679 -22.6671 143.679C-22.6671 143.679 2.25814 145.771 16.57 137.235Z" fill="#D9A1A0" stroke="black"/>
<path d="M23.0323 145.847C31.7411 138.535 35.7694 126.298 35.7694 126.298C35.7694 126.298 22.974 124.796 12.674 129.615C-2.42002 136.676 -14.6687 158.484 -14.6687 158.484C-14.6687 158.484 10.2702 156.562 23.0323 145.847Z" fill="#D9A1A0" stroke="black"/>
<path d="M31.4942 150.108C37.8537 140.682 38.3577 127.808 38.3577 127.808C38.3577 127.808 25.6433 129.887 17.0677 137.355C4.50059 148.298 -1.2714 172.636 -1.2714 172.636C-1.2714 172.636 22.1747 163.923 31.4942 150.108Z" fill="#D9A1A0" stroke="black"/>
<path d="M18.0148 141.158C27.7026 135.204 33.4836 123.691 33.4836 123.691C33.4836 123.691 21.0472 120.327 10.1515 123.582C-5.81557 128.35 -21.133 148.125 -21.133 148.125C-21.133 148.125 3.81789 149.884 18.0148 141.158Z" fill="#D9A1A0" stroke="black"/>
<path d="M8.91819 118.845C19.6503 122.604 32.23 119.824 32.23 119.824C32.23 119.824 26.9924 108.054 17.5929 101.654C3.81854 92.2758 -21.1873 92.8693 -21.1873 92.8693C-21.1873 92.8693 -6.809 113.337 8.91819 118.845Z" fill="#D9A1A0" stroke="black"/>
<path d="M69.5758 110.214C58.301 111.693 48.3223 119.842 48.3223 119.842C48.3223 119.842 58.301 127.991 69.5758 129.47C86.0982 131.637 108.155 119.842 108.155 119.842C108.155 119.842 86.0982 108.047 69.5758 110.214Z" fill="#D9A1A0" stroke="black"/>
<path d="M69.5415 117.169C58.1702 117.195 47.2317 124.001 47.2317 124.001C47.2317 124.001 56.0867 133.359 67.0799 136.267C83.1896 140.529 106.574 131.65 106.574 131.65C106.574 131.65 86.2054 117.132 69.5415 117.169Z" fill="#D9A1A0" stroke="black"/>
<path d="M69.8507 122.412C58.6697 120.34 46.6637 125.013 46.6637 125.013C46.6637 125.013 53.6414 135.843 63.9098 140.728C78.9574 147.888 103.578 143.473 103.578 143.473C103.578 143.473 86.2358 125.448 69.8507 122.412Z" fill="#D9A1A0" stroke="black"/>
<path d="M50.7177 148.629C48.8205 137.417 40.3064 127.748 40.3064 127.748C40.3064 127.748 32.5343 138.023 31.4755 149.345C29.9239 165.936 42.5309 187.54 42.5309 187.54C42.5309 187.54 53.4978 165.059 50.7177 148.629Z" fill="#D9A1A0" stroke="black"/>
<path d="M57.4204 143.89C51.828 133.989 40.5361 127.786 40.5361 127.786C40.5361 127.786 36.7156 140.09 39.5651 151.098C43.7409 167.231 62.9358 183.268 62.9358 183.268C62.9358 183.268 65.6156 158.399 57.4204 143.89Z" fill="#D9A1A0" stroke="black"/>
<path d="M43.8785 150.433C45.2107 139.14 39.7589 127.467 39.7589 127.467C39.7589 127.467 29.4111 135.142 25.2114 145.709C19.0569 161.195 25.0805 185.472 25.0805 185.472C25.0805 185.472 41.9263 166.982 43.8785 150.433Z" fill="#D9A1A0" stroke="black"/>
<path d="M38.1177 150.502C40.8332 139.46 36.8636 127.203 36.8636 127.203C36.8636 127.203 25.6478 133.542 20.1762 143.511C12.1578 158.119 15.1396 182.953 15.1396 182.953C15.1396 182.953 34.1382 166.684 38.1177 150.502Z" fill="#D9A1A0" stroke="black"/>
<path d="M11.8212 112.608C22.2518 117.136 35.0003 115.278 35.0003 115.278C35.0003 115.278 30.6318 103.158 21.7222 96.0926C8.66571 85.7381 -16.3171 84.513 -16.3171 84.513C-16.3171 84.513 -3.46409 105.971 11.8212 112.608Z" fill="#D9A1A0" stroke="black"/>
<path d="M13.9324 106.993C23.6265 112.937 36.5096 112.882 36.5096 112.882C36.5096 112.882 33.8803 100.27 26.0472 92.0265C14.5683 79.9466 -9.99719 75.2373 -9.99719 75.2373C-9.99719 75.2373 -0.273695 98.2828 13.9324 106.993Z" fill="#D9A1A0" stroke="black"/>
<path d="M25.0913 93.67C28.7631 104.432 38.7185 112.609 38.7185 112.609C38.7185 112.609 44.7411 101.221 43.9693 89.8754C42.8382 73.2499 26.9277 53.9496 26.9277 53.9496C26.9277 53.9496 19.7105 77.8986 25.0913 93.67Z" fill="#D9A1A0" stroke="black"/>
<path d="M20.0312 96.5307C25.7241 106.374 37.0786 112.461 37.0786 112.461C37.0786 112.461 40.7735 100.119 37.812 89.1404C33.4721 73.0515 14.1148 57.2105 14.1148 57.2105C14.1148 57.2105 11.6885 82.1054 20.0312 96.5307Z" fill="#D9A1A0" stroke="black"/>
<path d="M10.508 113.533C20.7417 118.49 33.5563 117.163 33.5563 117.163C33.5563 117.163 29.6945 104.872 21.0857 97.4425C8.47005 86.5552 -16.4404 84.2946 -16.4404 84.2946C-16.4404 84.2946 -4.48878 106.267 10.508 113.533Z" fill="#D9A1A0" stroke="black"/>
<path d="M50.2756 91.74C44.7972 101.705 45.4626 114.571 45.4626 114.571C45.4626 114.571 57.936 111.347 65.7992 103.133C77.3221 91.0948 80.8633 66.334 80.8633 66.334C80.8633 66.334 58.304 77.1375 50.2756 91.74Z" fill="#D9A1A0" stroke="black"/>
<path d="M67.7502 133.361C58.602 126.606 45.7617 125.556 45.7617 125.556C45.7617 125.556 47.2989 138.347 54.3956 147.232C64.7953 160.253 88.8659 167.053 88.8659 167.053C88.8659 167.053 81.1563 143.258 67.7502 133.361Z" fill="#D9A1A0" stroke="black"/>
<path d="M67.7502 133.361C58.602 126.606 45.7617 125.556 45.7617 125.556C45.7617 125.556 47.2989 138.347 54.3956 147.232C64.7953 160.253 88.8659 167.053 88.8659 167.053C88.8659 167.053 81.1563 143.258 67.7502 133.361Z" fill="#D9A1A0" stroke="black"/>
<path d="M61.6176 140.241C54.293 131.543 42.0499 127.532 42.0499 127.532C42.0499 127.532 40.5673 140.33 45.4007 150.623C52.4837 165.706 74.3101 177.923 74.3101 177.923C74.3101 177.923 72.3514 152.987 61.6176 140.241Z" fill="#D9A1A0" stroke="black"/>
<path d="M40.6865 89.6285C38.5265 100.793 43.104 112.835 43.104 112.835C43.104 112.835 53.9888 105.943 58.9551 95.7139C66.2331 80.7233 62.0133 56.069 62.0133 56.069C62.0133 56.069 43.8519 73.268 40.6865 89.6285Z" fill="#D9A1A0" stroke="black"/>
<path d="M58.597 96.1153C50.3507 103.945 47.0767 116.405 47.0767 116.405C47.0767 116.405 59.9399 117.123 69.9267 111.685C84.5616 103.716 95.4566 81.2005 95.4566 81.2005C95.4566 81.2005 70.6815 84.6412 58.597 96.1153Z" fill="#D9A1A0" stroke="black"/>
<path d="M68.2361 106.817C57.5046 110.577 49.41 120.6 49.41 120.6C49.41 120.6 60.8482 126.528 72.1865 125.663C88.8022 124.394 107.97 108.325 107.97 108.325C107.97 108.325 83.9624 101.306 68.2361 106.817Z" fill="#D9A1A0" stroke="black"/>
<circle cx="917.642" cy="325.396" r="4.17868" fill="#7E574E"/>
<path d="M912.619 310.128C913.39 316.011 917.642 321.217 917.642 321.217C917.642 321.217 921.893 316.011 922.665 310.128C923.796 301.508 917.642 290 917.642 290C917.642 290 911.488 301.508 912.619 310.128Z" fill="#D9A1A0" stroke="black"/>
<path d="M906.063 316.987C910.734 320.645 917.415 321.383 917.415 321.383C917.415 321.383 916.802 314.689 913.233 309.95C908.002 303.006 895.549 299.102 895.549 299.102C895.549 299.102 899.218 311.626 906.063 316.987Z" fill="#D9A1A0" stroke="black"/>
<path d="M917.659 309.141C915.943 314.82 917.676 321.314 917.676 321.314C917.676 321.314 923.693 318.318 926.816 313.274C931.393 305.882 930.518 292.861 930.518 292.861C930.518 292.861 920.175 300.819 917.659 309.141Z" fill="#D9A1A0" stroke="black"/>
<path d="M929.559 315.944C924.563 319.145 921.66 325.207 921.66 325.207C921.66 325.207 928.181 326.84 933.833 325.036C942.115 322.392 949.912 311.927 949.912 311.927C949.912 311.927 936.879 311.254 929.559 315.944Z" fill="#D9A1A0" stroke="black"/>
<path d="M933.19 328.864C928.354 325.427 921.645 325 921.645 325C921.645 325 922.568 331.658 926.354 336.226C931.902 342.92 944.523 346.24 944.523 346.24C944.523 346.24 940.276 333.9 933.19 328.864Z" fill="#D9A1A0" stroke="black"/>
<path d="M902.374 330.419C908.257 329.647 913.463 325.396 913.463 325.396C913.463 325.396 908.257 321.144 902.374 320.373C893.754 319.242 882.246 325.396 882.246 325.396C882.246 325.396 893.754 331.55 902.374 330.419Z" fill="#D9A1A0" stroke="black"/>
<path d="M901.742 326.655C907.659 327.087 913.616 323.975 913.616 323.975C913.616 323.975 909.376 318.759 903.771 316.816C895.557 313.967 883.043 317.67 883.043 317.67C883.043 317.67 893.071 326.021 901.742 326.655Z" fill="#D9A1A0" stroke="black"/>
<path d="M903.758 333.72C909.493 332.203 914.113 327.32 914.113 327.32C914.113 327.32 908.405 323.769 902.472 323.756C893.778 323.738 883.152 331.313 883.152 331.313C883.152 331.313 895.353 335.945 903.758 333.72Z" fill="#D9A1A0" stroke="black"/>
<path d="M905.254 334.47C910.349 331.431 913.445 325.465 913.445 325.465C913.445 325.465 906.981 323.624 901.274 325.246C892.911 327.623 884.782 337.833 884.782 337.833C884.782 337.833 897.787 338.924 905.254 334.47Z" fill="#D9A1A0" stroke="black"/>
<path d="M908.626 338.964C913.169 335.149 915.271 328.764 915.271 328.764C915.271 328.764 908.595 327.981 903.221 330.495C895.346 334.179 888.955 345.557 888.955 345.557C888.955 345.557 901.967 344.554 908.626 338.964Z" fill="#D9A1A0" stroke="black"/>
<path d="M913.04 341.187C916.358 336.269 916.621 329.552 916.621 329.552C916.621 329.552 909.988 330.637 905.514 334.533C898.957 340.243 895.945 352.941 895.945 352.941C895.945 352.941 908.178 348.395 913.04 341.187Z" fill="#D9A1A0" stroke="black"/>
<path d="M906.008 336.517C911.062 333.411 914.078 327.404 914.078 327.404C914.078 327.404 907.59 325.649 901.905 327.347C893.574 329.835 885.583 340.152 885.583 340.152C885.583 340.152 898.601 341.07 906.008 336.517Z" fill="#D9A1A0" stroke="black"/>
<path d="M901.262 324.876C906.861 326.837 913.424 325.387 913.424 325.387C913.424 325.387 910.692 319.246 905.788 315.907C898.601 311.013 885.554 311.323 885.554 311.323C885.554 311.323 893.056 322.002 901.262 324.876Z" fill="#D9A1A0" stroke="black"/>
<path d="M932.909 320.373C927.027 321.144 921.82 325.396 921.82 325.396C921.82 325.396 927.027 329.647 932.909 330.419C941.53 331.55 953.038 325.396 953.038 325.396C953.038 325.396 941.53 319.242 932.909 320.373Z" fill="#D9A1A0" stroke="black"/>
<path d="M932.891 324.001C926.958 324.015 921.251 327.566 921.251 327.566C921.251 327.566 925.871 332.448 931.607 333.965C940.012 336.189 952.212 331.557 952.212 331.557C952.212 331.557 941.585 323.982 932.891 324.001Z" fill="#D9A1A0" stroke="black"/>
<path d="M933.053 326.737C927.219 325.656 920.955 328.094 920.955 328.094C920.955 328.094 924.596 333.744 929.953 336.293C937.804 340.028 950.649 337.725 950.649 337.725C950.649 337.725 941.601 328.321 933.053 326.737Z" fill="#D9A1A0" stroke="black"/>
<path d="M923.07 340.415C922.08 334.565 917.638 329.521 917.638 329.521C917.638 329.521 913.583 334.881 913.031 340.789C912.221 349.445 918.799 360.716 918.799 360.716C918.799 360.716 924.521 348.987 923.07 340.415Z" fill="#D9A1A0" stroke="black"/>
<path d="M926.567 337.942C923.649 332.777 917.758 329.541 917.758 329.541C917.758 329.541 915.765 335.96 917.251 341.704C919.43 350.12 929.445 358.488 929.445 358.488C929.445 358.488 930.843 345.513 926.567 337.942Z" fill="#D9A1A0" stroke="black"/>
<path d="M919.502 341.356C920.197 335.464 917.352 329.374 917.352 329.374C917.352 329.374 911.954 333.378 909.762 338.892C906.551 346.971 909.694 359.637 909.694 359.637C909.694 359.637 918.483 349.991 919.502 341.356Z" fill="#D9A1A0" stroke="black"/>
<path d="M916.496 341.392C917.913 335.631 915.842 329.237 915.842 329.237C915.842 329.237 909.99 332.544 907.135 337.745C902.952 345.366 904.508 358.323 904.508 358.323C904.508 358.323 914.42 349.835 916.496 341.392Z" fill="#D9A1A0" stroke="black"/>
<path d="M902.776 321.621C908.218 323.984 914.87 323.015 914.87 323.015C914.87 323.015 912.591 316.691 907.942 313.005C901.13 307.602 888.095 306.963 888.095 306.963C888.095 306.963 894.801 318.159 902.776 321.621Z" fill="#D9A1A0" stroke="black"/>
<path d="M903.878 318.692C908.936 321.793 915.657 321.764 915.657 321.764C915.657 321.764 914.285 315.184 910.199 310.883C904.21 304.581 891.393 302.124 891.393 302.124C891.393 302.124 896.466 314.148 903.878 318.692Z" fill="#D9A1A0" stroke="black"/>
<path d="M909.7 311.741C911.616 317.356 916.81 321.622 916.81 321.622C916.81 321.622 919.952 315.68 919.549 309.761C918.959 301.087 910.658 291.017 910.658 291.017C910.658 291.017 906.892 303.512 909.7 311.741Z" fill="#D9A1A0" stroke="black"/>
<path d="M907.06 313.233C910.03 318.369 915.954 321.545 915.954 321.545C915.954 321.545 917.882 315.106 916.337 309.378C914.072 300.983 903.973 292.719 903.973 292.719C903.973 292.719 902.707 305.707 907.06 313.233Z" fill="#D9A1A0" stroke="black"/>
<path d="M902.091 322.104C907.43 324.691 914.116 323.998 914.116 323.998C914.116 323.998 912.101 317.585 907.61 313.709C901.028 308.029 888.031 306.849 888.031 306.849C888.031 306.849 894.267 318.313 902.091 322.104Z" fill="#D9A1A0" stroke="black"/>
<path d="M922.839 310.734C919.981 315.933 920.328 322.646 920.328 322.646C920.328 322.646 926.836 320.964 930.939 316.678C936.951 310.397 938.798 297.479 938.798 297.479C938.798 297.479 927.028 303.115 922.839 310.734Z" fill="#D9A1A0" stroke="black"/>
<path d="M931.957 332.449C927.184 328.925 920.484 328.377 920.484 328.377C920.484 328.377 921.286 335.051 924.989 339.687C930.415 346.48 942.974 350.028 942.974 350.028C942.974 350.028 938.951 337.613 931.957 332.449Z" fill="#D9A1A0" stroke="black"/>
<path d="M931.957 332.449C927.184 328.925 920.484 328.377 920.484 328.377C920.484 328.377 921.286 335.051 924.989 339.687C930.415 346.48 942.974 350.028 942.974 350.028C942.974 350.028 938.951 337.613 931.957 332.449Z" fill="#D9A1A0" stroke="black"/>
<path d="M928.757 336.039C924.935 331.5 918.548 329.408 918.548 329.408C918.548 329.408 917.774 336.085 920.296 341.455C923.992 349.325 935.379 355.699 935.379 355.699C935.379 355.699 934.357 342.689 928.757 336.039Z" fill="#D9A1A0" stroke="black"/>
<path d="M917.836 309.632C916.71 315.457 919.098 321.74 919.098 321.74C919.098 321.74 924.777 318.144 927.368 312.807C931.165 304.986 928.964 292.123 928.964 292.123C928.964 292.123 919.488 301.096 917.836 309.632Z" fill="#D9A1A0" stroke="black"/>
<path d="M927.181 313.017C922.879 317.102 921.17 323.603 921.17 323.603C921.17 323.603 927.882 323.977 933.092 321.14C940.728 316.982 946.412 305.235 946.412 305.235C946.412 305.235 933.486 307.03 927.181 313.017Z" fill="#D9A1A0" stroke="black"/>
<path d="M932.21 318.6C926.611 320.562 922.388 325.791 922.388 325.791C922.388 325.791 928.356 328.884 934.271 328.433C942.94 327.771 952.941 319.387 952.941 319.387C952.941 319.387 940.415 315.725 932.21 318.6Z" fill="#D9A1A0" stroke="black"/>
<circle cx="85.2263" cy="879.039" r="3.19205" fill="#7E574E"/>
<path d="M81.3892 867.376C81.9786 871.869 85.2263 875.846 85.2263 875.846C85.2263 875.846 88.474 871.869 89.0635 867.376C89.9273 860.791 85.2263 852 85.2263 852C85.2263 852 80.5254 860.791 81.3892 867.376Z" fill="#D9A1A0" stroke="black"/>
<path d="M76.3812 872.615C79.9493 875.409 85.0528 875.973 85.0528 875.973C85.0528 875.973 84.5852 870.86 81.8586 867.24C77.8628 861.935 68.3503 858.953 68.3503 858.953C68.3503 858.953 71.1524 868.52 76.3812 872.615Z" fill="#D9A1A0" stroke="black"/>
<path d="M85.2397 866.622C83.9285 870.96 85.2528 875.921 85.2528 875.921C85.2528 875.921 89.8489 873.632 92.2346 869.779C95.7308 864.132 95.0621 854.185 95.0621 854.185C95.0621 854.185 87.1612 860.264 85.2397 866.622Z" fill="#D9A1A0" stroke="black"/>
<path d="M94.3296 871.818C90.5137 874.264 88.2961 878.895 88.2961 878.895C88.2961 878.895 93.2769 880.142 97.5943 878.764C103.921 876.744 109.877 868.75 109.877 868.75C109.877 868.75 99.9216 868.235 94.3296 871.818Z" fill="#D9A1A0" stroke="black"/>
<path d="M97.1031 881.688C93.409 879.062 88.2847 878.736 88.2847 878.736C88.2847 878.736 88.9895 883.822 91.8815 887.312C96.1195 892.425 105.76 894.961 105.76 894.961C105.76 894.961 102.517 885.535 97.1031 881.688Z" fill="#D9A1A0" stroke="black"/>
<path d="M73.5637 882.876C78.0572 882.286 82.0342 879.039 82.0342 879.039C82.0342 879.039 78.0572 875.791 73.5637 875.201C66.9786 874.338 58.1877 879.039 58.1877 879.039C58.1877 879.039 66.9786 883.739 73.5637 882.876Z" fill="#D9A1A0" stroke="black"/>
<path d="M73.0804 880C77.6004 880.331 82.1514 877.953 82.1514 877.953C82.1514 877.953 78.9124 873.969 74.6305 872.484C68.3557 870.308 58.7964 873.136 58.7964 873.136C58.7964 873.136 66.4566 879.516 73.0804 880Z" fill="#D9A1A0" stroke="black"/>
<path d="M74.6204 885.397C79.0016 884.238 82.5305 880.508 82.5305 880.508C82.5305 880.508 78.1708 877.796 73.6387 877.786C66.9973 877.772 58.8799 883.559 58.8799 883.559C58.8799 883.559 68.2 887.097 74.6204 885.397Z" fill="#D9A1A0" stroke="black"/>
<path d="M75.7634 885.97C79.6558 883.649 82.0207 879.091 82.0207 879.091C82.0207 879.091 77.0825 877.685 72.7231 878.924C66.3346 880.74 60.1255 888.539 60.1255 888.539C60.1255 888.539 70.0594 889.372 75.7634 885.97Z" fill="#D9A1A0" stroke="black"/>
<path d="M78.339 889.403C81.8099 886.489 83.4154 881.611 83.4154 881.611C83.4154 881.611 78.3157 881.013 74.2107 882.933C68.1949 885.748 63.3132 894.439 63.3132 894.439C63.3132 894.439 73.2526 893.673 78.339 889.403Z" fill="#D9A1A0" stroke="black"/>
<path d="M81.7114 891.101C84.246 887.344 84.4469 882.213 84.4469 882.213C84.4469 882.213 79.3796 883.042 75.9617 886.018C70.9531 890.38 68.6527 900.08 68.6527 900.08C68.6527 900.08 77.9972 896.607 81.7114 891.101Z" fill="#D9A1A0" stroke="black"/>
<path d="M76.3393 887.534C80.2003 885.161 82.5044 880.572 82.5044 880.572C82.5044 880.572 77.5478 879.232 73.2053 880.529C66.8416 882.43 60.7369 890.311 60.7369 890.311C60.7369 890.311 70.6811 891.012 76.3393 887.534Z" fill="#D9A1A0" stroke="black"/>
<path d="M72.7138 878.641C76.9911 880.139 82.0048 879.031 82.0048 879.031C82.0048 879.031 79.9173 874.34 76.1711 871.79C70.6813 868.052 60.7152 868.288 60.7152 868.288C60.7152 868.288 66.4457 876.446 72.7138 878.641Z" fill="#D9A1A0" stroke="black"/>
<path d="M96.8889 875.201C92.3954 875.791 88.4183 879.039 88.4183 879.039C88.4183 879.039 92.3954 882.286 96.8889 882.876C103.474 883.74 112.265 879.039 112.265 879.039C112.265 879.039 103.474 874.338 96.8889 875.201Z" fill="#D9A1A0" stroke="black"/>
<path d="M96.8752 877.973C92.3432 877.983 87.9836 880.696 87.9836 880.696C87.9836 880.696 91.5128 884.426 95.8942 885.585C102.315 887.283 111.634 883.745 111.634 883.745C111.634 883.745 103.517 877.958 96.8752 877.973Z" fill="#D9A1A0" stroke="black"/>
<path d="M96.9985 880.063C92.5423 879.237 87.7573 881.099 87.7573 881.099C87.7573 881.099 90.5383 885.416 94.6307 887.363C100.628 890.216 110.44 888.457 110.44 888.457C110.44 888.457 103.529 881.273 96.9985 880.063Z" fill="#D9A1A0" stroke="black"/>
<path d="M89.373 890.511C88.6169 886.043 85.2236 882.189 85.2236 882.189C85.2236 882.189 82.126 886.284 81.704 890.797C81.0856 897.409 86.1101 906.019 86.1101 906.019C86.1101 906.019 90.481 897.06 89.373 890.511Z" fill="#D9A1A0" stroke="black"/>
<path d="M92.0444 888.623C89.8155 884.677 85.3151 882.205 85.3151 882.205C85.3151 882.205 83.7925 887.108 84.9281 891.496C86.5924 897.925 94.2426 904.317 94.2426 904.317C94.2426 904.317 95.3106 894.405 92.0444 888.623Z" fill="#D9A1A0" stroke="black"/>
<path d="M86.6472 891.231C87.1782 886.73 85.0054 882.077 85.0054 882.077C85.0054 882.077 80.8813 885.136 79.2075 889.348C76.7546 895.52 79.1553 905.195 79.1553 905.195C79.1553 905.195 85.8692 897.826 86.6472 891.231Z" fill="#D9A1A0" stroke="black"/>
<path d="M84.3513 891.258C85.4335 886.857 83.8514 881.972 83.8514 881.972C83.8514 881.972 79.3814 884.499 77.2007 888.472C74.0049 894.294 75.1933 904.192 75.1933 904.192C75.1933 904.192 82.7653 897.707 84.3513 891.258Z" fill="#D9A1A0" stroke="black"/>
<path d="M73.8708 876.155C78.0279 877.96 83.1088 877.22 83.1088 877.22C83.1088 877.22 81.3678 872.389 77.8168 869.573C72.6132 865.446 62.6562 864.958 62.6562 864.958C62.6562 864.958 67.7788 873.51 73.8708 876.155Z" fill="#D9A1A0" stroke="black"/>
<path d="M74.7122 873.918C78.5758 876.287 83.7103 876.264 83.7103 876.264C83.7103 876.264 82.6624 871.238 79.5405 867.953C74.9656 863.138 65.175 861.261 65.175 861.261C65.175 861.261 69.0503 870.446 74.7122 873.918Z" fill="#D9A1A0" stroke="black"/>
<path d="M79.1596 868.608C80.623 872.897 84.5907 876.156 84.5907 876.156C84.5907 876.156 86.991 871.617 86.6834 867.095C86.2326 860.469 79.8915 852.777 79.8915 852.777C79.8915 852.777 77.0151 862.322 79.1596 868.608Z" fill="#D9A1A0" stroke="black"/>
<path d="M77.1429 869.748C79.4118 873.671 83.9372 876.097 83.9372 876.097C83.9372 876.097 85.4098 871.178 84.2294 866.802C82.4998 860.39 74.7849 854.077 74.7849 854.077C74.7849 854.077 73.8179 863.999 77.1429 869.748Z" fill="#D9A1A0" stroke="black"/>
<path d="M73.3474 876.524C77.426 878.5 82.5333 877.971 82.5333 877.971C82.5333 877.971 80.9942 873.072 77.5631 870.111C72.5351 865.772 62.6071 864.871 62.6071 864.871C62.6071 864.871 67.3704 873.628 73.3474 876.524Z" fill="#D9A1A0" stroke="black"/>
<path d="M89.1968 867.838C87.0134 871.81 87.2786 876.938 87.2786 876.938C87.2786 876.938 92.2499 875.653 95.3837 872.379C99.9762 867.581 101.388 857.713 101.388 857.713C101.388 857.713 92.3965 862.019 89.1968 867.838Z" fill="#D9A1A0" stroke="black"/>
<path d="M96.1613 884.426C92.5153 881.734 87.3978 881.316 87.3978 881.316C87.3978 881.316 88.0104 886.414 90.8388 889.955C94.9836 895.144 104.577 897.855 104.577 897.855C104.577 897.855 101.504 888.371 96.1613 884.426Z" fill="#D9A1A0" stroke="black"/>
<path d="M96.1613 884.426C92.5153 881.734 87.3978 881.316 87.3978 881.316C87.3978 881.316 88.0104 886.414 90.8388 889.955C94.9836 895.144 104.577 897.855 104.577 897.855C104.577 897.855 101.504 888.371 96.1613 884.426Z" fill="#D9A1A0" stroke="black"/>
<path d="M93.7172 887.168C90.7979 883.702 85.9185 882.103 85.9185 882.103C85.9185 882.103 85.3275 887.204 87.2539 891.306C90.0769 897.318 98.7758 902.187 98.7758 902.187C98.7758 902.187 97.9951 892.249 93.7172 887.168Z" fill="#D9A1A0" stroke="black"/>
<path d="M85.3751 866.997C84.5142 871.446 86.3386 876.246 86.3386 876.246C86.3386 876.246 90.6767 873.499 92.6561 869.422C95.5567 863.448 93.8749 853.622 93.8749 853.622C93.8749 853.622 86.6366 860.476 85.3751 866.997Z" fill="#D9A1A0" stroke="black"/>
<path d="M92.5133 869.582C89.2267 872.703 87.9219 877.669 87.9219 877.669C87.9219 877.669 93.0485 877.955 97.0288 875.787C102.862 872.611 107.204 863.638 107.204 863.638C107.204 863.638 97.3296 865.009 92.5133 869.582Z" fill="#D9A1A0" stroke="black"/>
<path d="M96.355 873.847C92.0779 875.346 88.8518 879.341 88.8518 879.341C88.8518 879.341 93.4105 881.703 97.9294 881.358C104.552 880.853 112.191 874.448 112.191 874.448C112.191 874.448 102.623 871.651 96.355 873.847Z" fill="#D9A1A0" stroke="black"/>
<rect y="-10" width="1512" height="992" fill="#EAE7FA" fill-opacity="0.78"/>
</g>
<defs>
<clipPath id="clip0_2_2">
<rect width="1512" height="982" fill="white"/>
</clipPath>
</defs>
</svg>
