<?xml version="1.0" encoding="UTF-8"?>
<!DOCTYPE svg PUBLIC "-//W3C//DTD SVG 1.1//EN" "http://www.w3.org/Graphics/SVG/1.1/DTD/svg11.dtd">
<!-- Creator: CorelDRAW 2018 (64-Bit Evaluation Version) -->
<svg xmlns="http://www.w3.org/2000/svg" xml:space="preserve" width="0.419866in" height="0.402378in" version="1.1" style="shape-rendering:geometricPrecision; text-rendering:geometricPrecision; image-rendering:optimizeQuality; fill-rule:evenodd; clip-rule:evenodd"
viewBox="0 0 6.49 6.22"
 xmlns:xlink="http://www.w3.org/1999/xlink"
 enable-background="new 0 0 24 24">
 <defs>
  <style type="text/css">
   <![CDATA[
    .fil0 {fill:#FF9933}
   ]]>
  </style>
 </defs>
 <g id="Layer_x0020_1">
  <metadata id="CorelCorpID_0Corel-Layer"/>
  <g id="_2269442439248">
   <path class="fil0" d="M3.24 0c-1.79,0 -3.24,1.43 -3.24,3.19 0,1.41 0.93,2.6 2.22,3.02 0.16,0.03 0.22,-0.07 0.22,-0.15 0,-0.08 -0,-0.28 -0,-0.54 -0.9,0.19 -1.09,-0.43 -1.09,-0.43 -0.15,-0.37 -0.36,-0.47 -0.36,-0.47 -0.29,-0.2 0.02,-0.19 0.02,-0.19 0.33,0.02 0.5,0.33 0.5,0.33 0.29,0.49 0.76,0.35 0.94,0.27 0.03,-0.21 0.11,-0.35 0.21,-0.43 -0.72,-0.08 -1.48,-0.35 -1.48,-1.58 0,-0.35 0.13,-0.63 0.33,-0.86 -0.04,-0.08 -0.15,-0.4 0.03,-0.84 0,0 0.27,-0.09 0.89,0.33 0.26,-0.07 0.54,-0.11 0.81,-0.11 0.28,0 0.55,0.04 0.81,0.11 0.62,-0.41 0.89,-0.33 0.89,-0.33 0.17,0.44 0.06,0.76 0.03,0.84 0.21,0.22 0.33,0.51 0.33,0.86 0,1.22 -0.76,1.49 -1.48,1.57 0.11,0.1 0.22,0.29 0.22,0.59 0,0.43 -0,0.77 -0,0.87 0,0.08 0.06,0.18 0.22,0.15 1.3,-0.42 2.23,-1.61 2.23,-3.02 0,-1.76 -1.45,-3.19 -3.24,-3.19l0 0z"/>
  </g>
 </g>
</svg>
