<?xml version="1.0" encoding="UTF-8"?>
<!DOCTYPE svg PUBLIC "-//W3C//DTD SVG 1.1//EN" "http://www.w3.org/Graphics/SVG/1.1/DTD/svg11.dtd">
<!-- Creator: CorelDRAW 2018 (64-Bit Evaluation Version) -->
<svg xmlns="http://www.w3.org/2000/svg" xml:space="preserve" width="0.419866in" height="0.419866in" version="1.1" style="shape-rendering:geometricPrecision; text-rendering:geometricPrecision; image-rendering:optimizeQuality; fill-rule:evenodd; clip-rule:evenodd"
viewBox="0 0 6.19 6.19"
 xmlns:xlink="http://www.w3.org/1999/xlink">
 <defs>
  <style type="text/css">
   <![CDATA[
    .fil1 {fill:#66FFCC}
    .fil0 {fill:#FF9933}
   ]]>
  </style>
 </defs>
 <g id="Layer_x0020_1">
  <metadata id="CorelCorpID_0Corel-Layer"/>
  <path class="fil0" d="M4.74 6.19l-3.29 0c-0.8,0 -1.45,-0.65 -1.45,-1.45l0 -3.29c0,-0.8 0.65,-1.45 1.45,-1.45l3.29 0c0.8,0 1.45,0.65 1.45,1.45l0 3.29c0,0.8 -0.65,1.45 -1.45,1.45l0 0zm-3.29 -5.71c-0.53,0 -0.97,0.43 -0.97,0.97l0 3.29c0,0.53 0.43,0.97 0.97,0.97l3.29 0c0.53,0 0.97,-0.43 0.97,-0.97l0 -3.29c0,-0.53 -0.43,-0.97 -0.97,-0.97l-3.29 0zm3.35 0.6c-0.17,0 -0.3,0.14 -0.3,0.3 0,0.17 0.14,0.3 0.3,0.3 0.17,0 0.3,-0.14 0.3,-0.3 0,-0.17 -0.14,-0.3 -0.3,-0.3z"/>
  <path class="fil1" d="M3.1 4.67c-0.87,0 -1.57,-0.71 -1.57,-1.57 0,-0.87 0.71,-1.57 1.57,-1.57 0.87,0 1.57,0.71 1.57,1.57 0,0.87 -0.71,1.57 -1.57,1.57zm0 -2.66c-0.6,0 -1.09,0.49 -1.09,1.09 0,0.6 0.49,1.09 1.09,1.09 0.6,0 1.09,-0.49 1.09,-1.09 0,-0.6 -0.49,-1.09 -1.09,-1.09z"/>
 </g>
</svg>
