<?xml version="1.0" encoding="UTF-8"?>
<!DOCTYPE svg PUBLIC "-//W3C//DTD SVG 1.1//EN" "http://www.w3.org/Graphics/SVG/1.1/DTD/svg11.dtd">
<!-- Creator: CorelDRAW 2018 (64-Bit Evaluation Version) -->
<svg xmlns="http://www.w3.org/2000/svg" xml:space="preserve" width="6in" height="6in" version="1.1" style="shape-rendering:geometricPrecision; text-rendering:geometricPrecision; image-rendering:optimizeQuality; fill-rule:evenodd; clip-rule:evenodd"
viewBox="0 0 8813.29 8813.3"
 xmlns:xlink="http://www.w3.org/1999/xlink">
 <defs>
  <style type="text/css">
   
    .fil4 {fill:none}
    .fil0 {fill:black}
    .fil2 {fill:#66FFCC}
    .fil1 {fill:#FF9933}
    .fil3 {fill:#66FFCC;fill-rule:nonzero}
    
    .dots{
        animation: grow 3s infinite;
        transform-origin: 1550px 1250px;        
    }

    .dots1{
        animation: grow 3s infinite;
        transform-origin: 8050px 5550px;        
    }

    .circle{
        animation: grow 3s infinite;
        transform-origin: 6750px 1550px;        
    }

    .star{
        animation: grow 3s infinite;
        transform-origin: 4950px 7550px;        
    }

    .loader{
        animation: grow 3s infinite;
        transform-origin: 1150px 3450px;        
    }

    .dots, .circle, .star {
        animation-delay: 1.5s;
    }

    @keyframes grow {
        0%, 100% {
        transform: scale(0);
        opacity: 0;
        }

        50% {
        transform: scale(1);
        opacity: 1;
        }
    }

  </style>
 </defs>
 <g id="Layer_x0020_1">
  <metadata id="CorelCorpID_0Corel-Layer"/>
  <g id="_2078688012784">
   <path class="fil0" d="M6571.65 2939.12c-30.27,61.29 -67.19,118.14 -110.02,170.56l-107.07 150.63 102.64 0c142.5,0 258.43,115.93 258.43,258.43l0 2545.92c0,141.77 -115.93,257.7 -258.43,257.7l-4157.81 0c-142.5,0 -257.7,-115.93 -257.7,-257.7l0 -2545.92c0,-142.5 115.19,-258.43 257.7,-258.43l1515.89 0 325.62 -332.27 -1841.51 0c-325.62,0 -590.7,265.08 -590.7,590.7l0 2545.92c0,325.62 265.08,589.96 590.7,589.96l1912.4 0 0 516.13 -1103.13 0 0 333.01 2539.28 0 0 -333.01 -1103.14 0 0 -516.13 1912.4 0c325.62,0 590.7,-264.34 590.7,-589.96l0 -2545.92c0,-282.8 -202.32,-525.73 -476.25,-579.63l-0.01 0z"/>
   <path class="fil0" d="M2732.09 5807.72l320.46 0c31.01,0 62.02,-0.74 94.51,-1.47l2839.8 0 0 -332.27 -1685.72 0 97.47 -81.22c74.58,-61.29 142.5,-128.48 207.48,-199.36 165.4,-179.42 244.4,-420.13 220.04,-662.32l-1.47 -16.98 1228.66 -1720.42 1.47 -1.47c62.76,-72.36 95.25,-165.4 91.56,-261.39 -4.43,-101.16 -47.26,-194.93 -121.83,-263.6 -73.84,-67.93 -171.3,-104.11 -271.73,-100.42 -100.42,3.69 -192.72,46.52 -262.13,119.62l-1450.91 1482.66 -20.67 -0.74c-21.41,-0.74 -43.56,-0.74 -65.72,0 -226.68,8.86 -434.9,105.59 -588.48,271.73 -217.08,236.28 -241.45,470.35 -248.83,773.82 -7.38,284.27 -28.06,488.07 -199.36,731.73l-184.59 262.13 0.01 0z"/>
   <path class="fil1" d="M5794.14 2584.7l-1108.31 1552.07 -38.39 -47.99c-26.58,-33.96 -55.38,-65.72 -87.13,-95.25 -34.7,-32.49 -72.36,-61.29 -112.24,-87.87l-46.52 -30.27 1333.51 -1363.05 265.08 -149.16 -206.01 221.51 0 0.01z"/>
   <path class="fil2" d="M3367.09 5392.01c65.72,-191.98 76.05,-369.93 81.22,-569.29 5.17,-217.08 6.64,-389.12 160.96,-557.47 93.04,-100.42 220.04,-159.49 356.63,-164.66 135.86,-5.9 268.77,44.3 367.71,136.6 208.22,193.45 220.78,522.03 28.06,730.99 -268.03,291.66 -550.82,430.47 -945.12,484.38l-73.84 9.6 24.36 -70.15 0.01 0z"/>
   <path class="fil3 loader" d="M1529.26 3647.23c-0.74,-34.7 -4.43,-69.41 -11.81,-103.37 -7.38,-34.7 -18.46,-67.93 -33.23,-98.94 -13.29,-31.75 -30.27,-62.02 -50.21,-90.82 -19.93,-28.8 -42.09,-54.64 -67.19,-78.27 -25.1,-24.36 -51.69,-45.78 -80.48,-64.24 -29.53,-18.46 -59.81,-33.96 -92.3,-46.52 -31.01,-12.55 -63.5,-22.15 -97.47,-28.06 -33.96,-5.9 -67.93,-8.12 -101.9,-7.38 -33.96,0.74 -67.93,4.43 -100.42,11.81 -33.23,7.38 -65.72,17.72 -95.99,31.01 -31.01,14.03 -60.55,30.27 -88.61,49.47 -27.32,19.2 -52.42,40.61 -75.31,64.98 -22.89,23.63 -43.56,50.21 -61.29,78.27 -18.46,28.06 -33.23,57.59 -45.04,89.34 -12.55,30.27 -22.15,62.02 -27.32,94.51 -5.9,33.23 -8.12,65.72 -7.38,98.21 0.74,33.23 4.43,64.98 11.81,97.47 6.64,31.75 16.98,62.76 30.27,93.04 12.55,29.53 28.8,58.33 47.99,84.91 18.46,26.58 39.13,51.69 62.76,73.84 23.63,22.15 48.73,42.09 76.05,59.07 27.32,17.72 55.38,31.75 85.65,42.82 29.53,12.55 60.55,20.67 91.56,26.58 31.75,5.17 63.5,8.12 95.25,7.38 31.75,-0.74 63.5,-5.17 94.51,-11.81 31.01,-6.64 60.55,-16.98 89.34,-29.53 28.06,-11.81 56.12,-27.32 81.96,-45.78 25.84,-17.72 49.47,-38.39 70.88,-61.29 21.41,-22.15 40.61,-46.52 57.59,-73.1 16.98,-26.58 31.01,-53.9 42.09,-82.7 6.64,-17.72 11.81,-35.44 16.98,-53.16 4.43,-18.46 8.12,-36.92 10.34,-55.38 0.74,0 1.47,0 2.21,0 0.74,0 1.47,0 2.21,0 18.46,0 34.7,-6.64 47.26,-19.2 13.29,-13.29 19.2,-28.8 19.2,-47.99 0,-0.74 0,-1.47 0,-2.21 0,-0.74 0,-2.21 0,-2.96l0 0 0.01 -0.01zm-106.33 177.95c-11.81,27.32 -26.58,53.9 -44.3,79.01 -17.72,24.36 -37.66,47.26 -59.07,67.93 -21.41,20.67 -45.04,39.87 -70.88,55.38 -25.1,16.24 -51.69,29.53 -79.75,40.61 -28.06,11.07 -56.12,18.46 -86.39,23.63 -29.53,5.17 -58.33,7.38 -87.87,6.64 -29.53,-0.74 -58.33,-3.69 -87.13,-10.34 -28.8,-5.9 -56.85,-14.77 -84.18,-27.32 -26.58,-11.81 -51.69,-25.84 -76.05,-42.82 -23.63,-16.98 -45.78,-36.18 -65.72,-56.85 -20.67,-20.67 -38.39,-43.56 -53.9,-68.67 -14.77,-24.36 -28.06,-50.21 -38.39,-76.79 -10.34,-27.32 -17.72,-54.64 -22.89,-82.7 -5.17,-28.8 -6.64,-56.85 -5.9,-85.65 0,-28.06 3.69,-56.12 10.34,-84.18 5.9,-28.06 14.77,-54.64 25.84,-80.48 11.81,-25.84 25.84,-50.21 42.09,-73.1 15.5,-22.89 33.96,-44.3 53.9,-63.5 21.41,-19.2 42.82,-36.18 66.45,-50.95 23.63,-14.77 47.99,-27.32 73.84,-36.92 25.84,-10.34 52.42,-18.46 79.75,-22.89 27.32,-4.43 54.64,-5.9 81.96,-5.9 27.32,0.74 53.9,4.43 81.22,10.34 26.58,5.9 52.42,14.77 77.53,25.84 24.36,11.07 47.99,24.36 70.15,39.87 22.15,15.5 42.09,33.23 60.55,53.16 18.46,19.2 35.44,39.87 49.47,62.76 14.03,22.89 26.58,46.52 36.18,71.62 8.86,24.36 15.5,49.47 19.93,76.05 4.43,25.84 6.64,52.42 5.9,78.27l0 0c0,0.74 0,2.21 0,2.96 0,0.74 0,1.47 0,2.21 0,17.72 5.9,32.49 17.72,45.04 11.07,12.55 25.1,19.93 42.09,22.15 -3.69,18.46 -8.12,36.18 -13.29,53.9 -5.17,17.72 -11.81,34.7 -19.2,51.69l-0.01 -0.02z"/>
   <path class="fil3 star" d="M5209.34 7500.08l-213.39 -31.01 -95.25 -193.45 -95.25 193.45 -213.39 31.01 154.32 150.63 -36.18 212.65 190.5 -100.42 190.5 100.42 -36.18 -212.65 154.32 -150.63zm-308.64 214.87l-134.39 70.88 25.1 -149.89 -108.54 -106.33 150.63 -21.41 67.19 -137.34 67.93 137.34 150.63 21.41 -109.28 106.33 25.1 149.89 -134.39 -70.88z"/>
   <circle class="fil2 dots" cx="1438.44" cy="1202.45" r="252.53"/>
   <path class="fil3 circle" d="M6913.52 1144.12c76.79,0 150.63,15.5 217.82,43.56 70.15,29.53 133.65,71.62 186.07,124.05 52.42,52.42 95.25,115.93 124.05,186.07 28.06,67.93 43.56,141.77 43.56,218.56 0,76.79 -15.5,150.63 -43.56,218.56 -28.8,69.41 -71.62,132.91 -124.05,185.33l0 0c-52.42,53.16 -115.93,95.25 -186.07,124.05 -67.19,28.06 -141.03,43.56 -217.82,43.56 -77.53,0 -151.37,-15.5 -218.56,-43.56 -70.15,-28.8 -132.91,-70.88 -186.07,-124.05l0 0c-52.42,-52.42 -95.25,-115.93 -124.05,-185.33 -28.06,-67.93 -43.56,-141.77 -43.56,-218.56 0,-76.79 15.5,-151.37 43.56,-218.56 28.8,-70.15 71.62,-132.91 124.05,-185.33l0 -0.74c53.16,-52.42 115.93,-94.51 186.07,-124.05 67.19,-28.06 141.03,-43.56 218.56,-43.56zm294.61 276.9c-38.39,-38.39 -84.18,-69.41 -135.13,-90.82 -48.73,-19.93 -102.64,-31.01 -159.49,-31.01 -56.85,0 -111.5,11.07 -160.23,31.01 -50.21,21.41 -96.73,52.42 -135.13,90.82 -38.39,39.13 -70.15,84.91 -90.82,135.13 -19.93,49.47 -31.75,103.37 -31.75,160.23 0,56.85 11.81,110.76 31.75,159.49 20.67,50.95 52.42,96.73 90.82,135.86 38.39,38.39 84.91,69.41 135.13,90.08 48.73,20.67 103.37,31.75 160.23,31.75 56.85,0 110.76,-11.07 159.49,-31.75 50.95,-20.67 96.73,-51.69 135.13,-90.08 39.13,-39.13 70.15,-84.91 90.82,-135.86 20.67,-48.73 31.75,-102.64 31.75,-159.49 0,-56.85 -11.07,-110.76 -31.75,-160.23 -20.67,-50.21 -51.69,-95.99 -90.82,-135.13z"/>
   <circle class="fil2 dots1" cx="8161.38" cy="5425.24" r="158.75"/>
  </g>
  <rect class="fil4" x="0" y="-0" width="8813.28" height="8813.29"/>
 </g>
</svg>
