<?xml version="1.0" encoding="UTF-8"?>
<!DOCTYPE svg PUBLIC "-//W3C//DTD SVG 1.1//EN" "http://www.w3.org/Graphics/SVG/1.1/DTD/svg11.dtd">
<!-- Creator: CorelDRAW 2018 (64-Bit Evaluation Version) -->
<svg xmlns="http://www.w3.org/2000/svg" xml:space="preserve" width="6in" height="6in" version="1.1" style="shape-rendering:geometricPrecision; text-rendering:geometricPrecision; image-rendering:optimizeQuality; fill-rule:evenodd; clip-rule:evenodd"
viewBox="0 0 2736.01 2736.01"
 xmlns:xlink="http://www.w3.org/1999/xlink">
 <defs>
  <style type="text/css">
   
    .str1 {stroke:black;stroke-width:37.9;stroke-miterlimit:2.61313}
    .str0 {stroke:black;stroke-width:95.1;stroke-miterlimit:2.61313}
    .fil0 {fill:none}
    .fil2 {fill:black}
    .fil3 {fill:#66FFCC}
    .fil1 {fill:#FF9933}
    .fil4 {fill:#66FFCC;fill-rule:nonzero}
   
    .dots{
        animation: grow 3s infinite;
        transform-origin: 450px 360px;        
    }

    .dots1{
        animation: grow 3s infinite;
        transform-origin: 2450px 1650px;        
    }

    .circle{
        animation: grow 3s infinite;
        transform-origin: 2050px 600px;        
    }

    .star{
        animation: grow 3s infinite;
        transform-origin: 1500px 2350px;        
    }

    .loader{
        animation: grow 3s infinite;
        transform-origin: 350px 1050px;        
    }

    .dots, .circle, .star {
        animation-delay: 1.5s;
    }

    @keyframes grow {
        0%, 100% {
        transform: scale(0);
        opacity: 0;
        }

        50% {
        transform: scale(1);
        opacity: 1;
        }
    }

  </style>
 </defs>
 <g id="Layer_x0020_1">
  <metadata id="CorelCorpID_0Corel-Layer"/>
  <g id="_2078624840208">
   <path class="fil0 str0" d="M557.33 649.86l1425.13 0c23.35,0 42.64,19.29 42.64,42.64l0 715.78 -396.3 0c-9.81,0 -18.28,8.46 -18.28,18.28l0 421.35c0,9.81 8.46,18.28 18.28,18.28l396.3 0 0 384.79c0,23.35 -19.29,42.64 -42.64,42.64l-1425.13 0c-23.35,0 -42.64,-19.29 -42.64,-42.64l0 -1558.47c0,-23.35 19.29,-42.64 42.64,-42.64l0 -0z"/>
   <path class="fil1 str1" d="M669.35 999.12l320.49 0c7.66,0 13.88,6.21 13.88,13.88l-0 321.85c0,7.66 -6.21,13.88 -13.87,13.88l-320.49 0c-7.66,0 -13.87,-6.21 -13.87,-13.88l-0 -321.85c0,-7.66 6.22,-13.88 13.88,-13.88z"/>
   <path class="fil1 str1" d="M1179.36 999.12l320.49 0c7.66,0 13.88,6.21 13.88,13.88l0 321.85c0,7.66 -6.21,13.88 -13.88,13.88l-320.49 0c-7.66,0 -13.87,-6.21 -13.87,-13.88l-0 -321.85c0,-7.66 6.22,-13.88 13.88,-13.88z"/>
   <path class="fil2" d="M653.78 1453.29l622.37 0c10.65,-0 19.29,14.09 19.29,31.47l0 0.34c0,17.38 -8.64,31.47 -19.29,31.47l-622.37 0c-10.65,-0 -19.29,-14.1 -19.29,-31.47l-0 -0.34c0,-17.38 8.64,-31.47 19.29,-31.47z"/>
   <path class="fil2" d="M652.43 1579.52l569.92 0c9.91,0 17.94,14.09 17.94,31.47l-0 0.34c0,17.38 -8.03,31.47 -17.93,31.47l-569.92 0c-9.9,-0 -17.93,-14.1 -17.93,-31.48l-0 -0.34c0,-17.38 8.03,-31.47 17.94,-31.47z"/>
   <path class="fil2" d="M653.78 1697.64l622.37 0c10.65,0 19.29,14.09 19.29,31.47l0 0.34c0,17.38 -8.64,31.47 -19.29,31.47l-622.37 0c-10.65,-0 -19.29,-14.1 -19.29,-31.48l-0 -0.34c0,-17.38 8.64,-31.47 19.29,-31.47z"/>
   <path class="fil2" d="M642.61 1801.19l260.93 0c4.49,0 8.12,14.09 8.12,31.47l-0 0.34c0,17.38 -3.64,31.47 -8.12,31.47l-260.93 0c-4.48,-0 -8.12,-14.1 -8.12,-31.48l-0 -0.34c0,-17.38 3.64,-31.47 8.12,-31.47z"/>
   <path class="fil3 str1" d="M693.72 1962.96l819.34 0c19.62,-0 35.54,2.88 35.54,6.43l0 146.2c0,3.55 -15.91,6.43 -35.54,6.43l-819.34 0c-19.62,0 -35.53,-2.88 -35.53,-6.43l0 -146.2c0,-3.55 15.91,-6.43 35.54,-6.43z"/>
   <path class="fil2" d="M992.55 766.28l166.85 0c2.81,0 5.08,14.1 5.08,31.47l-0 0.34c0,17.38 -2.27,31.47 -5.07,31.47l-166.85 0c-2.8,-0 -5.08,-14.1 -5.08,-31.47l0 -0.34c0,-17.38 2.27,-31.47 5.08,-31.47z"/>
   <path class="fil2" d="M1233.17 766.28l166.85 0c2.8,0 5.08,14.1 5.08,31.47l-0 0.34c0,17.38 -2.27,31.47 -5.08,31.47l-166.85 0c-2.8,-0 -5.08,-14.1 -5.08,-31.47l-0 -0.34c0,-17.38 2.27,-31.47 5.08,-31.47z"/>
   <path class="fil2" d="M1473.8 766.28l166.85 0c2.8,0 5.08,14.1 5.08,31.47l-0 0.34c0,17.38 -2.27,31.47 -5.08,31.47l-166.85 0c-2.8,-0 -5.08,-14.1 -5.08,-31.47l0 -0.34c0,-17.38 2.27,-31.47 5.08,-31.47z"/>
   <path class="fil2" d="M1714.42 766.28l166.85 0c2.8,0 5.08,14.1 5.08,31.47l-0 0.34c0,17.38 -2.27,31.47 -5.08,31.47l-166.85 0c-2.8,-0 -5.08,-14.1 -5.08,-31.47l0 -0.34c0,-17.38 2.27,-31.47 5.08,-31.47z"/>
   <circle class="fil0 str1" cx="713.69" cy="794.37" r="61.26"/>
   <circle class="fil1 str1" cx="1822.72" cy="1636.72" r="77.5"/>
   <path class="fil2" d="M1961.48 1562.26l536.41 0c9.34,0 16.92,14.09 16.92,31.47l-0 0.34c0,17.38 -7.58,31.47 -16.92,31.47l-536.41 0c-9.34,-0 -16.92,-14.1 -16.92,-31.47l0 -0.34c0,-17.38 7.58,-31.47 16.92,-31.47z"/>
   <path class="fil2" d="M1949.29 1656.35l460.94 0c7.85,-0 14.21,14.09 14.21,31.47l0 0.34c-0,17.38 -6.37,31.47 -14.22,31.47l-460.94 0c-7.85,-0 -14.21,-14.1 -14.21,-31.47l0 -0.34c0,-17.38 6.36,-31.47 14.21,-31.47z"/>
   <path class="fil0 str0" d="M1651.81 1408.28l952 0c22.8,-0 41.29,8.18 41.29,18.27l0 421.01c-0,10.09 -18.49,18.27 -41.29,18.27l-952 0c-22.8,-0 -41.29,-8.19 -41.29,-18.28l-0 -421c0,-10.09 18.49,-18.28 41.29,-18.28z"/>
   <path class="fil4 loader" d="M412.48 1132.46c0,-10.83 -1.35,-21.66 -3.72,-32.15 -2.03,-10.83 -5.41,-20.98 -10.15,-30.8 -4.4,-9.81 -9.48,-19.29 -15.57,-28.09 -6.09,-8.8 -13.2,-16.92 -20.98,-24.37 -7.45,-7.45 -15.91,-14.21 -25.04,-19.97 -9.14,-5.75 -18.61,-10.49 -28.43,-14.55 -9.81,-3.72 -19.97,-6.77 -30.46,-8.46 -10.49,-2.03 -20.98,-2.71 -31.47,-2.37 -10.49,0.34 -20.98,1.35 -31.14,3.72 -10.49,2.37 -20.31,5.41 -29.78,9.48 -9.81,4.4 -18.95,9.48 -27.41,15.57 -8.46,5.75 -16.58,12.52 -23.69,19.97 -7.11,7.45 -13.54,15.57 -18.95,24.37 -5.75,8.8 -10.49,17.94 -13.88,27.75 -4.06,9.48 -6.77,19.29 -8.46,29.44 -1.69,10.15 -2.71,20.31 -2.37,30.46 0.34,10.15 1.35,20.31 3.72,30.12 2.03,10.15 5.08,19.63 9.14,28.77 4.06,9.48 9.14,18.28 14.89,26.4 6.09,8.46 12.52,16.25 19.63,23.01 7.45,6.77 15.23,13.2 23.69,18.61 8.46,5.41 17.26,9.81 26.4,13.2 9.48,3.72 18.95,6.43 28.77,8.12 9.81,1.69 19.29,2.37 29.44,2.37 9.81,-0.34 19.63,-1.69 29.44,-3.72 9.48,-2.03 18.61,-5.08 27.41,-9.14 9.14,-3.72 17.6,-8.46 25.72,-14.21 8.12,-5.75 15.23,-11.85 21.66,-18.95 6.77,-7.11 12.86,-14.55 18.28,-23.01 5.08,-8.12 9.48,-16.58 12.86,-25.38 2.03,-5.41 3.72,-11.17 5.41,-16.58 1.35,-5.75 2.37,-11.51 3.05,-17.26 0.34,0 0.34,0 0.68,0 0.34,0 0.34,0 0.68,0 5.75,0 10.83,-2.03 14.89,-6.09 4.06,-3.72 5.75,-8.8 5.75,-14.55 0,-0.34 0,-0.68 0,-1.02 0,-0.34 0,-0.34 0,-0.68l0 0 0 0zm-32.83 55.16c-3.72,8.46 -8.46,16.92 -13.88,24.37 -5.41,7.78 -11.51,14.89 -18.28,21.32 -6.77,6.43 -14.21,12.18 -22,17.26 -7.78,4.74 -16.25,9.14 -24.7,12.52 -8.8,3.38 -17.6,5.75 -26.74,7.45 -9.14,1.35 -18.28,2.03 -27.41,2.03 -9.14,-0.34 -18.28,-1.35 -27.07,-3.38 -9.14,-2.03 -17.6,-4.74 -26.06,-8.46 -8.12,-3.38 -16.25,-8.12 -23.69,-13.2 -7.45,-5.41 -14.21,-11.17 -20.64,-17.94 -6.09,-6.43 -11.51,-13.54 -16.25,-20.98 -4.74,-7.78 -8.8,-15.57 -12.18,-24.03 -3.05,-8.46 -5.41,-16.92 -7.11,-25.72 -1.35,-8.8 -2.03,-17.6 -2.03,-26.4 0.34,-8.8 1.35,-17.6 3.38,-26.4 2.03,-8.46 4.74,-16.92 8.12,-24.7 3.72,-8.12 8.12,-15.57 12.86,-22.67 5.08,-7.45 10.49,-13.88 16.92,-19.97 6.43,-5.75 13.2,-11.17 20.64,-15.57 7.11,-4.74 14.89,-8.46 22.67,-11.51 8.12,-3.38 16.25,-5.75 25.04,-7.11 8.46,-1.35 16.92,-2.03 25.38,-1.69 8.46,0 16.92,1.35 25.04,3.05 8.46,1.69 16.58,4.4 24.37,7.78 7.45,3.72 14.55,7.78 21.66,12.52 6.77,5.08 13.2,10.49 18.61,16.58 6.09,5.75 11.17,12.52 15.57,19.63 4.4,6.77 8.12,14.21 11.17,22 2.71,7.45 4.74,15.57 6.43,23.69 1.35,8.12 1.69,16.25 1.69,24.37l0 0c0,0.34 0,0.34 0,0.68 0,0.34 0,0.68 0,1.02 0,5.41 1.69,9.81 5.41,13.88 3.38,4.06 7.78,6.09 12.86,6.77 -1.02,5.75 -2.37,11.17 -4.06,16.58 -1.35,5.75 -3.38,10.83 -5.75,16.25l0 -0z"/>
   <path class="fil4 star" d="M1555.02 2328.47l-66.33 -9.48 -29.44 -60.24 -29.78 60.24 -65.99 9.48 47.72 46.7 -11.17 65.99 59.22 -31.14 59.22 31.14 -11.51 -65.99 48.06 -46.7 0 0zm-95.78 66.67l-41.96 22 8.12 -46.7 -33.84 -32.83 46.7 -6.77 20.98 -42.64 20.98 42.64 46.7 6.77 -33.84 32.83 7.78 46.7 -41.63 -22z"/>
   <circle class="fil3 dots" cx="384.39" cy="373.36" r="78.51"/>
   <path class="fil4 circle" d="M2083.99 355.42c23.69,0 46.7,4.74 67.69,13.54 21.66,9.14 41.29,22.34 57.53,38.58 16.25,16.25 29.44,35.87 38.58,57.53 8.8,20.98 13.54,44 13.54,68.03 0,23.69 -4.74,46.7 -13.54,67.69 -8.8,21.66 -22,41.29 -38.58,57.53l0 0c-16.25,16.58 -35.87,29.78 -57.53,38.58 -20.98,8.8 -44,13.54 -67.69,13.54 -24.03,0 -47.04,-4.74 -68.03,-13.54 -21.66,-8.8 -41.29,-22 -57.53,-38.58l0 0c-16.25,-16.25 -29.44,-35.87 -38.58,-57.53 -8.8,-20.98 -13.54,-44 -13.54,-67.69 0,-24.03 4.74,-47.04 13.54,-68.03 9.14,-21.66 22.34,-41.29 38.58,-57.53l0 0c16.25,-16.25 35.87,-29.44 57.53,-38.58 20.98,-8.8 44,-13.54 68.03,-13.54zm91.38 85.96c-11.85,-12.18 -26.06,-21.66 -41.96,-28.09 -15.23,-6.43 -31.81,-9.81 -49.41,-9.81 -17.94,0 -34.52,3.38 -49.75,9.81 -15.57,6.43 -30.12,15.91 -41.96,28.09 -12.18,11.85 -21.66,26.06 -28.09,41.96 -6.43,15.23 -9.81,31.81 -9.81,49.75 0,17.6 3.38,34.18 9.81,49.41 6.43,15.91 15.91,30.12 28.09,41.96 11.85,12.18 26.4,21.66 41.96,28.43 15.23,6.09 31.81,9.48 49.75,9.48 17.6,0 34.18,-3.38 49.41,-9.48 15.91,-6.77 30.12,-16.25 41.96,-28.43 12.18,-11.85 21.66,-26.06 28.43,-41.96 6.09,-15.23 9.48,-31.81 9.48,-49.41 0,-17.94 -3.38,-34.52 -9.48,-49.75 -6.77,-15.57 -16.25,-30.12 -28.43,-41.96z"/>
   <circle class="fil3 dots1" cx="2471.15" cy="1684.1" r="49.41"/>
  </g>
  <rect class="fil0" x="0" y="-0" width="2736.01" height="2736.01"/>
 </g>
</svg>
